<svg width="101" height="101" viewBox="0 0 101 101" fill="none" xmlns="http://www.w3.org/2000/svg">
<g clip-path="url(#clip0_142_1464)">
<path fill-rule="evenodd" clip-rule="evenodd" d="M65.5001 38.8424C65.7912 39.1327 66.022 39.4775 66.1796 39.8572C66.3371 40.2368 66.4182 40.6439 66.4182 41.0549C66.4182 41.4659 66.3371 41.873 66.1796 42.2526C66.022 42.6323 65.7912 42.9771 65.5001 43.2674L46.7501 62.0174C46.4599 62.3084 46.115 62.5393 45.7353 62.6968C45.3557 62.8544 44.9487 62.9355 44.5376 62.9355C44.1266 62.9355 43.7196 62.8544 43.3399 62.6968C42.9603 62.5393 42.6154 62.3084 42.3251 62.0174L32.9501 52.6424C32.6596 52.3519 32.4291 52.0069 32.2719 51.6273C32.1146 51.2477 32.0337 50.8408 32.0337 50.4299C32.0337 50.019 32.1146 49.6121 32.2719 49.2325C32.4291 48.8529 32.6596 48.5079 32.9501 48.2174C33.2407 47.9268 33.5856 47.6964 33.9652 47.5391C34.3449 47.3819 34.7517 47.301 35.1626 47.301C35.5735 47.301 35.9804 47.3819 36.36 47.5391C36.7397 47.6964 37.0846 47.9268 37.3751 48.2174L44.5376 55.3862L61.0751 38.8424C61.3654 38.5514 61.7103 38.3205 62.0899 38.1629C62.4696 38.0054 62.8766 37.9243 63.2876 37.9243C63.6987 37.9243 64.1057 38.0054 64.4853 38.1629C64.865 38.3205 65.2099 38.5514 65.5001 38.8424Z" fill="#FF8902"/>
<path d="M64.9937 16.1358L59.2375 10.2358L63.7062 5.87329L67.5937 9.85454L73.1562 9.78579C75.564 9.75729 77.9532 10.2105 80.1833 11.1188C82.4134 12.0272 84.4394 13.3722 86.1421 15.0749C87.8448 16.7776 89.1898 18.8036 90.0982 21.0337C91.0065 23.2638 91.4597 25.653 91.4312 28.0608L91.3687 33.6233L95.3437 37.5108C97.0653 39.1931 98.4333 41.2026 99.3673 43.4211C100.301 45.6396 100.782 48.0224 100.782 50.4295C100.782 52.8367 100.301 55.2195 99.3673 57.438C98.4333 59.6565 97.0653 61.666 95.3437 63.3483L91.3625 67.2358L91.4312 72.7983C91.4597 75.2061 91.0065 77.5953 90.0982 79.8254C89.1898 82.0555 87.8448 84.0815 86.1421 85.7842C84.4394 87.4869 82.4134 88.8319 80.1833 89.7402C77.9532 90.6486 75.564 91.1018 73.1562 91.0733L67.5937 91.0108L63.7062 94.9858C62.0239 96.7074 60.0144 98.0754 57.7959 99.0094C55.5774 99.9434 53.1946 100.425 50.7875 100.425C48.3804 100.425 45.9975 99.9434 43.779 99.0094C41.5605 98.0754 39.551 96.7074 37.8687 94.9858L33.9812 91.0046L28.4187 91.0733C26.0109 91.1018 23.6217 90.6486 21.3916 89.7402C19.1615 88.8319 17.1355 87.4869 15.4328 85.7842C13.7301 84.0815 12.3851 82.0555 11.4768 79.8254C10.5684 77.5953 10.1152 75.2061 10.1437 72.7983L10.2062 67.2358L6.2312 63.3483C4.50958 61.666 3.14158 59.6565 2.20759 57.438C1.27361 55.2195 0.79248 52.8367 0.79248 50.4295C0.79248 48.0224 1.27361 45.6396 2.20759 43.4211C3.14158 41.2026 4.50958 39.1931 6.2312 37.5108L10.2125 33.6233L10.1437 28.0608C10.1152 25.653 10.5684 23.2638 11.4768 21.0337C12.3851 18.8036 13.7301 16.7776 15.4328 15.0749C17.1355 13.3722 19.1615 12.0272 21.3916 11.1188C23.6217 10.2105 26.0109 9.75729 28.4187 9.78579L33.9812 9.84829L37.8687 5.87329C39.551 4.15167 41.5605 2.78367 43.779 1.84968C45.9975 0.9157 48.3804 0.43457 50.7875 0.43457C53.1946 0.43457 55.5774 0.9157 57.7959 1.84968C60.0144 2.78367 62.0239 4.15167 63.7062 5.87329L59.2375 10.2358C58.1372 9.10946 56.8229 8.21445 55.3718 7.60339C53.9206 6.99233 52.362 6.67754 50.7875 6.67754C49.2129 6.67754 47.6543 6.99233 46.2031 7.60339C44.752 8.21445 43.4377 9.10946 42.3375 10.2358L36.5875 16.1358L28.3375 16.0358C26.7636 16.0182 25.202 16.3153 23.7446 16.9097C22.2872 17.5041 20.9632 18.3838 19.8505 19.497C18.7378 20.6103 17.8588 21.9347 17.2652 23.3925C16.6716 24.8502 16.3753 26.4119 16.3937 27.9858L16.4937 36.2233L10.5937 41.9795C9.46737 43.0798 8.57236 44.3941 7.9613 45.8452C7.35024 47.2964 7.03545 48.855 7.03545 50.4295C7.03545 52.0041 7.35024 53.5627 7.9613 55.0139C8.57236 56.465 9.46737 57.7793 10.5937 58.8796L16.4937 64.6296L16.3937 72.8795C16.3761 74.4534 16.6732 76.015 17.2676 77.4724C17.862 78.9299 18.7417 80.2538 19.855 81.3665C20.9682 82.4792 22.2926 83.3582 23.7504 83.9518C25.2081 84.5454 26.7698 84.8417 28.3437 84.8233L36.5812 84.7233L42.3375 90.6233C43.4377 91.7496 44.752 92.6446 46.2031 93.2557C47.6543 93.8668 49.2129 94.1815 50.7875 94.1815C52.362 94.1815 53.9206 93.8668 55.3718 93.2557C56.8229 92.6446 58.1372 91.7496 59.2375 90.6233L64.9875 84.7233L73.2375 84.8233C74.8113 84.8409 76.3729 84.5438 77.8303 83.9494C79.2878 83.355 80.6117 82.4753 81.7244 81.3621C82.8371 80.2488 83.7161 78.9244 84.3097 77.4666C84.9033 76.0089 85.1996 74.4472 85.1812 72.8733L85.0812 64.6358L90.9812 58.8796C92.1075 57.7793 93.0026 56.465 93.6136 55.0139C94.2247 53.5627 94.5395 52.0041 94.5395 50.4295C94.5395 48.855 94.2247 47.2964 93.6136 45.8452C93.0026 44.3941 92.1075 43.0798 90.9812 41.9795L85.0812 36.2295L85.1812 27.9795C85.1988 26.4057 84.9017 24.8441 84.3073 23.3867C83.7129 21.9292 82.8332 20.6053 81.72 19.4926C80.6067 18.3799 79.2823 17.5009 77.8245 16.9073C76.3668 16.3137 74.8051 16.0174 73.2312 16.0358L64.9937 16.1358Z" fill="#FF8902"/>
</g>
<defs>
<clipPath id="clip0_142_1464">
<rect width="100" height="100" fill="white" transform="translate(0.787598 0.429688)"/>
</clipPath>
</defs>
</svg>
