<svg width="18" height="19" viewBox="0 0 18 19" fill="none" xmlns="http://www.w3.org/2000/svg">
<path d="M15.6301 3.87427C15.247 3.49103 14.7922 3.18701 14.2916 2.97959C13.791 2.77217 13.2545 2.66541 12.7126 2.66541C12.1707 2.66541 11.6342 2.77217 11.1336 2.97959C10.633 3.18701 10.1782 3.49103 9.79509 3.87427L9.00009 4.66927L8.20509 3.87427C7.43132 3.10051 6.38186 2.66581 5.28759 2.66581C4.19331 2.66581 3.14386 3.10051 2.37009 3.87427C1.59632 4.64804 1.16162 5.6975 1.16162 6.79177C1.16162 7.88605 1.59632 8.93551 2.37009 9.70927L3.16509 10.5043L9.00009 16.3393L14.8351 10.5043L15.6301 9.70927C16.0133 9.32621 16.3174 8.87138 16.5248 8.37079C16.7322 7.8702 16.839 7.33364 16.839 6.79177C16.839 6.24991 16.7322 5.71335 16.5248 5.21276C16.3174 4.71216 16.0133 4.25734 15.6301 3.87427V3.87427Z" stroke="#52575C" stroke-width="1.5" stroke-linecap="round" stroke-linejoin="round"/>
</svg>
