<svg width="225" height="48" viewBox="0 0 225 48" fill="none" xmlns="http://www.w3.org/2000/svg">
<path d="M37.3316 31.7241C37.8636 32.3681 38.1016 32.8721 38.0456 33.2361C38.0176 33.4321 37.9056 33.6141 37.7096 33.7821C37.5416 33.9501 37.3316 34.1181 37.0796 34.2861C36.8556 34.4261 36.6036 34.5521 36.3236 34.6641C36.0716 34.7761 35.8476 34.8741 35.6516 34.9581C35.1196 35.1541 34.4756 35.3081 33.7196 35.4201C32.9636 35.5321 32.2076 35.5601 31.4516 35.5041C29.8836 35.4201 28.1056 35.3501 26.1176 35.2941C24.1576 35.2661 22.1276 35.2521 20.0276 35.2521C17.9276 35.2521 15.8276 35.2661 13.7276 35.2941C11.6276 35.3501 9.68163 35.4201 7.88963 35.5041C7.24563 35.5321 6.69963 35.5321 6.25163 35.5041C5.83163 35.5041 5.45363 35.4761 5.11763 35.4201C4.78163 35.3641 4.45963 35.2801 4.15163 35.1681C3.87163 35.0561 3.57763 34.9161 3.26963 34.7481C3.12963 34.6921 2.98963 34.5801 2.84963 34.4121C2.73763 34.2441 2.61163 34.0341 2.47163 33.7821C2.13563 33.6701 1.84163 33.5021 1.58963 33.2781C1.36563 33.0261 1.22563 32.7601 1.16963 32.4801L1.29563 31.7241C1.46363 31.5001 1.67363 31.2761 1.92563 31.0521C2.20563 30.8281 2.47163 30.6741 2.72363 30.5901C3.03163 30.3381 3.35363 30.1141 3.68963 29.9181C4.02563 29.7221 4.37563 29.6381 4.73963 29.6661C5.60763 29.6941 6.82563 29.7081 8.39363 29.7081C9.98963 29.7081 11.7536 29.6941 13.6856 29.6661C13.9656 29.6661 14.2596 29.7781 14.5676 30.0021C16.0796 29.9461 17.5916 29.8901 19.1036 29.8341C20.6156 29.7781 22.0856 29.7081 23.5136 29.6241L23.2196 28.5321C23.1356 28.2241 23.0656 27.9581 23.0096 27.7341C22.9816 27.4821 22.9536 27.2441 22.9256 27.0201C22.8976 26.7681 22.8836 26.5161 22.8836 26.2641C22.9116 25.9841 22.9256 25.6481 22.9256 25.2561C21.8616 25.2561 20.7836 25.2701 19.6916 25.2981C18.5996 25.2981 17.5776 25.3121 16.6256 25.3401C15.7016 25.3681 14.8896 25.3961 14.1896 25.4241C13.4896 25.4521 12.9996 25.4801 12.7196 25.5081C12.4396 25.5641 12.0196 25.6061 11.4596 25.6341C10.9276 25.6341 10.4096 25.5641 9.90563 25.4241C9.51363 25.3121 9.10763 25.1441 8.68763 24.9201C8.29563 24.6961 7.95963 24.3881 7.67963 23.9961C7.56763 23.8561 7.49763 23.7021 7.46963 23.5341C7.46963 23.3661 7.48363 23.1981 7.51163 23.0301C7.34363 22.8061 7.20363 22.5261 7.09163 22.1901C6.97963 21.8261 6.96563 21.5321 7.04963 21.3081C7.16163 21.0281 7.38563 20.7901 7.72163 20.5941C8.08563 20.3981 8.58963 20.2721 9.23363 20.2161L13.3916 20.0901C14.0076 20.0901 14.6096 20.1881 15.1976 20.3841C16.4576 20.3001 17.7596 20.2441 19.1036 20.2161C20.4476 20.1881 21.7356 20.2021 22.9676 20.2581C22.9676 19.6141 22.9536 18.9701 22.9256 18.3261C22.9256 17.6541 22.9256 17.0101 22.9256 16.3941C22.2256 16.3941 21.4696 16.4081 20.6576 16.4361C19.8456 16.4641 19.0476 16.4921 18.2636 16.5201C17.4796 16.5201 16.7516 16.5201 16.0796 16.5201C15.4076 16.5201 14.8616 16.5201 14.4416 16.5201C13.9096 16.4921 13.4476 16.4081 13.0556 16.2681C12.6916 16.1001 12.3416 15.9321 12.0056 15.7641C11.6136 15.8201 11.2356 15.7921 10.8716 15.6801C10.5636 15.4841 10.2556 15.2881 9.94763 15.0921C9.66763 14.8681 9.37363 14.6441 9.06563 14.4201C8.61763 14.0841 8.37963 13.7761 8.35163 13.4961C8.32363 13.1881 8.42163 12.8381 8.64563 12.4461L9.23363 12.3621C9.31763 12.0541 9.42963 11.7181 9.56963 11.3541C9.73763 10.9901 9.84963 10.7801 9.90563 10.7241C10.0456 10.5841 10.1716 10.4721 10.2836 10.3881C10.4236 10.2761 10.5636 10.2061 10.7036 10.1781L10.9556 10.1361C11.0396 10.1641 11.1516 10.2061 11.2916 10.2621C11.4316 10.3181 11.5576 10.3741 11.6696 10.4301C12.7056 10.9061 14.1336 11.1021 15.9536 11.0181C16.0936 11.0181 16.2336 11.0461 16.3736 11.1021C16.5136 11.1581 16.7516 11.2141 17.0876 11.2701C17.7876 11.1861 18.5856 11.0881 19.4816 10.9761C20.3776 10.8361 21.2456 10.7381 22.0856 10.6821C23.0656 10.6261 24.0036 10.5141 24.8996 10.3461C25.7956 10.1781 26.4676 10.1081 26.9156 10.1361C27.2516 10.1361 27.5876 10.2061 27.9236 10.3461C27.5036 10.4021 27.2236 10.5141 27.0836 10.6821C27.3076 10.6541 27.5176 10.6681 27.7136 10.7241C27.9096 10.7801 28.1196 10.8361 28.3436 10.8921C28.5396 10.9481 28.7076 11.0041 28.8476 11.0601C28.9876 11.1161 29.1276 11.1721 29.2676 11.2281C29.6316 11.5641 29.9396 11.9001 30.1916 12.2361C30.4716 12.5441 30.6116 12.8801 30.6116 13.2441C30.6116 13.3841 30.5556 13.6081 30.4436 13.9161C30.3596 14.1961 30.2336 14.4201 30.0656 14.5881L29.8976 14.7561C29.8976 15.3721 29.8976 16.0301 29.8976 16.7301C29.8976 17.4301 29.8836 18.0881 29.8556 18.7041C29.8556 19.3201 29.8416 19.8521 29.8136 20.3001C29.8136 20.7481 29.7996 21.0421 29.7716 21.1821L29.4776 23.2821C29.4496 23.5901 29.4076 23.9821 29.3516 24.4581C29.2956 24.9061 29.2256 25.3541 29.1416 25.8021C29.0856 26.2501 29.0156 26.6561 28.9316 27.0201C28.8476 27.3561 28.7636 27.5661 28.6796 27.6501C28.6516 27.2581 28.5956 26.9221 28.5116 26.6421C28.4556 26.3341 28.3996 26.0681 28.3436 25.8441H28.2176C28.1056 26.4041 27.9796 26.9921 27.8396 27.6081C27.7276 28.2241 27.5736 28.8121 27.3776 29.3721C27.3776 29.4001 27.3636 29.4281 27.3356 29.4561C28.2596 29.4001 29.0716 29.3441 29.7716 29.2881C30.4996 29.2321 31.0876 29.1761 31.5356 29.1201C32.2356 29.0361 32.8376 29.0501 33.3416 29.1621C33.8736 29.2461 34.3776 29.4281 34.8536 29.7081C35.1056 29.8481 35.3576 30.0581 35.6096 30.3381C35.8616 30.5901 36.0996 30.8561 36.3236 31.1361C36.5756 31.2761 36.7716 31.3741 36.9116 31.4301C37.0516 31.4861 37.1916 31.5841 37.3316 31.7241ZM27.5036 15.3441C27.4476 15.5961 27.4196 15.8341 27.4196 16.0581C27.4196 16.2541 27.4336 16.4641 27.4616 16.6881C27.5456 16.6881 27.6436 16.7441 27.7556 16.8561C27.8116 17.1921 27.8256 17.5421 27.7976 17.9061C27.7976 18.2421 27.8536 18.5781 27.9656 18.9141C28.0216 19.0261 28.0916 19.0401 28.1756 18.9561C28.1756 18.8721 28.1896 18.6621 28.2176 18.3261C28.2456 17.9901 28.2596 17.7381 28.2596 17.5701C28.2596 17.5141 28.2736 17.4721 28.3016 17.4441C28.3576 17.4161 28.4276 17.4301 28.5116 17.4861C28.5396 17.6261 28.5396 17.7661 28.5116 17.9061C28.5116 18.0461 28.5816 18.1441 28.7216 18.2001C28.7496 18.2281 28.7636 18.3401 28.7636 18.5361C28.7916 18.8441 28.8196 19.2081 28.8476 19.6281C28.8756 20.0481 28.9036 20.3001 28.9316 20.3841L29.0576 20.5521C29.1416 20.4401 29.1836 20.2721 29.1836 20.0481C29.1556 19.8521 29.1276 19.5721 29.0996 19.2081C29.0996 18.8161 29.1136 18.4661 29.1416 18.1581C29.1976 17.6261 29.2396 17.1221 29.2676 16.6461C29.2956 16.1421 29.3236 15.6521 29.3516 15.1761C29.3516 15.0081 29.3376 14.8541 29.3096 14.7141C29.3096 14.5461 29.3236 14.3921 29.3516 14.2521C29.3516 14.1961 29.3236 14.1261 29.2676 14.0421C29.2396 13.9581 29.2116 13.9441 29.1836 14.0001L29.0156 14.2101L28.8896 15.0921C28.8616 15.1761 28.8336 15.2461 28.8056 15.3021C28.8056 15.3301 28.7496 15.3441 28.6376 15.3441C28.5816 15.1761 28.5256 14.9101 28.4696 14.5461C28.4136 14.1821 28.4136 13.9021 28.4696 13.7061C28.4976 13.5941 28.5116 13.4541 28.5116 13.2861C28.5116 13.1181 28.4836 12.9781 28.4276 12.8661C28.1476 12.8661 27.9376 12.9361 27.7976 13.0761C27.7976 13.3281 27.7836 13.6361 27.7556 14.0001C27.7276 14.3641 27.6856 14.6581 27.6296 14.8821C27.6016 14.9381 27.5736 15.0081 27.5456 15.0921C27.5176 15.1761 27.5036 15.2601 27.5036 15.3441ZM9.19163 13.4541C9.30363 13.6221 9.48563 13.8041 9.73763 14.0001C9.98963 14.1961 10.2696 14.3781 10.5776 14.5461C10.8856 14.7141 11.1796 14.8401 11.4596 14.9241C11.7676 15.0081 12.0056 15.0361 12.1736 15.0081C11.9496 14.6161 11.6836 14.3361 11.3756 14.1681C11.0956 14.0001 10.8156 13.8881 10.5356 13.8321C10.2556 13.7761 10.0176 13.7201 9.82163 13.6641C9.62563 13.5801 9.41563 13.5101 9.19163 13.4541ZM26.6216 16.8141C26.6216 16.8701 26.6496 16.9261 26.7056 16.9821C26.7896 17.0101 26.8736 17.0801 26.9576 17.1921C27.0136 16.8001 27.0416 16.4501 27.0416 16.1421C27.0416 15.8061 27.0276 15.4841 26.9996 15.1761C26.9996 15.0641 26.9576 15.0081 26.8736 15.0081C26.7336 15.0081 26.6496 15.0501 26.6216 15.1341V16.8141ZM16.8776 15.2601C16.8216 15.2601 16.7796 15.3021 16.7516 15.3861C16.7236 15.4421 16.6536 15.5261 16.5416 15.6381C17.2976 15.6381 17.9696 15.5961 18.5576 15.5121C18.6696 15.5121 18.7256 15.4561 18.7256 15.3441C18.6416 15.2041 18.5856 15.1341 18.5576 15.1341L16.8776 15.2601ZM22.5056 16.0581C22.5896 15.9741 22.6456 15.8901 22.6736 15.8061C22.5896 15.7781 22.5196 15.7501 22.4636 15.7221C22.4076 15.6941 22.3516 15.6801 22.2956 15.6801C20.5596 15.7641 18.8376 15.8061 17.1296 15.8061C17.1856 15.9181 17.2136 16.0161 17.2136 16.1001C17.2696 16.1281 17.3256 16.1421 17.3816 16.1421C18.9216 16.2261 20.4896 16.2261 22.0856 16.1421C22.3096 16.1421 22.4496 16.1141 22.5056 16.0581ZM24.0176 17.0661C23.9616 17.1501 23.9196 17.2901 23.8916 17.4861C23.8916 17.6541 23.8776 17.8361 23.8496 18.0321C23.8496 18.2001 23.8496 18.3681 23.8496 18.5361C23.8776 18.7041 23.8916 18.8161 23.8916 18.8721C23.8916 18.9281 23.9476 18.9561 24.0596 18.9561C24.1156 18.9281 24.1856 18.9001 24.2696 18.8721C24.3536 18.8441 24.4516 18.8021 24.5636 18.7461C24.5916 18.9141 24.6056 19.0821 24.6056 19.2501C24.6336 19.4181 24.6756 19.5721 24.7316 19.7121C24.7876 19.6561 24.8296 19.6281 24.8576 19.6281C24.8856 19.6001 24.8996 19.5581 24.8996 19.5021C24.8996 19.3341 24.8996 19.1101 24.8996 18.8301C24.9276 18.5221 24.9416 18.2281 24.9416 17.9481C24.9416 17.6401 24.9276 17.3741 24.8996 17.1501C24.8996 16.9261 24.8996 16.7721 24.8996 16.6881C24.7596 16.8281 24.6476 16.9681 24.5636 17.1081C24.4796 17.2481 24.3536 17.3741 24.1856 17.4861C24.1856 17.4301 24.1296 17.2901 24.0176 17.0661ZM23.3876 17.6541C23.3036 17.9621 23.2476 18.3681 23.2196 18.8721C23.2196 19.3481 23.2476 19.8101 23.3036 20.2581C23.3596 20.2861 23.4576 20.3001 23.5976 20.3001C23.5976 19.8801 23.5976 19.4601 23.5976 19.0401C23.5976 18.6201 23.5836 18.2141 23.5556 17.8221C23.5556 17.7941 23.5276 17.7801 23.4716 17.7801C23.4436 17.7521 23.4156 17.7101 23.3876 17.6541ZM11.3756 24.2481C11.7396 24.2481 12.2296 24.2481 12.8456 24.2481C13.4616 24.2481 14.1196 24.2481 14.8196 24.2481C15.5196 24.2481 16.2336 24.2621 16.9616 24.2901C17.7176 24.2901 18.4176 24.2901 19.0616 24.2901C19.2296 24.3181 19.3136 24.2621 19.3136 24.1221C19.1176 24.0661 18.7256 24.0241 18.1376 23.9961C17.5496 23.9401 17.0176 23.8981 16.5416 23.8701C16.3176 23.8701 15.9256 23.8701 15.3656 23.8701C14.8056 23.8701 14.2316 23.8701 13.6436 23.8701C13.0556 23.8701 12.5096 23.8701 12.0056 23.8701C11.5296 23.8701 11.2356 23.8701 11.1236 23.8701C10.7876 23.8701 10.6196 23.9541 10.6196 24.1221C10.7596 24.1781 10.8716 24.2061 10.9556 24.2061C11.0676 24.2061 11.2076 24.2201 11.3756 24.2481ZM21.1616 24.9201C21.3016 24.7801 21.3856 24.6821 21.4136 24.6261C21.3016 24.5701 21.1616 24.5421 20.9936 24.5421C20.6856 24.5421 20.3496 24.5561 19.9856 24.5841C19.6216 24.6121 19.2436 24.6121 18.8516 24.5841C18.5716 24.5561 18.3056 24.5561 18.0536 24.5841C17.8296 24.5841 17.5916 24.5841 17.3396 24.5841C17.2836 24.5841 17.2136 24.5981 17.1296 24.6261C17.0456 24.6261 16.9896 24.6961 16.9616 24.8361C17.5216 24.8921 18.0816 24.9341 18.6416 24.9621C19.2296 24.9621 19.8176 24.9761 20.4056 25.0041C20.5456 25.0041 20.6716 25.0041 20.7836 25.0041C20.8956 25.0041 21.0216 24.9761 21.1616 24.9201ZM26.5376 24.8361C26.3696 25.2281 26.0756 25.4101 25.6556 25.3821C25.5156 25.3541 25.3756 25.3541 25.2356 25.3821C25.1236 25.4101 24.9976 25.4241 24.8576 25.4241C24.8016 25.8721 24.7596 26.3061 24.7316 26.7261C24.7316 27.1461 24.8016 27.5941 24.9416 28.0701C25.1656 27.6781 25.3476 27.3001 25.4876 26.9361C25.5436 27.0481 25.5576 27.1321 25.5296 27.1881C25.5296 27.2441 25.5576 27.2861 25.6136 27.3141C25.7256 27.3701 25.8096 27.5101 25.8656 27.7341C25.9216 27.9301 25.9496 28.0981 25.9496 28.2381C26.1736 27.9581 26.3416 27.5941 26.4536 27.1461C26.5376 26.8101 26.6076 26.4601 26.6636 26.0961C26.7196 25.7321 26.7336 25.3821 26.7056 25.0461C26.6216 25.0181 26.5656 24.9481 26.5376 24.8361ZM23.3876 25.7601C23.3316 26.0681 23.3596 26.6001 23.4716 27.3561C23.5836 28.0841 23.7516 28.8401 23.9756 29.6241C24.0876 29.6241 24.1856 29.6241 24.2696 29.6241C24.3816 29.5961 24.4936 29.5821 24.6056 29.5821C24.5776 29.3861 24.5636 29.2181 24.5636 29.0781C24.5636 28.9101 24.5496 28.7841 24.5216 28.7001C24.3816 28.1681 24.2416 27.7061 24.1016 27.3141C23.9896 26.8941 23.8216 26.5301 23.5976 26.2221C23.5136 26.1101 23.4436 25.9561 23.3876 25.7601ZM35.5256 34.5381C35.4696 34.3981 35.5536 34.2721 35.7776 34.1601C36.0296 34.0201 36.2116 33.9221 36.3236 33.8661C36.3516 33.8381 36.3656 33.8101 36.3656 33.7821C36.3656 33.7541 36.3936 33.6981 36.4496 33.6141C36.1416 33.6981 35.7636 33.7821 35.3156 33.8661C34.8956 33.9221 34.4616 33.9921 34.0136 34.0761L33.8876 33.6981C33.7196 33.6421 33.5516 33.6141 33.3836 33.6141C33.2436 33.6141 33.1316 33.5861 33.0476 33.5301C32.9076 33.4741 32.7536 33.4601 32.5856 33.4881C32.4456 33.4881 32.3056 33.3761 32.1656 33.1521C32.2496 33.0401 32.3476 32.9701 32.4596 32.9421C32.5996 32.9141 32.7396 32.9001 32.8796 32.9001C33.0196 32.9001 33.1456 32.8861 33.2576 32.8581C33.3976 32.8301 33.5096 32.7741 33.5936 32.6901C33.2016 32.6341 32.8936 32.6201 32.6696 32.6481C32.4736 32.6481 32.2216 32.6901 31.9136 32.7741L31.3676 33.6141C31.5076 33.7541 31.6336 33.8801 31.7456 33.9921C31.8856 34.0761 32.0256 34.1601 32.1656 34.2441L32.0816 34.5801C31.7736 34.5241 31.4936 34.4681 31.2416 34.4121C31.0176 34.3841 30.7796 34.3701 30.5276 34.3701C30.2756 34.3141 30.0936 34.3281 29.9816 34.4121V34.6221C30.1776 34.7061 30.5136 34.7901 30.9896 34.8741C31.4656 34.9861 31.9976 35.0421 32.5856 35.0421C33.2016 35.0701 33.8456 35.0421 34.5176 34.9581C35.1896 34.8741 35.8336 34.6921 36.4496 34.4121L36.3656 34.2441L35.5256 34.5381ZM24.1856 33.7401C24.3536 33.7401 24.4376 33.6701 24.4376 33.5301C24.2416 33.4741 23.8356 33.4461 23.2196 33.4461C22.6316 33.4181 22.1136 33.4041 21.6656 33.4041C21.4416 33.4041 21.0496 33.4181 20.4896 33.4461C19.9296 33.4461 19.3556 33.4601 18.7676 33.4881C18.1796 33.5161 17.6336 33.5441 17.1296 33.5721C16.6536 33.5721 16.3596 33.5721 16.2476 33.5721C15.9116 33.5721 15.7436 33.6561 15.7436 33.8241C15.8836 33.8801 15.9956 33.9081 16.0796 33.9081C16.1916 33.9081 16.3316 33.9081 16.4996 33.9081L24.1856 33.7401ZM21.0776 34.7901C21.5536 34.7621 21.8756 34.7061 22.0436 34.6221C22.2396 34.5381 22.3516 34.4401 22.3796 34.3281C21.9876 34.3281 21.3996 34.3281 20.6156 34.3281C19.8596 34.3281 19.0756 34.3281 18.2636 34.3281C17.4516 34.3281 16.6956 34.3281 15.9956 34.3281C15.2956 34.3281 14.8196 34.3281 14.5676 34.3281C14.4836 34.3281 14.3996 34.2861 14.3156 34.2021C14.2596 34.1461 14.1476 34.1041 13.9796 34.0761C13.8396 34.0481 13.6996 34.0341 13.5596 34.0341C13.1956 34.0341 12.9436 34.0341 12.8036 34.0341C12.6636 34.0341 12.3696 34.0481 11.9216 34.0761C11.8096 34.0761 11.5856 34.1041 11.2496 34.1601C10.9416 34.1881 10.7316 34.2161 10.6196 34.2441L9.77963 34.4541C9.61163 34.4541 9.44363 34.4541 9.27563 34.4541C9.10763 34.4541 8.93963 34.4401 8.77163 34.4121C8.60363 34.3841 8.44963 34.3421 8.30963 34.2861C8.19763 34.2021 7.94563 34.1461 7.55363 34.1181L6.71363 34.2861C6.46163 34.3421 6.22363 34.3981 5.99963 34.4541C5.80363 34.5381 5.59363 34.5801 5.36963 34.5801C5.28563 34.5801 5.18763 34.6361 5.07563 34.7481L5.36963 34.9581C5.59363 35.0701 5.80363 35.1261 5.99963 35.1261C6.22363 35.1541 6.44763 35.1681 6.67163 35.1681C7.31563 35.1681 7.94563 35.1681 8.56163 35.1681C9.17763 35.1681 9.79363 35.1401 10.4096 35.0841H10.6196C10.6756 35.0561 10.7456 35.0281 10.8296 35.0001C10.9136 35.0001 11.0676 35.0001 11.2916 35.0001H12.0896C12.6776 35.0281 13.3776 35.0281 14.1896 35.0001C15.0296 34.9721 15.8696 34.9441 16.7096 34.9161C17.5496 34.8881 18.3616 34.8601 19.1456 34.8321C19.9296 34.8041 20.5736 34.7901 21.0776 34.7901ZM74.554 32.0181C75.198 32.5221 75.52 32.9981 75.52 33.4461C75.52 33.7541 75.38 34.0341 75.1 34.2861C74.848 34.5381 74.582 34.7341 74.302 34.8741C73.686 35.1541 73.014 35.3501 72.286 35.4621C71.558 35.6021 70.788 35.6021 69.976 35.4621C69.752 35.4341 69.43 35.3921 69.01 35.3361C68.59 35.2801 68.128 35.2241 67.624 35.1681C67.148 35.1401 66.658 35.0981 66.154 35.0421C65.65 35.0141 65.202 35.0001 64.81 35.0001C64.25 34.9721 63.438 34.9581 62.374 34.9581C61.338 34.9861 60.162 35.0001 58.846 35.0001C57.53 35.0281 56.144 35.0561 54.688 35.0841C53.26 35.1401 51.902 35.1821 50.614 35.2101C49.326 35.2381 48.178 35.2801 47.17 35.3361C46.162 35.3921 45.42 35.4341 44.944 35.4621C44.16 35.5181 43.488 35.5181 42.928 35.4621C42.368 35.4341 41.836 35.1681 41.332 34.6641C41.22 34.5521 41.122 34.3701 41.038 34.1181C40.982 33.8661 40.884 33.6701 40.744 33.5301L40.03 33.2361C39.834 33.0121 39.694 32.8441 39.61 32.7321C39.526 32.5921 39.428 32.4241 39.316 32.2281C39.232 32.0881 39.134 31.9201 39.022 31.7241C38.91 31.5001 38.826 31.3321 38.77 31.2201C38.63 30.8841 38.728 30.5481 39.064 30.2121C39.232 30.0441 39.442 29.9321 39.694 29.8761C39.89 29.8761 40.072 29.8761 40.24 29.8761C40.436 29.8761 40.576 29.8901 40.66 29.9181C40.8 30.0301 40.898 30.1141 40.954 30.1701C41.038 30.2261 41.192 30.2401 41.416 30.2121C41.36 29.9881 41.304 29.8201 41.248 29.7081C41.22 29.5961 41.136 29.4281 40.996 29.2041C40.912 29.0641 40.926 28.9521 41.038 28.8681C41.57 28.5881 42.158 28.6721 42.802 29.1201C43.474 29.5961 44.034 29.8901 44.482 30.0021C44.958 30.0861 45.518 30.1141 46.162 30.0861C46.33 30.0861 46.652 30.0861 47.128 30.0861C47.632 30.0581 48.22 30.0441 48.892 30.0441C49.564 30.0161 50.306 30.0021 51.118 30.0021C51.958 29.9741 52.812 29.9461 53.68 29.9181C53.652 29.2741 53.624 28.7141 53.596 28.2381C53.568 27.7621 53.526 27.4121 53.47 27.1881C53.414 26.9081 53.386 26.7121 53.386 26.6001C52.574 26.6281 51.874 26.6561 51.286 26.6841C50.698 26.6841 50.334 26.6981 50.194 26.7261C49.774 26.7821 49.326 26.8381 48.85 26.8941C48.402 26.9501 47.996 26.9641 47.632 26.9361C47.072 26.8801 46.596 26.6561 46.204 26.2641C45.812 25.8721 45.574 25.3541 45.49 24.7101C45.434 24.4021 45.49 24.0801 45.658 23.7441C45.854 23.3801 46.106 23.0581 46.414 22.7781C46.414 22.1901 46.456 21.5881 46.54 20.9721C46.624 20.3281 46.652 19.6841 46.624 19.0401C46.624 18.9841 46.624 18.8301 46.624 18.5781C46.624 18.2981 46.638 18.1161 46.666 18.0321C46.638 18.0321 46.582 18.0461 46.498 18.0741C46.414 18.0741 46.344 18.1021 46.288 18.1581C46.232 18.2141 46.176 18.2841 46.12 18.3681C46.092 18.4241 46.064 18.4661 46.036 18.4941C45.98 18.4101 45.938 18.3261 45.91 18.2421C45.91 18.1301 45.896 18.0321 45.868 17.9481C45.84 17.8081 45.826 17.5981 45.826 17.3181C45.854 17.0101 45.938 16.7721 46.078 16.6041C46.302 16.3241 46.624 16.0721 47.044 15.8481C47.464 15.6241 47.982 15.4421 48.598 15.3021C49.018 15.2741 49.494 15.3301 50.026 15.4701C50.586 15.6101 51.16 15.6661 51.748 15.6381C52.056 15.6101 52.644 15.6241 53.512 15.6801C54.38 15.7361 55.36 15.7501 56.452 15.7221C56.844 15.7221 57.264 15.7641 57.712 15.8481C58.16 15.9041 58.58 15.9181 58.972 15.8901C59.392 15.8061 59.77 15.7221 60.106 15.6381C60.47 15.5541 60.848 15.5121 61.24 15.5121L61.282 13.4541C60.498 13.4821 59.56 13.5101 58.468 13.5381C57.376 13.5381 56.298 13.5381 55.234 13.5381C54.17 13.5381 53.204 13.5241 52.336 13.4961C51.468 13.4681 50.88 13.4261 50.572 13.3701C49.984 13.2581 49.564 13.1461 49.312 13.0341C49.088 12.8941 48.976 12.7401 48.976 12.5721C48.192 12.1241 47.478 11.6061 46.834 11.0181C46.722 10.9061 46.61 10.8081 46.498 10.7241C46.386 10.6401 46.274 10.5701 46.162 10.5141C45.994 10.0941 46.064 9.71612 46.372 9.38012C46.428 9.32412 46.498 9.29612 46.582 9.29612C46.666 9.26812 46.736 9.22612 46.792 9.17012C46.82 9.11412 46.876 9.05812 46.96 9.00212C47.072 8.91812 47.156 8.86212 47.212 8.83412C47.352 8.83412 47.478 8.84812 47.59 8.87611C47.702 8.90412 47.828 8.93212 47.968 8.96012C48.164 9.01612 48.29 9.05812 48.346 9.08611C48.402 9.08611 48.542 9.04412 48.766 8.96012C48.654 8.79212 48.514 8.65212 48.346 8.54012C48.178 8.42812 47.996 8.28812 47.8 8.12012C47.996 7.98012 48.15 7.93812 48.262 7.99412C48.402 8.02212 48.598 8.12012 48.85 8.28812C49.102 8.45612 49.48 8.58212 49.984 8.66612C50.488 8.72212 51.09 8.79212 51.79 8.87611C51.93 8.90412 52.056 8.93212 52.168 8.96012C52.28 8.96012 52.392 8.97412 52.504 9.00212C52.644 9.00212 52.812 9.01612 53.008 9.04412C53.204 9.04412 53.47 9.04412 53.806 9.04412H54.562C55.038 9.24012 55.402 9.33812 55.654 9.33812C55.85 9.33812 56.13 9.33812 56.494 9.33812C56.886 9.31012 57.278 9.29612 57.67 9.29612C58.062 9.26812 58.412 9.24012 58.72 9.21212C59.028 9.18412 59.21 9.17012 59.266 9.17012C59.322 9.17012 59.392 9.15612 59.476 9.12812C59.56 9.07212 59.714 9.01612 59.938 8.96012C60.246 8.84812 60.652 8.77812 61.156 8.75012C61.688 8.69412 62.15 8.63812 62.542 8.58212C62.934 8.52612 63.326 8.45612 63.718 8.37212C64.166 8.28812 64.544 8.26012 64.852 8.28812C65.16 8.34412 65.412 8.42812 65.608 8.54012C65.804 8.62412 66.098 8.82012 66.49 9.12812C66.854 9.43612 67.134 9.70212 67.33 9.92612C67.526 10.1501 67.596 10.4021 67.54 10.6821C67.512 10.7941 67.456 10.9901 67.372 11.2701C67.316 11.5501 67.218 11.7601 67.078 11.9001C66.966 12.0121 66.826 12.1101 66.658 12.1941L66.532 14.7141C66.392 14.7141 66.322 14.6301 66.322 14.4621V12.2781C66.322 11.8861 66.252 11.5361 66.112 11.2281C65.972 10.8921 65.846 10.6681 65.734 10.5561C65.678 10.5001 65.622 10.4861 65.566 10.5141C65.482 10.4581 65.426 10.4441 65.398 10.4721C65.342 10.5281 65.272 10.5701 65.188 10.5981C65.3 10.7661 65.384 10.9341 65.44 11.1021L65.146 11.2281L65.398 12.7401C65.426 12.7401 65.524 12.7121 65.692 12.6561L65.818 13.0761L65.902 12.9921C65.902 12.7681 65.888 12.5021 65.86 12.1941C65.86 11.8581 65.888 11.6621 65.944 11.6061C66 11.6621 66.028 11.7461 66.028 11.8581C66.056 11.9701 66.07 12.0681 66.07 12.1521C66.098 12.4321 66.112 12.7121 66.112 12.9921C66.112 13.2721 66.112 13.5241 66.112 13.7481C66.112 13.8881 66.098 13.9861 66.07 14.0421C66.07 14.0701 66.056 14.1121 66.028 14.1681C65.832 14.0841 65.706 13.9721 65.65 13.8321C65.594 13.6921 65.524 13.5521 65.44 13.4121C65.356 13.2721 65.286 13.1321 65.23 12.9921C65.174 12.8521 65.104 12.6841 65.02 12.4881C64.992 12.5721 64.964 12.6281 64.936 12.6561C64.936 12.6841 64.936 12.7261 64.936 12.7821C64.964 13.0061 64.978 13.2441 64.978 13.4961C64.978 13.7201 64.978 13.9441 64.978 14.1681C64.978 14.2801 65.034 14.3781 65.146 14.4621L65.482 14.6721C65.594 14.7281 65.65 14.7981 65.65 14.8821C65.678 14.9381 65.664 14.9801 65.608 15.0081C65.552 15.0361 65.482 15.0361 65.398 15.0081C65.342 14.9801 65.272 14.9521 65.188 14.9241C65.104 15.0361 65.076 15.1481 65.104 15.2601C65.132 15.3721 65.132 15.4981 65.104 15.6381C65.328 15.8061 65.538 15.9741 65.734 16.1421C65.93 16.3101 66.182 16.4501 66.49 16.5621C66.63 16.6741 66.728 16.8561 66.784 17.1081C66.868 17.3601 66.882 17.5841 66.826 17.7801C66.77 17.7521 66.7 17.7381 66.616 17.7381C66.532 17.7101 66.42 17.7381 66.28 17.8221C66.224 17.9621 66.21 18.0601 66.238 18.1161C66.266 18.1441 66.28 18.2841 66.28 18.5361C66.28 18.5921 66.308 18.6341 66.364 18.6621C66.42 18.6901 66.448 18.7181 66.448 18.7461C66.448 18.9141 66.392 19.0261 66.28 19.0821C66.224 19.1101 66.14 19.1801 66.028 19.2921C65.944 19.3761 65.818 19.4741 65.65 19.5861C65.51 19.6981 65.342 19.7961 65.146 19.8801C64.95 19.9361 64.726 19.9501 64.474 19.9221C64.362 19.8941 64.166 19.8661 63.886 19.8381C63.606 19.7821 63.354 19.7541 63.13 19.7541C62.57 19.7261 61.968 19.6701 61.324 19.5861C60.708 19.5021 60.162 19.4181 59.686 19.3341C59.546 19.3901 59.392 19.4601 59.224 19.5441C59.056 19.6001 58.944 19.6281 58.888 19.6281C57.684 19.6001 56.508 19.6141 55.36 19.6701C54.24 19.6981 53.092 19.7121 51.916 19.7121L51.79 19.9641C51.762 20.0201 51.748 20.1181 51.748 20.2581C51.748 20.5101 51.748 20.7901 51.748 21.0981C51.748 21.3781 51.692 21.5461 51.58 21.6021C51.496 21.4901 51.454 21.3501 51.454 21.1821C51.454 21.0141 51.426 20.8601 51.37 20.7201C51.23 20.5241 51.146 20.3141 51.118 20.0901C51.09 19.8381 51.062 19.5861 51.034 19.3341C51.006 19.2501 50.964 19.1521 50.908 19.0401C50.88 18.9001 50.796 18.8021 50.656 18.7461C50.768 19.2781 50.824 19.8381 50.824 20.4261C50.824 20.6501 50.81 20.9161 50.782 21.2241C50.754 21.5321 50.754 21.7981 50.782 22.0221C51.958 22.0221 53.232 22.0221 54.604 22.0221C55.976 21.9941 57.306 21.9661 58.594 21.9381C59.91 21.9101 61.114 21.8821 62.206 21.8541C63.298 21.7981 64.166 21.7281 64.81 21.6441C65.874 21.5041 66.854 21.8541 67.75 22.6941C67.806 22.9181 67.848 23.1001 67.876 23.2401C67.932 23.3801 67.946 23.5061 67.918 23.6181C68.03 23.7861 68.142 23.9401 68.254 24.0801C68.366 24.2201 68.464 24.3181 68.548 24.3741L68.884 24.6261C69.052 25.1861 69.08 25.6901 68.968 26.1381C68.912 26.3061 68.758 26.4741 68.506 26.6421C68.282 26.8101 68.044 26.8661 67.792 26.8101C67.428 26.7261 66.91 26.6561 66.238 26.6001C65.594 26.5441 65.02 26.5021 64.516 26.4741H59.854C59.91 26.6701 59.952 26.8801 59.98 27.1041C60.036 27.3001 60.05 27.4681 60.022 27.6081C59.966 27.5801 59.896 27.5241 59.812 27.4401C59.756 27.3281 59.714 27.2581 59.686 27.2301L59.602 27.2721C59.602 27.3561 59.588 27.5521 59.56 27.8601C59.56 28.1401 59.504 28.3081 59.392 28.3641C59.336 28.2521 59.308 28.1401 59.308 28.0281C59.308 27.8881 59.294 27.7621 59.266 27.6501C59.238 27.3701 59.126 27.0481 58.93 26.6841C58.79 26.4041 58.65 26.1661 58.51 25.9701C58.398 25.7461 58.3 25.4801 58.216 25.1721C58.16 25.0321 58.076 24.9341 57.964 24.8781L57.838 24.8361C57.95 25.1441 58.034 25.4241 58.09 25.6761C58.174 25.9281 58.188 26.1101 58.132 26.2221C57.992 26.1661 57.908 26.0541 57.88 25.8861C57.852 25.6901 57.74 25.5641 57.544 25.5081C57.544 25.6201 57.572 25.7321 57.628 25.8441C57.712 26.1241 57.768 26.4041 57.796 26.6841C57.824 26.9361 57.838 27.2161 57.838 27.5241C57.838 27.7481 57.866 27.8881 57.922 27.9441L58.216 27.8181C58.244 28.1821 58.202 28.6021 58.09 29.0781C57.95 29.1341 57.838 29.0921 57.754 28.9521C57.698 28.7841 57.656 28.6021 57.628 28.4061C57.6 28.1821 57.572 27.9021 57.544 27.5661C57.544 27.2021 57.516 26.9081 57.46 26.6841C57.432 26.5441 57.32 26.4321 57.124 26.3481C57.152 26.5721 57.18 26.9361 57.208 27.4401C57.264 27.9441 57.278 28.4341 57.25 28.9101H57.166C57.11 28.7981 57.054 28.6581 56.998 28.4901C56.97 28.3221 56.886 28.2381 56.746 28.2381C56.802 28.5461 56.816 28.8261 56.788 29.0781C56.76 29.3021 56.76 29.5541 56.788 29.8341C57.124 29.8061 57.446 29.7921 57.754 29.7921C58.09 29.7921 58.412 29.7921 58.72 29.7921C58.72 29.5681 58.734 29.3301 58.762 29.0781C58.818 28.7981 58.874 28.6301 58.93 28.5741C59.098 28.7701 59.168 28.9661 59.14 29.1621C59.112 29.3581 59.126 29.5541 59.182 29.7501C59.966 29.7221 60.638 29.7081 61.198 29.7081C61.758 29.7081 62.15 29.6941 62.374 29.6661C62.626 29.6381 62.962 29.6381 63.382 29.6661C63.83 29.6661 64.292 29.6801 64.768 29.7081C65.188 29.6801 65.664 29.6521 66.196 29.6241C66.756 29.5961 67.288 29.5681 67.792 29.5401C68.296 29.4841 68.744 29.4421 69.136 29.4141C69.528 29.3861 69.808 29.3721 69.976 29.3721C70.564 29.3441 71.082 29.4281 71.53 29.6241C71.978 29.8201 72.412 30.0441 72.832 30.2961C72.972 30.3521 73.098 30.4501 73.21 30.5901C73.322 30.7301 73.392 30.9121 73.42 31.1361C73.644 31.2761 73.826 31.4021 73.966 31.5141C74.106 31.6261 74.302 31.7941 74.554 32.0181ZM64.726 8.87611C64.502 8.87611 64.292 8.87611 64.096 8.87611C63.9 8.87611 63.69 8.91812 63.466 9.00212C63.494 9.11412 63.508 9.22612 63.508 9.33812C63.508 9.45012 63.536 9.57612 63.592 9.71612C63.788 9.74412 63.984 9.77212 64.18 9.80012C64.376 9.80012 64.572 9.82812 64.768 9.88412C65.132 9.88412 65.286 9.71612 65.23 9.38012C65.174 9.24012 65.104 9.12812 65.02 9.04412C64.964 8.93212 64.866 8.87611 64.726 8.87611ZM66.07 9.25412C66.014 9.14211 65.93 9.05812 65.818 9.00212C65.734 8.94612 65.622 8.94612 65.482 9.00212L65.902 9.88412C66.154 9.68812 66.21 9.47812 66.07 9.25412ZM66.154 10.7661L66.406 11.1441C66.546 11.0041 66.672 10.8921 66.784 10.8081C66.896 10.6961 66.98 10.5561 67.036 10.3881L66.7 9.96812L66.154 10.7661ZM66.658 11.7741C66.91 11.6621 67.008 11.4521 66.952 11.1441C66.868 11.2001 66.77 11.3121 66.658 11.4801C66.63 11.5361 66.616 11.5921 66.616 11.6481C66.644 11.6761 66.658 11.7181 66.658 11.7741ZM60.988 12.2781C61.128 12.1661 61.226 12.0401 61.282 11.9001C61.338 11.8441 61.366 11.7741 61.366 11.6901C61.366 11.5781 61.38 11.4801 61.408 11.3961C61.324 11.3681 61.226 11.3541 61.114 11.3541C61.002 11.3261 60.918 11.3261 60.862 11.3541C60.358 11.3821 59.938 11.3961 59.602 11.3961C59.266 11.3961 58.902 11.4241 58.51 11.4801C58.482 11.5081 58.468 11.5781 58.468 11.6901C58.608 11.6901 58.734 11.7041 58.846 11.7321C58.986 11.7321 59.112 11.7321 59.224 11.7321C59.252 11.7601 59.266 11.8161 59.266 11.9001C58.958 11.9281 58.65 11.9561 58.342 11.9841C58.034 11.9841 57.726 11.9841 57.418 11.9841C57.726 12.1241 58.258 12.2221 59.014 12.2781C59.77 12.3061 60.428 12.3061 60.988 12.2781ZM63.424 15.5541C63.452 15.5821 63.522 15.5961 63.634 15.5961C63.662 15.4841 63.704 15.3721 63.76 15.2601C63.816 15.1481 63.872 15.0641 63.928 15.0081C64.012 15.2881 64.138 15.5681 64.306 15.8481C64.502 15.8481 64.6 15.7361 64.6 15.5121C64.6 14.9521 64.6 14.3921 64.6 13.8321C64.628 13.2721 64.614 12.6981 64.558 12.1101C64.558 12.0541 64.53 11.9701 64.474 11.8581C64.446 11.7181 64.418 11.6201 64.39 11.5641C64.334 11.6761 64.306 11.7881 64.306 11.9001C64.306 11.9841 64.306 12.0681 64.306 12.1521V13.5801C64.306 13.7481 64.18 13.8181 63.928 13.7901C63.9 13.5661 63.858 13.3281 63.802 13.0761C63.774 12.7961 63.648 12.5021 63.424 12.1941V15.5541ZM61.114 12.9921C61.17 12.9921 61.212 12.9501 61.24 12.8661C61.268 12.7821 61.268 12.7401 61.24 12.7401C61.156 12.7121 61.03 12.6841 60.862 12.6561C60.694 12.6281 60.526 12.6141 60.358 12.6141C60.274 12.6141 60.064 12.6141 59.728 12.6141C59.392 12.6141 59 12.6141 58.552 12.6141C58.132 12.6141 57.67 12.6141 57.166 12.6141C56.662 12.6141 56.186 12.6141 55.738 12.6141C55.29 12.6141 54.898 12.6141 54.562 12.6141C54.254 12.6141 54.058 12.6141 53.974 12.6141C53.75 12.5581 53.568 12.5721 53.428 12.6561C53.344 12.7121 53.274 12.7541 53.218 12.7821C53.162 12.8101 53.12 12.8521 53.092 12.9081C53.26 12.9641 53.694 13.0061 54.394 13.0341C55.122 13.0341 55.92 13.0341 56.788 13.0341C57.656 13.0341 58.496 13.0341 59.308 13.0341C60.12 13.0061 60.722 12.9921 61.114 12.9921ZM61.66 15.6801C61.744 15.6241 61.814 15.5821 61.87 15.5541C61.926 15.5261 61.968 15.4701 61.996 15.3861V12.9921C61.996 12.9361 61.954 12.8941 61.87 12.8661C61.786 12.8381 61.716 12.8241 61.66 12.8241V15.6801ZM50.362 21.9381C50.362 21.7701 50.362 21.5461 50.362 21.2661C50.39 20.9581 50.404 20.6641 50.404 20.3841C50.404 20.0761 50.39 19.8101 50.362 19.5861C50.362 19.3621 50.362 19.2081 50.362 19.1241C50.222 19.2641 50.11 19.4041 50.026 19.5441C49.942 19.6841 49.816 19.8101 49.648 19.9221C49.648 19.8661 49.592 19.7261 49.48 19.5021C49.424 19.5861 49.382 19.7261 49.354 19.9221C49.354 20.0901 49.34 20.2721 49.312 20.4681C49.312 20.6361 49.312 20.8041 49.312 20.9721C49.34 21.1401 49.354 21.2521 49.354 21.3081C49.354 21.3641 49.41 21.3921 49.522 21.3921C49.578 21.3641 49.648 21.3361 49.732 21.3081C49.816 21.2801 49.914 21.2381 50.026 21.1821C50.054 21.3501 50.068 21.5181 50.068 21.6861C50.096 21.8541 50.138 22.0081 50.194 22.1481C50.25 22.0921 50.292 22.0641 50.32 22.0641C50.348 22.0361 50.362 21.9941 50.362 21.9381ZM65.524 22.8201C65.496 23.0441 65.552 23.1701 65.692 23.1981C65.832 23.2261 65.944 23.3101 66.028 23.4501C65.972 23.5901 65.902 23.7021 65.818 23.7861C65.762 23.8701 65.678 23.9821 65.566 24.1221C65.818 24.1221 66.014 24.1221 66.154 24.1221C66.322 24.0941 66.448 24.0661 66.532 24.0381C66.616 24.0101 66.686 23.9821 66.742 23.9541C66.826 23.8981 66.924 23.8281 67.036 23.7441C67.008 23.4641 66.966 23.1841 66.91 22.9041C66.882 22.5961 66.63 22.4001 66.154 22.3161L65.524 22.8201ZM63.634 24.5001C63.55 24.5001 63.396 24.5001 63.172 24.5001C62.948 24.5001 62.71 24.5141 62.458 24.5421C62.206 24.5701 61.954 24.6121 61.702 24.6681C61.478 24.6961 61.324 24.7381 61.24 24.7941C61.38 24.9341 61.52 24.9761 61.66 24.9201C62.052 24.9201 62.388 24.9061 62.668 24.8781C62.976 24.8501 63.326 24.8501 63.718 24.8781C63.774 24.8221 63.802 24.7381 63.802 24.6261C63.774 24.5421 63.718 24.5001 63.634 24.5001ZM66.658 25.3821C66.294 25.3541 65.874 25.3401 65.398 25.3401C64.922 25.3121 64.46 25.3121 64.012 25.3401C63.592 25.3401 63.214 25.3541 62.878 25.3821C62.57 25.4101 62.374 25.4521 62.29 25.5081C62.346 25.5641 62.416 25.6061 62.5 25.6341C62.584 25.6621 62.752 25.6901 63.004 25.7181C63.424 25.7741 63.942 25.8021 64.558 25.8021C65.202 25.8021 65.874 25.8301 66.574 25.8861C66.742 25.9141 66.854 25.8581 66.91 25.7181C66.966 25.5781 66.882 25.4661 66.658 25.3821ZM49.732 26.2641C49.844 26.2641 49.9 26.2081 49.9 26.0961C49.9 26.0121 49.858 25.9421 49.774 25.8861C49.438 25.9141 49.102 25.9281 48.766 25.9281C48.458 25.9281 48.122 25.9281 47.758 25.9281C47.59 25.9281 47.45 25.9841 47.338 26.0961C47.422 26.1521 47.576 26.1941 47.8 26.2221C48.052 26.2501 48.304 26.2781 48.556 26.3061C48.836 26.3061 49.088 26.3061 49.312 26.3061C49.536 26.2781 49.676 26.2641 49.732 26.2641ZM56.032 27.7341C55.948 27.9301 55.92 28.2381 55.948 28.6581C56.004 29.0781 56.102 29.3861 56.242 29.5821C56.382 29.1901 56.424 28.8541 56.368 28.5741C56.312 28.2661 56.2 27.9861 56.032 27.7341ZM71.404 30.8001C71.432 30.8001 71.474 30.8001 71.53 30.8001C71.614 30.7721 71.74 30.7161 71.908 30.6321C71.824 30.5481 71.698 30.4781 71.53 30.4221C71.39 30.3381 71.278 30.2821 71.194 30.2541C70.578 30.0301 69.948 29.9321 69.304 29.9601C68.688 29.9601 68.128 30.0441 67.624 30.2121C67.736 30.3521 67.862 30.4221 68.002 30.4221C68.478 30.4501 68.968 30.4781 69.472 30.5061C70.004 30.5341 70.578 30.6461 71.194 30.8421C71.278 30.8981 71.32 30.9121 71.32 30.8841C71.348 30.8561 71.376 30.8281 71.404 30.8001ZM44.482 31.3041C44.202 31.3041 43.978 31.2061 43.81 31.0101C43.642 30.7861 43.404 30.7021 43.096 30.7581L43.516 31.4301H43.012C42.928 31.4301 42.844 31.4021 42.76 31.3461C42.704 31.2621 42.634 31.2901 42.55 31.4301C42.83 31.7381 43.124 31.9201 43.432 31.9761C43.74 32.0321 44.09 32.0181 44.482 31.9341V31.3041ZM64.642 33.4461C64.754 33.4461 64.81 33.3901 64.81 33.2781C64.81 33.1941 64.768 33.1241 64.684 33.0681C64.348 33.0961 64.012 33.1101 63.676 33.1101C63.368 33.1101 63.032 33.1101 62.668 33.1101C62.5 33.1101 62.36 33.1661 62.248 33.2781C62.332 33.3341 62.486 33.3761 62.71 33.4041C62.962 33.4321 63.214 33.4601 63.466 33.4881C63.746 33.4881 63.998 33.4881 64.222 33.4881C64.446 33.4601 64.586 33.4461 64.642 33.4461ZM63.886 34.4121C64.054 34.3841 64.25 34.3001 64.474 34.1601C64.362 34.1321 64.208 34.1041 64.012 34.0761C63.816 34.0481 63.592 34.0341 63.34 34.0341C63.088 34.0341 62.836 34.0341 62.584 34.0341C62.332 34.0341 62.108 34.0341 61.912 34.0341C61.912 34.0341 61.674 34.0481 61.198 34.0761C60.722 34.0761 60.176 34.0901 59.56 34.1181C58.972 34.1461 58.384 34.1741 57.796 34.2021C57.208 34.2301 56.802 34.2581 56.578 34.2861C56.522 34.3141 56.438 34.3561 56.326 34.4121C56.242 34.4681 56.158 34.5101 56.074 34.5381C56.186 34.6221 56.312 34.6641 56.452 34.6641C57.432 34.6081 58.384 34.5941 59.308 34.6221C60.232 34.6501 61.17 34.6361 62.122 34.5801C62.458 34.5521 62.766 34.5241 63.046 34.4961C63.354 34.4961 63.634 34.4681 63.886 34.4121ZM81.7044 14.9661C81.5644 14.7701 81.4384 14.5741 81.3264 14.3781C81.1584 14.0701 81.1164 13.8181 81.2004 13.6221C81.3684 13.5381 81.5504 13.4401 81.7464 13.3281C81.9424 13.2161 82.1664 13.0481 82.4184 12.8241C82.5864 12.7681 82.9084 12.7121 83.3844 12.6561C83.6924 12.7121 83.9724 12.7401 84.2244 12.7401C84.4764 12.7401 84.7564 12.7401 85.0644 12.7401L86.2404 12.6141L85.7784 11.3961C85.7504 11.2001 85.7224 11.0041 85.6944 10.8081C85.6944 10.5841 85.7504 10.4021 85.8624 10.2621C85.7784 10.1221 85.7084 10.0101 85.6524 9.92612C85.5964 9.81412 85.5684 9.71612 85.5684 9.63212C85.6244 9.35212 85.7224 9.14212 85.8624 9.00212L86.6604 8.33012C86.3244 8.24612 86.0024 8.14812 85.6944 8.03612C85.4144 7.89612 85.1904 7.72812 85.0224 7.53211C84.7984 7.42012 84.5884 7.37812 84.3924 7.40612C84.2244 7.40612 84.0704 7.39212 83.9304 7.36412C83.5104 7.14012 83.1604 6.90212 82.8804 6.65012C82.7404 6.53812 82.6284 6.42612 82.5444 6.31412C82.4884 6.17412 82.4324 6.00612 82.3764 5.81012C82.6004 5.61412 82.7124 5.30612 82.7124 4.88612C82.7684 4.77412 82.8384 4.66212 82.9224 4.55012C83.0064 4.43812 83.1044 4.32612 83.2164 4.21411C83.4124 4.01812 83.7624 3.92012 84.2664 3.92012C84.5184 3.89212 84.7424 3.86412 84.9384 3.83611C85.1624 3.80812 85.4424 3.82212 85.7784 3.87812C86.2264 4.01812 86.6464 4.11612 87.0384 4.17212C87.4304 4.22812 87.8084 4.25612 88.1724 4.25612C88.5364 4.25612 89.0964 4.24212 89.8524 4.21411C90.6364 4.15812 91.4484 4.11612 92.2884 4.08812C93.1564 4.03212 93.9684 3.99012 94.7244 3.96212C95.5084 3.90612 96.1104 3.86412 96.5304 3.83611C96.8944 3.80812 97.3144 3.79412 97.7904 3.79412C98.2664 3.76612 98.6024 3.82212 98.7984 3.96212C99.0504 3.85012 99.3444 3.72412 99.6804 3.58412C100.016 3.44412 100.282 3.30412 100.478 3.16412C100.73 3.10811 101.01 3.13611 101.318 3.24811C101.654 3.36012 101.962 3.58412 102.242 3.92012L102.83 4.71812C103.026 5.05412 103.124 5.41812 103.124 5.81012C103.264 5.89412 103.348 6.00612 103.376 6.14612C103.404 6.25812 103.404 6.38412 103.376 6.52412C103.264 6.83212 103.124 7.07012 102.956 7.23812C102.648 7.37812 102.41 7.47612 102.242 7.53211C102.102 7.56012 101.892 7.60212 101.612 7.65812C101.388 7.68612 101.136 7.70012 100.856 7.70012C100.604 7.70012 100.296 7.70012 99.9324 7.70012C99.7924 7.70012 99.5964 7.71412 99.3444 7.74212C99.1204 7.74212 98.8684 7.75612 98.5884 7.78412C98.8964 8.09212 99.1064 8.35812 99.2184 8.58212C99.4144 8.91812 99.5124 9.15612 99.5124 9.29612C99.5404 9.43612 99.5404 9.56212 99.5124 9.67412L99.3444 10.0521C99.2884 10.2761 99.2604 10.5001 99.2604 10.7241C99.2604 10.7801 99.2184 10.8081 99.1344 10.8081C99.1064 10.7801 99.0504 10.7101 98.9664 10.5981C98.9104 10.4861 98.8124 10.4581 98.6724 10.5141C98.7004 10.6541 98.7284 10.8081 98.7564 10.9761C98.7844 11.1441 98.7984 11.3821 98.7984 11.6901C98.5744 11.6061 98.4344 11.5081 98.3784 11.3961C98.3504 11.5361 98.3364 11.6901 98.3364 11.8581C98.3364 12.0261 98.3364 12.1801 98.3364 12.3201L99.3024 12.4461V12.0681C99.3304 11.5361 99.4564 11.2981 99.6804 11.3541C99.7364 11.7181 99.7364 12.0541 99.6804 12.3621V12.4881L100.058 12.6141C100.366 12.5581 100.604 12.5161 100.772 12.4881C100.94 12.4321 101.08 12.4041 101.192 12.4041C101.612 12.4601 102.004 12.5581 102.368 12.6981C102.732 12.8101 103.11 13.0201 103.502 13.3281C103.698 13.4401 103.936 13.7341 104.216 14.2101C104.44 14.2941 104.608 14.4481 104.72 14.6721C104.832 14.8681 104.86 15.0361 104.804 15.1761C104.748 15.2881 104.664 15.3861 104.552 15.4701C104.468 15.5541 104.37 15.6521 104.258 15.7641C104.118 15.8481 103.964 15.9041 103.796 15.9321C103.656 15.9321 103.502 15.9461 103.334 15.9741C103.082 16.3101 102.788 16.5061 102.452 16.5621L101.402 16.4361C101.262 16.4081 101.108 16.3801 100.94 16.3521C100.8 16.2961 100.646 16.2401 100.478 16.1841C100.31 16.2401 100.058 16.2961 99.7224 16.3521H98.7984C97.2024 16.2961 95.6064 16.3101 94.0104 16.3941C92.4424 16.4501 90.9864 16.5341 89.6424 16.6461C89.0824 16.7021 88.5084 16.7581 87.9204 16.8141C87.3324 16.8421 86.7864 16.8981 86.2824 16.9821C85.8904 17.0381 85.5404 17.0661 85.2324 17.0661C84.9524 17.0381 84.7144 16.9961 84.5184 16.9401C84.1824 16.7441 83.8744 16.5341 83.5944 16.3101C83.3144 16.0861 83.0764 15.8621 82.8804 15.6381C82.6004 15.5821 82.3624 15.4981 82.1664 15.3861C81.9984 15.2461 81.8444 15.1061 81.7044 14.9661ZM97.6224 4.08812C97.5104 4.06012 97.2444 4.06012 96.8244 4.08812C96.4324 4.11612 95.9564 4.15812 95.3964 4.21411C94.8364 4.27012 94.2344 4.34012 93.5904 4.42411C92.9744 4.48012 92.4004 4.55012 91.8684 4.63412L92.1624 4.84412C92.4144 4.84412 92.6664 4.83012 92.9184 4.80211C93.1704 4.77412 93.4084 4.78812 93.6324 4.84412C93.8004 4.90012 94.0244 4.92812 94.3044 4.92812C94.6124 4.92812 94.9204 4.91412 95.2284 4.88612C95.5644 4.83012 95.8864 4.77412 96.1944 4.71812C96.5304 4.63412 96.8244 4.55012 97.0764 4.46612C97.3844 4.38212 97.5664 4.25612 97.6224 4.08812ZM90.4404 6.90212C90.3844 6.93011 90.3564 6.98612 90.3564 7.07012C90.3564 7.12612 90.3984 7.15412 90.4824 7.15412C90.7904 7.15412 91.0844 7.15412 91.3644 7.15412C91.6724 7.12612 91.9804 7.05612 92.2884 6.94411C92.3164 6.94411 92.3724 6.88812 92.4564 6.77612C92.3164 6.74812 92.2184 6.72012 92.1624 6.69212C92.1344 6.63612 92.0644 6.63612 91.9524 6.69212C91.7284 6.69212 91.5184 6.70612 91.3224 6.73412C91.1264 6.73412 90.9164 6.74812 90.6924 6.77612C90.6084 6.77612 90.5244 6.81812 90.4404 6.90212ZM94.5144 7.32211C93.7864 7.32211 93.0584 7.35012 92.3304 7.40612C91.6304 7.46212 90.9304 7.63012 90.2304 7.91011C90.3984 7.96612 90.5104 7.99412 90.5664 7.99412C90.8464 8.02212 91.1404 8.03612 91.4484 8.03612C91.7844 8.00812 92.1064 7.98012 92.4144 7.95212C92.9184 7.92412 93.3944 7.88212 93.8424 7.82612C94.3184 7.74212 94.8084 7.71412 95.3124 7.74212C95.3964 7.79812 95.4664 7.79812 95.5224 7.74212C95.5784 7.68612 95.6064 7.65812 95.6064 7.65812C95.6064 7.63012 95.5924 7.61612 95.5644 7.61612C95.5644 7.58812 95.5644 7.56012 95.5644 7.53211C95.4244 7.42012 95.2564 7.36412 95.0604 7.36412C94.8924 7.33612 94.7104 7.32211 94.5144 7.32211ZM94.8084 10.0941C94.9204 9.64612 95.0184 9.25412 95.1024 8.91812C95.1864 8.55412 95.2984 8.24612 95.4384 7.99412C94.6264 8.05012 93.8424 8.12012 93.0864 8.20412C92.3584 8.26012 91.7704 8.31612 91.3224 8.37212L90.2724 8.49811C90.4404 8.72212 90.5664 8.96012 90.6504 9.21212C90.7344 9.46412 90.7904 9.66012 90.8184 9.80012C90.9024 10.2201 90.9444 10.6401 90.9444 11.0601C90.9724 11.4801 90.9724 11.9001 90.9444 12.3201C91.5884 12.2921 92.2044 12.2781 92.7924 12.2781C93.3804 12.2501 93.8984 12.2361 94.3464 12.2361H94.7664C94.7104 11.9001 94.6824 11.5641 94.6824 11.2281C94.6824 10.8641 94.7244 10.4861 94.8084 10.0941ZM96.0264 8.66612C95.9984 9.28212 95.9844 9.84212 95.9844 10.3461C96.0124 10.8501 96.0264 11.3541 96.0264 11.8581C96.1384 11.8581 96.2084 11.8301 96.2364 11.7741C96.3204 11.3261 96.3764 10.8641 96.4044 10.3881C96.4604 9.88412 96.4324 9.45012 96.3204 9.08611C96.3204 9.03012 96.2924 8.98812 96.2364 8.96012C96.1804 8.90412 96.1104 8.80612 96.0264 8.66612ZM88.9284 9.08611C89.0404 9.47812 89.2504 9.91212 89.5584 10.3881C89.6984 10.0801 89.7544 9.82812 89.7264 9.63212C89.7264 9.43612 89.6844 9.24012 89.6004 9.04412C89.5724 8.98812 89.5164 8.94612 89.4324 8.91812C89.3764 8.86212 89.3204 8.80612 89.2644 8.75012H89.1384C89.1104 8.75012 89.0824 8.76412 89.0544 8.79212C88.9704 8.87612 88.9284 8.97412 88.9284 9.08611ZM90.5664 12.3201C90.6224 11.9281 90.6364 11.4801 90.6084 10.9761C90.6084 10.4441 90.5664 9.94012 90.4824 9.46411C90.4264 9.40812 90.3704 9.36612 90.3144 9.33812C90.2864 9.28212 90.2304 9.24012 90.1464 9.21212C90.1464 9.29612 90.1324 9.39412 90.1044 9.50612C90.1044 9.61812 90.1184 9.70212 90.1464 9.75812C90.2024 10.0941 90.2444 10.3881 90.2724 10.6401C90.3004 10.8921 90.3004 11.1861 90.2724 11.5221C90.2444 11.6341 90.2304 11.7741 90.2304 11.9421C90.2584 12.0821 90.2864 12.2081 90.3144 12.3201H90.5664ZM95.5644 12.2361C95.5364 11.8721 95.5224 11.5221 95.5224 11.1861C95.5224 10.8501 95.4944 10.5141 95.4384 10.1781C95.4384 10.1501 95.4104 10.1361 95.3544 10.1361C95.2984 10.1081 95.2564 10.0661 95.2284 10.0101C95.1724 10.2621 95.1444 10.5981 95.1444 11.0181C95.1444 11.4381 95.1724 11.8441 95.2284 12.2361H95.5644ZM87.7944 10.4721C87.5704 10.6121 87.4304 10.7241 87.3744 10.8081C87.2624 11.2841 87.2064 11.8581 87.2064 12.5301L87.8364 12.4461C87.8364 12.1381 87.8364 11.8301 87.8364 11.5221C87.8364 11.2141 87.8224 10.8641 87.7944 10.4721ZM86.4924 11.1021C86.4084 11.2421 86.3944 11.4801 86.4504 11.8161C86.5064 12.1521 86.5764 12.4041 86.6604 12.5721C86.7164 12.5441 86.7724 12.5301 86.8284 12.5301C86.9124 12.3061 86.9124 12.0681 86.8284 11.8161C86.7724 11.5641 86.6604 11.3261 86.4924 11.1021ZM101.78 14.0001C101.444 14.1681 101.234 14.2801 101.15 14.3361C101.094 14.3641 101.024 14.4341 100.94 14.5461C101.164 14.6861 101.388 14.7001 101.612 14.5881C101.836 14.4481 102.06 14.4201 102.284 14.5041C102.536 14.8401 102.844 14.9101 103.208 14.7141C103.404 14.6301 103.418 14.5041 103.25 14.3361C103.11 14.2801 103.04 14.2241 103.04 14.1681C103.04 14.0841 103.054 14.0001 103.082 13.9161C103.11 13.8601 103.11 13.7901 103.082 13.7061C103.082 13.6221 103.082 13.5241 103.082 13.4121C102.802 13.4121 102.55 13.4121 102.326 13.4121C102.13 13.3841 101.934 13.4541 101.738 13.6221C101.766 13.6781 101.78 13.7481 101.78 13.8321C101.78 13.8881 101.78 13.9441 101.78 14.0001ZM86.1984 15.1341C85.8064 15.1901 85.4144 15.2461 85.0224 15.3021C84.6304 15.3301 84.2804 15.4001 83.9724 15.5121C84.1964 15.6521 84.5184 15.7221 84.9384 15.7221C85.3584 15.7221 85.7224 15.6521 86.0304 15.5121C86.1424 15.4561 86.2124 15.4141 86.2404 15.3861C86.2684 15.3301 86.3104 15.2741 86.3664 15.2181C86.3384 15.1621 86.2824 15.1341 86.1984 15.1341ZM89.7264 16.3101C89.8664 16.2821 89.9364 16.2401 89.9364 16.1841C89.9644 16.1281 89.9504 16.0721 89.8944 16.0161C89.3344 16.0721 88.7464 16.1141 88.1304 16.1421C87.5424 16.1421 87.0524 16.1421 86.6604 16.1421C86.4364 16.1421 86.1704 16.1561 85.8624 16.1841C85.5824 16.1841 85.3304 16.2121 85.1064 16.2681C85.1064 16.4921 85.1904 16.6321 85.3584 16.6881C85.8904 16.6881 86.4644 16.6741 87.0804 16.6461C87.6964 16.6181 88.2424 16.5761 88.7184 16.5201C88.8864 16.4921 89.0544 16.4641 89.2224 16.4361C89.4184 16.4081 89.5864 16.3661 89.7264 16.3101ZM109.424 19.8381C109.62 20.0341 109.76 20.2021 109.844 20.3421C109.956 20.4541 110.026 20.5941 110.054 20.7621C110.054 20.9861 109.97 21.2801 109.802 21.6441C109.522 22.2321 108.962 22.5681 108.122 22.6521C107.702 22.7361 107.142 22.7501 106.442 22.6941C106.302 22.6941 106.148 22.6801 105.98 22.6521C105.812 22.6241 105.518 22.5401 105.098 22.4001C104.23 22.4281 103.25 22.4561 102.158 22.4841C101.066 22.4841 99.9604 22.4981 98.8404 22.5261C97.7484 22.5541 96.6844 22.5821 95.6484 22.6101C94.6404 22.6381 93.7584 22.6661 93.0024 22.6941L86.9544 23.0301L82.4184 23.2821C82.2224 23.2821 82.0264 23.2961 81.8304 23.3241C81.6624 23.3241 81.4944 23.3241 81.3264 23.3241C81.1304 23.3241 80.9344 23.3241 80.7384 23.3241C80.5704 23.3241 80.3884 23.3101 80.1924 23.2821C79.8844 23.2541 79.5764 23.2261 79.2684 23.1981C78.9884 23.1421 78.6944 23.0721 78.3864 22.9881C77.8544 22.8481 77.3504 22.6101 76.8744 22.2741C76.4264 21.9381 76.2024 21.6301 76.2024 21.3501C76.2024 21.2661 76.2304 21.1401 76.2864 20.9721C76.5664 21.1121 76.8184 21.1961 77.0424 21.2241C77.0984 21.1681 77.1124 21.0981 77.0844 21.0141C77.0844 20.9021 77.0984 20.8041 77.1264 20.7201C77.2104 20.4121 77.3224 20.1601 77.4624 19.9641C77.6024 19.7401 77.7704 19.5301 77.9664 19.3341C78.6944 18.9421 79.3524 18.7181 79.9404 18.6621L81.0324 18.5781C81.4244 18.5501 81.8164 18.5361 82.2084 18.5361C82.6284 18.5361 83.0764 18.5361 83.5524 18.5361H84.3924L92.8344 18.2841C93.6464 18.2561 94.5004 18.2141 95.3964 18.1581C96.3204 18.1021 97.2024 18.0601 98.0424 18.0321C98.9104 17.9761 99.7084 17.9341 100.436 17.9061C101.164 17.8781 101.752 17.8641 102.2 17.8641C103.068 17.8641 103.95 17.9061 104.846 17.9901L105.686 18.1161C105.826 18.1721 105.966 18.2841 106.106 18.4521C106.274 18.6201 106.47 18.8161 106.694 19.0401C107.198 19.1801 107.646 19.2781 108.038 19.3341C108.458 19.3621 108.808 19.4321 109.088 19.5441L109.424 19.8381ZM84.0984 19.5861C84.0984 19.6421 84.1404 19.6701 84.2244 19.6701C84.5324 19.6701 84.8264 19.6701 85.1064 19.6701C85.4144 19.6421 85.7224 19.5721 86.0304 19.4601C86.0584 19.4601 86.1144 19.4041 86.1984 19.2921C86.0584 19.2641 85.9604 19.2361 85.9044 19.2081C85.8764 19.1521 85.8064 19.1521 85.6944 19.2081C85.4704 19.2081 85.2604 19.2221 85.0644 19.2501C84.8684 19.2501 84.6584 19.2641 84.4344 19.2921C84.3504 19.2921 84.2664 19.3341 84.1824 19.4181C84.1264 19.4461 84.0984 19.5021 84.0984 19.5861ZM89.6424 20.3421C89.7824 20.2581 89.9224 20.1461 90.0624 20.0061C90.2304 19.8381 90.3984 19.6841 90.5664 19.5441L85.1904 20.0901L84.8124 20.1741C85.0364 20.2301 85.3584 20.2861 85.7784 20.3421C86.2264 20.3701 86.5624 20.3841 86.7864 20.3841H88.7184C88.7744 20.3841 88.9004 20.3841 89.0964 20.3841C89.3204 20.3841 89.5024 20.3701 89.6424 20.3421ZM79.0584 22.4421C79.2544 22.4981 79.4084 22.5401 79.5204 22.5681C79.6604 22.5961 79.8844 22.6101 80.1924 22.6101C79.9964 22.4421 79.8564 22.3441 79.7724 22.3161C79.6884 22.2601 79.5764 22.2041 79.4364 22.1481C79.2964 22.0921 79.1144 22.0501 78.8904 22.0221C78.6944 21.9661 78.4984 21.9101 78.3024 21.8541C78.3584 21.7141 78.4004 21.6021 78.4284 21.5181C78.4844 21.4341 78.5404 21.3221 78.5964 21.1821C78.4284 21.0701 78.2744 21.0421 78.1344 21.0981C78.0224 21.1261 77.9104 21.1821 77.7984 21.2661C77.7424 21.3221 77.6864 21.3781 77.6304 21.4341C77.5744 21.4901 77.5184 21.5461 77.4624 21.6021C77.4904 21.7421 77.5604 21.9521 77.6724 22.2321L79.0584 22.4421ZM108.668 22.1061C108.668 21.9941 108.808 21.8541 109.088 21.6861L108.332 21.0561C107.968 21.2521 107.66 21.3921 107.408 21.4761C107.184 21.5601 106.988 21.6301 106.82 21.6861C106.764 21.8261 106.792 21.9381 106.904 22.0221C107.044 22.0781 107.156 22.1201 107.24 22.1481C107.436 22.2041 107.66 22.2321 107.912 22.2321C108.192 22.2041 108.444 22.1621 108.668 22.1061ZM81.3684 22.4841C81.4804 22.4561 81.5364 22.3721 81.5364 22.2321C81.5364 22.1761 81.4944 22.1061 81.4104 22.0221C81.3264 21.9941 81.2284 21.9661 81.1164 21.9381C81.0324 21.9101 80.9484 21.8961 80.8644 21.8961C80.6684 21.8681 80.4864 21.8261 80.3184 21.7701C80.1784 21.7141 80.0244 21.7141 79.8564 21.7701C80.0524 22.0501 80.3044 22.2461 80.6124 22.3581C80.9204 22.4701 81.1724 22.5121 81.3684 22.4841ZM100.184 22.1481C100.38 22.2041 100.604 22.2181 100.856 22.1901C101.108 22.1621 101.346 22.0781 101.57 21.9381C101.346 21.8821 101.038 21.8681 100.646 21.8961C100.282 21.8961 99.9464 21.9241 99.6384 21.9801C99.6944 22.1201 99.7784 22.1761 99.8904 22.1481C100.03 22.1201 100.128 22.1201 100.184 22.1481ZM103.502 36.6801C103.838 36.7361 104.09 36.7781 104.258 36.8061C104.454 36.8621 104.58 36.9181 104.636 36.9741C104.804 37.2821 104.874 37.6041 104.846 37.9401C104.734 38.2761 104.608 38.6121 104.468 38.9481C104.328 39.3121 104.132 39.6061 103.88 39.8301C103.712 39.9701 103.558 40.0821 103.418 40.1661C103.306 40.2781 103.18 40.3621 103.04 40.4181C102.9 40.4741 102.774 40.5301 102.662 40.5861C102.578 40.6421 102.466 40.6981 102.326 40.7541C102.102 40.8101 101.836 40.8381 101.528 40.8381C101.248 40.8381 100.786 40.7541 100.142 40.5861C100.058 40.7261 99.8764 40.8241 99.5964 40.8801C99.3444 40.9641 99.0644 41.0341 98.7564 41.0901C97.7764 41.1181 96.7264 41.1041 95.6064 41.0481C94.5144 41.0201 93.5904 40.9781 92.8344 40.9221C91.4904 40.8101 90.2584 40.5581 89.1384 40.1661C88.0184 39.8021 86.9824 39.1161 86.0304 38.1081C85.6664 37.7161 85.3164 37.2961 84.9804 36.8481C84.6444 36.4001 84.4344 35.9801 84.3504 35.5881C84.0144 35.4481 83.7904 35.3221 83.6784 35.2101C83.5664 35.1261 83.4824 35.0421 83.4264 34.9581C83.2024 34.6501 82.9924 34.3561 82.7964 34.0761C82.6004 33.7681 82.4324 33.5021 82.2924 33.2781C82.0124 32.8581 81.9284 32.4661 82.0404 32.1021C82.1804 31.9061 82.3484 31.8501 82.5444 31.9341C82.6844 31.7661 82.8104 31.6121 82.9224 31.4721C83.0344 31.3041 83.1604 31.0801 83.3004 30.8001C83.5524 30.6601 83.7904 30.5481 84.0144 30.4641C84.6024 30.2401 85.0644 30.1841 85.4004 30.2961C85.7644 30.3801 86.1004 30.6181 86.4084 31.0101L90.9444 30.6741C91.5044 30.6181 92.1764 30.6741 92.9604 30.8421C93.4644 30.8701 93.8144 30.8421 94.0104 30.7581C94.2064 30.6461 94.3744 30.5481 94.5144 30.4641L98.4204 30.3801C98.4484 30.1001 98.4624 29.8201 98.4624 29.5401C98.4624 29.2601 98.4624 28.9801 98.4624 28.7001C96.8104 28.7281 95.0184 28.7841 93.0864 28.8681C91.1544 28.9241 89.2784 29.0361 87.4584 29.2041C86.8704 29.2881 86.2404 29.3301 85.5684 29.3301C85.0084 29.3301 84.4904 29.1341 84.0144 28.7421C83.7904 28.6861 83.5524 28.6721 83.3004 28.7001C83.0764 28.7001 82.8524 28.7281 82.6284 28.7841C82.4044 28.6441 82.1664 28.5041 81.9144 28.3641C81.6624 28.2241 81.5084 28.0281 81.4524 27.7761C81.3964 27.6361 81.3684 27.5241 81.3684 27.4401C81.3964 27.3281 81.4244 27.2161 81.4524 27.1041C81.5364 26.8521 81.7324 26.7961 82.0404 26.9361L82.1664 25.7601C82.3064 25.5361 82.4744 25.3821 82.6704 25.2981C82.8944 25.2141 83.0904 25.1861 83.2584 25.2141C83.5104 25.2421 83.7204 25.2701 83.8884 25.2981C84.0564 25.3261 84.2244 25.3401 84.3924 25.3401C84.5604 25.3401 84.7424 25.3401 84.9384 25.3401C85.1344 25.3121 85.3864 25.2841 85.6944 25.2561C86.5624 25.1721 87.5004 25.0881 88.5084 25.0041C89.5164 24.9201 90.5384 24.8501 91.5744 24.7941C92.6384 24.7381 93.6884 24.6961 94.7244 24.6681C95.7884 24.6121 96.8104 24.5701 97.7904 24.5421H99.7644H101.234L101.402 24.5001C101.962 24.3601 102.41 24.3181 102.746 24.3741C102.886 24.3741 102.998 24.3881 103.082 24.4161C103.166 24.4161 103.25 24.4301 103.334 24.4581C103.586 24.5421 103.796 24.7101 103.964 24.9621C104.132 25.1861 104.23 25.3961 104.258 25.5921C104.286 25.7601 104.286 26.0401 104.258 26.4321L104.09 27.4821C104.034 27.7061 103.922 27.8041 103.754 27.7761C103.698 27.6081 103.656 27.3421 103.628 26.9781C103.6 26.6141 103.628 26.3341 103.712 26.1381C103.74 26.0261 103.754 25.8861 103.754 25.7181C103.782 25.5501 103.768 25.4101 103.712 25.2981C103.572 25.2981 103.446 25.3261 103.334 25.3821C103.222 25.4101 103.124 25.5221 103.04 25.7181C102.956 25.9141 102.872 26.2221 102.788 26.6421C102.732 27.0341 102.676 27.3841 102.62 27.6921C102.564 27.9161 102.522 28.1401 102.494 28.3641C102.466 28.5881 102.452 28.8121 102.452 29.0361C102.564 29.0361 102.662 29.1061 102.746 29.2461C102.802 29.4981 102.816 29.7641 102.788 30.0441C102.76 30.2961 102.746 30.5481 102.746 30.8001L103.04 31.0521L103.292 31.4721C103.376 31.6961 103.376 31.9761 103.292 32.3121C103.264 32.3681 103.222 32.4521 103.166 32.5641C103.138 32.6481 103.04 32.7181 102.872 32.7741C102.844 32.8301 102.802 32.9281 102.746 33.0681C102.718 33.2081 102.718 33.3901 102.746 33.6141C102.522 33.9221 102.312 34.1321 102.116 34.2441C101.948 34.3281 101.696 34.3701 101.36 34.3701C100.94 34.3981 100.422 34.3981 99.8064 34.3701C99.1904 34.3421 98.5464 34.3141 97.8744 34.2861C97.5664 34.2861 97.0904 34.3001 96.4464 34.3281C95.8024 34.3281 95.0744 34.3421 94.2624 34.3701C93.4504 34.3981 92.6104 34.4401 91.7424 34.4961C90.8744 34.5521 90.0624 34.5941 89.3064 34.6221L90.2304 35.2521C90.9584 35.7001 91.6724 35.9801 92.3724 36.0921C93.0724 36.2041 93.9544 36.2321 95.0184 36.1761C95.7744 36.3441 96.5724 36.4281 97.4124 36.4281C98.2524 36.4281 99.0084 36.3861 99.6804 36.3021C99.7644 36.2741 99.8904 36.2041 100.058 36.0921C100.226 36.0081 100.394 35.9101 100.562 35.7981C100.758 35.7141 100.94 35.6301 101.108 35.5461C101.304 35.4621 101.458 35.4201 101.57 35.4201C101.794 35.3641 102.018 35.3361 102.242 35.3361C102.466 35.3641 102.69 35.4481 102.914 35.5881C103.39 35.8121 103.586 36.1761 103.502 36.6801ZM91.4904 25.7181C91.5744 25.7741 91.6444 25.7881 91.7004 25.7601C91.7844 25.7041 91.8124 25.6201 91.7844 25.5081C91.6444 25.3961 91.4764 25.3261 91.2804 25.2981C91.1124 25.2701 90.9304 25.2561 90.7344 25.2561C90.0064 25.2001 89.2784 25.2001 88.5504 25.2561C87.8504 25.2841 87.1364 25.4101 86.4084 25.6341C86.5764 25.6901 86.6884 25.7181 86.7444 25.7181C87.0244 25.7741 87.3184 25.8021 87.6264 25.8021C87.9624 25.8021 88.2844 25.8021 88.5924 25.8021C89.0964 25.8021 89.5864 25.7741 90.0624 25.7181C90.5384 25.6621 91.0144 25.6621 91.4904 25.7181ZM96.1104 26.8521C96.0264 26.8801 95.9564 26.9361 95.9004 27.0201C95.8724 27.1041 95.8444 27.1881 95.8164 27.2721C96.0404 27.2721 96.2084 27.2721 96.3204 27.2721C96.4604 27.2721 96.6144 27.2581 96.7824 27.2301C96.9784 27.2021 97.0624 27.1321 97.0344 27.0201C97.0344 26.9641 96.9644 26.9081 96.8244 26.8521C96.7404 26.8241 96.6284 26.8241 96.4884 26.8521C96.3484 26.8521 96.2224 26.8521 96.1104 26.8521ZM101.864 27.2721C101.752 27.6361 101.682 28.1541 101.654 28.8261C101.626 29.4701 101.64 30.0161 101.696 30.4641C101.836 30.4921 101.934 30.3941 101.99 30.1701C102.018 29.6941 102.032 29.2461 102.032 28.8261C102.06 28.3781 102.074 27.9301 102.074 27.4821C102.074 27.4541 102.046 27.4261 101.99 27.3981C101.934 27.3701 101.892 27.3281 101.864 27.2721ZM98.2944 27.9861C98.3224 27.9861 98.3784 27.9301 98.4624 27.8181C98.3224 27.7901 98.2244 27.7621 98.1684 27.7341C98.1404 27.6781 98.0704 27.6781 97.9584 27.7341C97.7344 27.7341 97.5244 27.7481 97.3284 27.7761C97.1324 27.7761 96.9224 27.7901 96.6984 27.8181C96.6144 27.8181 96.5304 27.8601 96.4464 27.9441C96.3904 27.9721 96.3624 28.0281 96.3624 28.1121C96.3624 28.1681 96.4044 28.1961 96.4884 28.1961C96.7964 28.1961 97.0904 28.1961 97.3704 28.1961C97.6784 28.1681 97.9864 28.0981 98.2944 27.9861ZM100.016 30.2541C99.9604 30.3101 99.9044 30.4361 99.8484 30.6321C100.156 30.7441 100.408 30.7581 100.604 30.6741C100.828 30.5621 101.08 30.4781 101.36 30.4221C101.36 30.0861 101.36 29.8201 101.36 29.6241C101.388 29.4001 101.388 29.2321 101.36 29.1201C101.36 28.9801 101.332 28.8681 101.276 28.7841C101.248 28.6721 101.206 28.5601 101.15 28.4481C101.01 28.4761 100.94 28.5601 100.94 28.7001C100.94 28.8121 100.898 28.9101 100.814 28.9941C100.646 29.0221 100.492 29.0921 100.352 29.2041C100.24 29.3161 100.198 29.4981 100.226 29.7501C100.254 29.9461 100.184 30.1141 100.016 30.2541ZM90.1464 36.2601C90.3424 36.2601 90.4964 36.2321 90.6084 36.1761C90.7204 36.1481 90.8044 36.1201 90.8604 36.0921C90.6364 36.0361 90.3844 35.9101 90.1044 35.7141C89.8244 35.5461 89.6144 35.3921 89.4744 35.2521C89.2224 35.0561 88.9704 34.8461 88.7184 34.6221C88.4664 34.3981 88.1864 34.1181 87.8784 33.7821C87.5984 33.4461 87.2624 33.0541 86.8704 32.6061C86.5064 32.1581 86.0584 31.5981 85.5264 30.9261L85.4004 30.9681C85.3724 31.1081 85.3444 31.2481 85.3164 31.3881C85.3164 31.5001 85.3584 31.6261 85.4424 31.7661L86.9544 33.6561C86.7864 33.6001 86.6324 33.5301 86.4924 33.4461C86.3524 33.3621 86.2124 33.2781 86.0724 33.1941C86.1284 33.3901 86.1984 33.5861 86.2824 33.7821C86.3664 33.9781 86.4924 34.1461 86.6604 34.2861C86.9124 34.5381 87.1224 34.7201 87.2904 34.8321C87.4864 34.9721 87.7244 35.1541 88.0044 35.3781C88.2004 35.4901 88.4944 35.6441 88.8864 35.8401C89.3064 36.0641 89.7264 36.2041 90.1464 36.2601ZM99.0084 32.6061C98.4764 32.5501 97.9584 32.5501 97.4544 32.6061C96.9504 32.6621 96.3904 32.7321 95.7744 32.8161C95.8864 32.9561 96.0124 33.0261 96.1524 33.0261C97.1324 33.0821 98.0564 33.0821 98.9244 33.0261C99.0084 33.0261 99.0504 33.0261 99.0504 33.0261C99.0784 32.9981 99.1204 32.9701 99.1764 32.9421C99.2884 32.9421 99.3724 32.8861 99.4284 32.7741C99.3724 32.6621 99.2324 32.6061 99.0084 32.6061ZM101.444 33.2361C100.968 33.3481 100.464 33.4181 99.9324 33.4461C99.4004 33.4741 98.8964 33.4881 98.4204 33.4881V33.7401C98.8964 33.9361 99.4704 34.0061 100.142 33.9501C100.842 33.8661 101.416 33.7121 101.864 33.4881L101.444 33.2361ZM87.8364 36.2181C87.9204 36.0781 87.8924 35.9381 87.7524 35.7981C87.3884 35.4901 87.0384 35.1961 86.7024 34.9161C86.3664 34.6361 86.0164 34.3561 85.6524 34.0761C85.6244 34.1041 85.5964 34.1181 85.5684 34.1181C85.4564 34.1181 85.4004 34.1181 85.4004 34.1181C85.6244 34.4261 85.9884 34.7901 86.4924 35.2101C86.9964 35.6301 87.4444 35.9661 87.8364 36.2181ZM87.0804 36.5961C87.1364 36.5401 87.1364 36.4421 87.0804 36.3021C87.0244 36.2461 86.9264 36.1621 86.7864 36.0501C86.6744 35.9661 86.5904 35.8821 86.5344 35.7981C86.4224 35.7701 86.2544 35.8121 86.0304 35.9241C86.1704 36.0641 86.2964 36.1761 86.4084 36.2601C86.5204 36.3441 86.6464 36.4421 86.7864 36.5541C86.8984 36.6381 86.9544 36.6801 86.9544 36.6801C86.9824 36.6801 87.0244 36.6521 87.0804 36.5961ZM98.8824 37.6461C98.8824 37.7021 98.9104 37.7581 98.9664 37.8141C99.1904 37.9541 99.3724 37.8701 99.5124 37.5621C99.3164 37.5061 99.1484 37.4921 99.0084 37.5201L98.8824 37.6461ZM103.208 39.6201C103.432 39.4801 103.544 39.3401 103.544 39.2001C103.572 39.0601 103.474 38.8921 103.25 38.6961C103.026 38.4721 102.858 38.3321 102.746 38.2761C102.606 38.4721 102.536 38.6261 102.536 38.7381C102.452 38.7661 102.368 38.8221 102.284 38.9061C102.228 38.9901 102.144 39.0321 102.032 39.0321C101.808 39.0321 101.626 39.0741 101.486 39.1581C101.374 39.2701 101.248 39.4101 101.108 39.5781C101.052 39.5501 100.982 39.5081 100.898 39.4521C100.814 39.4241 100.73 39.3821 100.646 39.3261C100.59 39.2981 100.52 39.2561 100.436 39.2001C100.352 39.1721 100.268 39.1441 100.184 39.1161C100.352 39.4241 100.59 39.6901 100.898 39.9141C101.234 40.1381 101.682 40.2501 102.242 40.2501C102.382 40.1941 102.536 40.1101 102.704 39.9981C102.872 39.8861 103.04 39.7601 103.208 39.6201ZM99.0924 38.9901C99.1764 39.1301 99.2604 39.1861 99.3444 39.1581C99.4284 39.1581 99.5264 39.1301 99.6384 39.0741C99.5824 38.9341 99.5124 38.8081 99.4284 38.6961C99.3724 38.5841 99.3164 38.4721 99.2604 38.3601C99.0084 38.5841 98.9524 38.7941 99.0924 38.9901ZM93.1704 40.3341C93.8984 40.3901 94.6124 40.4041 95.3124 40.3761C96.0404 40.3761 96.7684 40.2641 97.4964 40.0401C97.3284 39.9841 97.2164 39.9561 97.1604 39.9561C96.6004 39.8721 95.9844 39.8301 95.3124 39.8301C94.8084 39.8301 94.3184 39.8441 93.8424 39.8721C93.3664 39.9281 92.8904 39.9281 92.4144 39.8721C92.3304 39.8161 92.2464 39.8021 92.1624 39.8301C92.1064 39.8861 92.0924 39.9701 92.1204 40.0821C92.2604 40.1941 92.4144 40.2641 92.5824 40.2921C92.7784 40.3201 92.9744 40.3341 93.1704 40.3341ZM145.012 10.2621C145.222 12.2361 145.18 14.2941 145.138 16.3941C145.138 17.0241 145.096 17.6121 145.096 18.1581C144.676 18.1581 144.34 18.1161 144.088 18.1161C143.29 18.1161 140.854 18.5781 140.266 18.9561C139.762 19.2921 139.552 19.8801 139.552 20.1321C139.552 20.8881 140.14 21.6861 140.728 22.2321C141.358 22.8201 142.282 23.6181 142.996 23.5341C143.374 23.4921 144.13 23.2821 144.928 23.0721C144.928 23.5341 144.928 23.9961 144.97 24.5421C145.096 27.7341 146.02 30.0021 146.734 31.9761C148.834 29.0361 150.556 27.7341 150.682 23.4081C150.85 18.0321 150.598 12.5721 150.43 8.20412C150.388 7.36412 150.262 6.77612 149.758 6.06212C149.254 5.34812 147.742 3.92012 146.902 3.33212C146.482 3.03812 145.642 2.66011 145.096 2.82812C144.382 3.03812 143.08 3.79412 142.618 4.55012C142.366 4.97012 142.66 5.47412 143.122 6.06212C144.256 7.53211 144.802 8.37212 145.012 10.2621ZM133.042 20.5101C137.326 20.2581 140.518 17.6541 140.518 14.0421C140.518 10.3041 136.612 7.32211 132.664 6.90212C131.866 6.81812 131.152 7.19612 130.858 7.78412C127.834 8.79212 125.02 11.4801 125.02 14.2941C125.02 17.9061 129.094 20.7621 133.042 20.5101ZM132.244 11.3541C132.37 11.4381 132.58 11.6061 132.79 11.6481C133.966 11.9001 135.31 12.5721 135.352 13.6641C135.394 15.0501 134.092 15.8061 132.664 15.8061C131.614 15.8061 130.102 15.1341 130.102 13.8741C130.102 12.6981 131.236 11.5641 132.244 11.3541ZM139.006 25.3401C139.51 24.8361 140.056 24.0801 140.056 23.4501C140.056 23.1141 139.594 22.5681 138.964 22.1481C138.25 21.6441 137.62 21.5181 137.074 21.5601C136.486 21.6021 136.066 21.8961 135.394 21.9381C134.008 22.0221 129.262 22.4001 127.96 22.2741C127.162 22.1901 126.49 21.9381 125.776 21.5181C124.684 20.8461 124.054 20.6781 123.046 21.7701C122.122 22.7361 121.996 23.4081 122.542 24.1641C122.92 24.7101 123.718 25.5921 124.138 25.9281C125.23 26.7681 126.322 27.0621 127.54 27.1881C128.212 27.2721 129.052 27.2301 129.976 27.1881C128.632 28.7001 127.078 30.2961 125.566 31.3041C124.096 32.2701 122.038 33.1521 120.778 33.1101C121.744 34.0341 123.508 34.8321 124.936 35.0001C126.7 35.2101 129.01 35.3361 131.614 32.9421C133.252 31.4721 135.562 28.5321 137.326 26.1801C137.956 26.0121 138.586 25.7601 139.006 25.3401ZM151.9 36.3441C151.06 34.9161 149.674 33.7401 148.036 33.9921C147.196 34.1181 143.878 34.4121 142.996 34.4121C142.45 34.4121 142.24 34.3701 141.61 33.8661C140.77 33.1941 139.594 32.0181 138.292 30.7161C137.368 29.7921 136.234 29.5821 134.89 30.5901C133.924 31.3041 133.252 32.9421 134.176 34.1181C134.932 35.0841 136.57 36.7641 138.124 38.0661C139.846 39.4941 140.98 40.1241 142.24 40.2081C143.29 40.2921 144.382 40.3341 145.6 40.2921C148.204 40.2081 149.296 40.0401 151.396 38.7381C152.404 38.1081 152.614 37.5621 151.9 36.3441ZM179.915 26.9781C181.763 25.0041 183.275 22.0641 183.359 19.8381C183.443 16.9821 183.485 12.3621 183.485 9.63212C183.485 7.61612 183.275 6.35611 182.393 5.22212C181.763 4.38212 181.217 3.87812 180.041 3.03812C179.201 2.45012 178.991 2.49211 178.067 2.99612C177.773 3.16412 176.723 4.13012 176.429 4.46612C175.925 5.05412 176.009 5.34812 176.639 6.27212C177.605 7.70012 177.857 8.07812 177.689 9.88412C177.647 10.5561 177.563 11.5221 177.521 12.5721C176.387 12.5301 175.211 12.5721 174.623 12.6141C173.363 12.6981 171.431 13.0341 171.305 14.1681C171.221 14.8401 171.599 15.5541 172.061 16.0161C173.111 17.0661 174.539 18.0741 175.925 18.1161C176.387 18.1161 176.891 18.1161 177.395 18.0741C177.353 19.5861 177.479 21.1401 177.731 22.4841C178.025 24.0801 179.033 25.1721 179.453 26.6421C178.109 25.8021 176.555 25.2561 175.001 25.2141C174.623 25.2141 173.909 25.2981 173.489 25.5501C166.895 26.0961 162.275 28.8261 162.275 33.6561C162.275 35.9661 164.291 38.2341 166.055 38.8221C168.029 40.0821 170.591 40.8381 173.195 40.8381C179.117 40.8381 183.485 38.3181 183.485 33.5721C183.485 30.8841 181.973 28.4901 179.915 26.9781ZM165.929 20.2581C166.601 21.1401 167.441 22.2321 167.819 22.6521C169.247 24.3321 171.053 24.7941 172.691 23.9961C174.245 23.2401 174.413 20.5941 172.691 18.9141C171.935 18.2001 169.667 16.9401 168.533 16.3941C169.457 14.8821 170.297 13.4541 170.843 12.4461C172.019 10.2201 172.313 9.54812 171.473 8.41412C171.011 7.78412 170.381 7.40612 169.625 7.40612C169.079 7.40612 168.365 7.61612 167.987 7.65812C166.223 7.86812 162.317 8.12012 161.435 8.12012C160.427 8.12012 159.881 7.99412 158.873 7.49012C158.285 7.19612 157.907 7.15412 157.403 7.61612C156.983 7.99412 156.437 8.58212 156.185 8.83412C155.639 9.38012 155.765 9.75812 156.101 10.2621C156.941 11.4801 158.159 12.8661 160.091 12.8661C161.183 12.8661 162.905 12.6981 164.165 12.6141C162.401 15.8061 158.873 20.2161 156.857 21.6441C156.143 22.1481 155.219 22.6521 154.085 22.7781C153.707 22.8201 153.791 23.1561 154.043 23.3661C156.689 25.5921 159.965 26.1801 162.905 23.7861C163.661 23.1561 164.753 21.8121 165.929 20.2581ZM173.573 35.7141C170.507 35.7141 168.659 34.5801 168.743 32.8161C168.827 31.2621 171.347 29.7921 174.161 29.6661C176.261 30.5901 177.815 31.4721 177.815 33.1941C177.815 34.9581 175.715 35.7141 173.573 35.7141ZM220.445 9.59012C220.403 6.48212 219.815 5.34812 217.295 3.37412C215.951 2.32412 215.363 2.49211 214.019 3.71012C212.759 4.84412 212.507 5.47412 213.389 6.52412C214.145 7.44812 214.523 8.41412 214.523 10.5561C214.523 12.7821 214.523 16.1841 214.481 19.7541C213.977 19.7121 213.473 19.6701 213.095 19.6701C212.549 19.6701 211.961 19.6701 211.373 19.7121C211.373 17.4441 211.373 15.0921 211.331 13.1181C211.289 10.0521 210.785 8.75012 208.307 6.77612C207.005 5.72612 206.333 5.89412 204.947 7.07012C203.729 8.12012 203.351 8.83412 204.233 9.88412C204.947 10.7661 205.451 11.6481 205.451 13.7901C205.451 18.5781 205.241 25.5081 205.241 30.6321C205.241 33.1101 206.585 36.3441 206.963 38.5701C208.181 37.2261 209.147 35.3361 210.155 33.4881C210.911 32.1021 211.163 29.8341 211.247 28.0281L211.331 25.2981C211.919 25.3821 212.507 25.4241 212.969 25.3821C213.389 25.3821 213.893 25.3401 214.439 25.2561C214.397 28.2381 214.313 31.0521 214.271 33.0681C214.229 34.4541 214.481 36.0501 214.859 37.3101C215.279 38.7381 215.615 39.9141 215.741 41.0901C218.933 37.8141 220.487 34.4121 220.487 30.0441C220.487 26.1801 220.529 15.5121 220.445 9.59012ZM203.981 24.7521C202.805 24.9621 200.999 25.1721 200.327 25.2141C199.151 25.2981 197.387 25.2561 195.791 25.2141C195.791 22.9041 195.707 20.1321 195.665 18.0741C198.143 18.0741 200.957 17.9061 202.049 17.5701C203.267 17.1921 203.435 16.4781 202.973 15.4281C202.595 14.6721 201.839 13.5381 201.209 12.9501C200.621 12.4041 200.033 12.1941 199.235 12.3201C197.051 12.6141 195.917 12.7821 193.565 12.7821C192.725 12.7821 192.137 12.6561 191.507 12.4461C190.919 12.2361 190.205 12.6981 189.869 13.2441C189.491 13.8741 189.029 14.6301 188.987 15.3441C188.945 16.1001 189.197 16.6461 189.617 17.0661C189.743 19.9221 189.743 22.6521 189.911 25.5501V25.8441L189.869 25.8861C188.903 26.8521 188.777 28.2801 189.323 29.6661C189.743 30.7581 190.751 31.4721 191.885 31.3881C192.935 31.3041 197.681 31.0521 199.529 30.9681C201.587 30.8841 203.099 29.7921 203.939 27.9861C204.275 27.2721 204.611 26.1801 204.737 25.3821C204.821 24.8781 204.569 24.6681 203.981 24.7521Z" fill="#FF8902"/>
</svg>
