<svg width="151" height="68" viewBox="0 0 151 68" fill="none" xmlns="http://www.w3.org/2000/svg">
<mask id="path-1-inside-1_79_1675" fill="white">
<path fill-rule="evenodd" clip-rule="evenodd" d="M10.7565 0.932373C5.23362 0.932373 0.75647 5.40951 0.75647 10.9324V41.2176C0.75647 46.7404 5.23362 51.2176 10.7565 51.2176H66.1609L75.7565 67.9324L85.352 51.2176H140.756C146.279 51.2176 150.756 46.7405 150.756 41.2176V10.9324C150.756 5.40953 146.279 0.932373 140.756 0.932373H10.7565Z"/>
</mask>
<path fill-rule="evenodd" clip-rule="evenodd" d="M10.7565 0.932373C5.23362 0.932373 0.75647 5.40951 0.75647 10.9324V41.2176C0.75647 46.7404 5.23362 51.2176 10.7565 51.2176H66.1609L75.7565 67.9324L85.352 51.2176H140.756C146.279 51.2176 150.756 46.7405 150.756 41.2176V10.9324C150.756 5.40953 146.279 0.932373 140.756 0.932373H10.7565Z" fill="white"/>
<path d="M66.1609 51.2176L67.8954 50.2219L67.3189 49.2176H66.1609V51.2176ZM75.7565 67.9324L74.022 68.9281L75.7565 71.9495L77.491 68.9281L75.7565 67.9324ZM85.352 51.2176V49.2176H84.194L83.6175 50.2219L85.352 51.2176ZM2.75647 10.9324C2.75647 6.51409 6.33819 2.93237 10.7565 2.93237V-1.06763C4.12906 -1.06763 -1.24353 4.30494 -1.24353 10.9324H2.75647ZM2.75647 41.2176V10.9324H-1.24353V41.2176H2.75647ZM10.7565 49.2176C6.33819 49.2176 2.75647 45.6359 2.75647 41.2176H-1.24353C-1.24353 47.845 4.12905 53.2176 10.7565 53.2176V49.2176ZM66.1609 49.2176H10.7565V53.2176H66.1609V49.2176ZM64.4264 52.2133L74.022 68.9281L77.491 66.9366L67.8954 50.2219L64.4264 52.2133ZM77.491 68.9281L87.0865 52.2133L83.6175 50.2219L74.022 66.9366L77.491 68.9281ZM140.756 49.2176H85.352V53.2176H140.756V49.2176ZM148.756 41.2176C148.756 45.6359 145.175 49.2176 140.756 49.2176V53.2176C147.384 53.2176 152.756 47.845 152.756 41.2176H148.756ZM148.756 10.9324V41.2176H152.756V10.9324H148.756ZM140.756 2.93237C145.175 2.93237 148.756 6.5141 148.756 10.9324H152.756C152.756 4.30496 147.384 -1.06763 140.756 -1.06763V2.93237ZM10.7565 2.93237H140.756V-1.06763H10.7565V2.93237Z" fill="#FFB648" mask="url(#path-1-inside-1_79_1675)"/>
<path d="M44.8071 20.7424H43.0571V27.8684H44.8071V20.7424ZM39.5711 23.8784V25.3204H40.6211V27.7984H42.3291V20.9524H40.6211V23.8784H39.5711ZM39.8371 21.7644H37.6951V20.7284H35.8891V21.7644H33.7471V23.1364H39.8371V21.7644ZM35.7351 25.5584C35.7351 24.9984 36.1691 24.7044 36.8131 24.7044C37.4431 24.7044 37.8911 24.9984 37.8911 25.5584C37.8911 26.1324 37.4431 26.4264 36.8131 26.4264C36.1691 26.4264 35.7351 26.1324 35.7351 25.5584ZM39.4871 25.5584C39.4871 24.2984 38.3671 23.4304 36.8131 23.4304C35.2451 23.4304 34.1251 24.2984 34.1251 25.5584C34.1251 26.8324 35.2451 27.7004 36.8131 27.7004C38.3671 27.7004 39.4871 26.8324 39.4871 25.5584ZM37.8911 32.2084V31.5084H44.8071V28.3164H36.0431V29.6464H42.9871V30.2764H36.0711V33.5384H45.1571V32.2084H37.8911ZM53.144 30.7104V28.7924H57.05V27.3084H49.574V25.8664H56.756V21.5684H47.726V23.0384H54.936V24.4244H47.74V28.7924H51.296V30.7104H46.396V32.2224H58.072V30.7104H53.144ZM64.7849 22.6464C66.4649 22.6464 67.5429 23.1504 67.5429 24.0744C67.5429 25.0124 66.4649 25.5164 64.7849 25.5164C63.0909 25.5164 62.0129 25.0124 62.0129 24.0744C62.0129 23.1504 63.0909 22.6464 64.7849 22.6464ZM64.7849 26.9864C67.5289 26.9864 69.4469 25.8524 69.4469 24.0744C69.4469 22.3244 67.5289 21.1764 64.7849 21.1764C62.0269 21.1764 60.1229 22.3244 60.1229 24.0744C60.1229 25.8524 62.0269 26.9864 64.7849 26.9864ZM70.6509 27.9524H58.9749V29.4364H63.8469V33.6504H65.6949V29.4364H70.6509V27.9524ZM75.8152 25.6704L76.0392 27.1684L83.4032 26.7904C83.3192 27.6584 83.1792 28.5964 82.9272 29.6464L84.7472 29.8284C85.3492 27.0284 85.3492 25.2504 85.3492 23.3744V21.8764H76.1792V23.3464H83.5292V23.3744C83.5292 24.0324 83.5292 24.7044 83.5012 25.4184L75.8152 25.6704ZM74.8772 30.5984V32.1104H86.5252V30.5984H74.8772ZM94.1901 30.7104V28.7924H98.0961V27.3084H90.6201V25.8664H97.8021V21.5684H88.7721V23.0384H95.9821V24.4244H88.7861V28.7924H92.3421V30.7104H87.4421V32.2224H99.1181V30.7104H94.1901ZM107.161 24.1164H104.515V22.4644H107.161V24.1164ZM102.681 24.1164H101.127V25.4884H110.535V24.1164H108.995V22.4644H110.633V21.0924H101.043V22.4644H102.681V24.1164ZM103.199 31.5084H110.255V28.3164H101.351V29.6464H108.435V30.2764H101.365V33.5384H110.591V32.2084H103.199V31.5084ZM100.021 26.1464V27.6024H111.669V26.1464H100.021Z" fill="#FF8902"/>
<path d="M124.795 23.7102L127.68 27.9324L124.795 32.1546" stroke="#A0A4A8" stroke-width="1.5" stroke-linecap="round" stroke-linejoin="round"/>
</svg>
