<svg width="204" height="28" viewBox="0 0 204 28" fill="none" xmlns="http://www.w3.org/2000/svg">
<path d="M21.7182 17.7439C22.0222 18.1119 22.1582 18.3999 22.1262 18.6079C22.1102 18.7199 22.0462 18.8239 21.9342 18.9199C21.8382 19.0159 21.7182 19.1119 21.5742 19.2079C21.4462 19.2879 21.3022 19.3599 21.1422 19.4239C20.9982 19.4879 20.8702 19.5439 20.7582 19.5919C20.4542 19.7039 20.0862 19.7919 19.6542 19.8559C19.2222 19.9199 18.7902 19.9359 18.3582 19.9039C17.4622 19.8559 16.4462 19.8159 15.3102 19.7839C14.1902 19.7679 13.0302 19.7599 11.8302 19.7599C10.6302 19.7599 9.43021 19.7679 8.23021 19.7839C7.03021 19.8159 5.91821 19.8559 4.89421 19.9039C4.52621 19.9199 4.21421 19.9199 3.95821 19.9039C3.71821 19.9039 3.50221 19.8879 3.31021 19.8559C3.11821 19.8239 2.93421 19.7759 2.75821 19.7119C2.59821 19.6479 2.43021 19.5679 2.25421 19.4719C2.17421 19.4399 2.09421 19.3759 2.01421 19.2799C1.95021 19.1839 1.87821 19.0639 1.79821 18.9199C1.60621 18.8559 1.43821 18.7599 1.29421 18.6319C1.16621 18.4879 1.08621 18.3359 1.05421 18.1759L1.12621 17.7439C1.22221 17.6159 1.34221 17.4879 1.48621 17.3599C1.64621 17.2319 1.79821 17.1439 1.94221 17.0959C2.11821 16.9519 2.30221 16.8239 2.49421 16.7119C2.68621 16.5999 2.88621 16.5519 3.09421 16.5679C3.59021 16.5839 4.28621 16.5919 5.18221 16.5919C6.09421 16.5919 7.10221 16.5839 8.20621 16.5679C8.36621 16.5679 8.53421 16.6319 8.71021 16.7599C9.57421 16.7279 10.4382 16.6959 11.3022 16.6639C12.1662 16.6319 13.0062 16.5919 13.8222 16.5439L13.6542 15.9199C13.6062 15.7439 13.5662 15.5919 13.5342 15.4639C13.5182 15.3199 13.5022 15.1839 13.4862 15.0559C13.4702 14.9119 13.4622 14.7679 13.4622 14.6239C13.4782 14.4639 13.4862 14.2719 13.4862 14.0479C12.8782 14.0479 12.2622 14.0559 11.6382 14.0719C11.0142 14.0719 10.4302 14.0799 9.88621 14.0959C9.35821 14.1119 8.89421 14.1279 8.49421 14.1439C8.09421 14.1599 7.81421 14.1759 7.65421 14.1919C7.49421 14.2239 7.25421 14.2479 6.93421 14.2639C6.63021 14.2639 6.33421 14.2239 6.04621 14.1439C5.82221 14.0799 5.59021 13.9839 5.35021 13.8559C5.12621 13.7279 4.93421 13.5519 4.77421 13.3279C4.71021 13.2479 4.67021 13.1599 4.65421 13.0639C4.65421 12.9679 4.66221 12.8719 4.67821 12.7759C4.58221 12.6479 4.50221 12.4879 4.43821 12.2959C4.37421 12.0879 4.36621 11.9199 4.41421 11.7919C4.47821 11.6319 4.60621 11.4959 4.79821 11.3839C5.00621 11.2719 5.29421 11.1999 5.66221 11.1679L8.03821 11.0959C8.39021 11.0959 8.73421 11.1519 9.07021 11.2639C9.79021 11.2159 10.5342 11.1839 11.3022 11.1679C12.0702 11.1519 12.8062 11.1599 13.5102 11.1919C13.5102 10.8239 13.5022 10.4559 13.4862 10.0879C13.4862 9.70386 13.4862 9.33586 13.4862 8.98386C13.0862 8.98386 12.6542 8.99186 12.1902 9.00786C11.7262 9.02386 11.2702 9.03986 10.8222 9.05586C10.3742 9.05586 9.95821 9.05586 9.57421 9.05586C9.19021 9.05586 8.87821 9.05586 8.63821 9.05586C8.33421 9.03986 8.07021 8.99186 7.84621 8.91186C7.63821 8.81586 7.43821 8.71986 7.24621 8.62386C7.02221 8.65586 6.80621 8.63986 6.59821 8.57586C6.42221 8.46386 6.24621 8.35186 6.07021 8.23986C5.91021 8.11186 5.74221 7.98386 5.56621 7.85586C5.31021 7.66386 5.17421 7.48786 5.15821 7.32786C5.14221 7.15186 5.19821 6.95186 5.32621 6.72786L5.66221 6.67986C5.71021 6.50386 5.77421 6.31186 5.85421 6.10386C5.95021 5.89586 6.01421 5.77586 6.04621 5.74386C6.12621 5.66386 6.19821 5.59986 6.26221 5.55186C6.34221 5.48786 6.42221 5.44786 6.50221 5.43186L6.64621 5.40786C6.69421 5.42386 6.75821 5.44786 6.83821 5.47986C6.91821 5.51186 6.99021 5.54386 7.05421 5.57586C7.64621 5.84786 8.46221 5.95986 9.50221 5.91186C9.58221 5.91186 9.66221 5.92786 9.74221 5.95986C9.82221 5.99186 9.95821 6.02386 10.1502 6.05586C10.5502 6.00786 11.0062 5.95186 11.5182 5.88786C12.0302 5.80786 12.5262 5.75186 13.0062 5.71986C13.5662 5.68786 14.1022 5.62386 14.6142 5.52786C15.1262 5.43186 15.5102 5.39186 15.7662 5.40786C15.9582 5.40786 16.1502 5.44786 16.3422 5.52786C16.1022 5.55986 15.9422 5.62386 15.8622 5.71986C15.9902 5.70386 16.1102 5.71186 16.2222 5.74386C16.3342 5.77586 16.4542 5.80786 16.5822 5.83986C16.6942 5.87186 16.7902 5.90386 16.8702 5.93586C16.9502 5.96786 17.0302 5.99986 17.1102 6.03186C17.3182 6.22386 17.4942 6.41586 17.6382 6.60786C17.7982 6.78386 17.8782 6.97586 17.8782 7.18386C17.8782 7.26386 17.8462 7.39186 17.7822 7.56786C17.7342 7.72786 17.6622 7.85586 17.5662 7.95186L17.4702 8.04786C17.4702 8.39986 17.4702 8.77586 17.4702 9.17586C17.4702 9.57586 17.4622 9.95186 17.4462 10.3039C17.4462 10.6559 17.4382 10.9599 17.4222 11.2159C17.4222 11.4719 17.4142 11.6399 17.3982 11.7199L17.2302 12.9199C17.2142 13.0959 17.1902 13.3199 17.1582 13.5919C17.1262 13.8479 17.0862 14.1039 17.0382 14.3599C17.0062 14.6159 16.9662 14.8479 16.9182 15.0559C16.8702 15.2479 16.8222 15.3679 16.7742 15.4159C16.7582 15.1919 16.7262 14.9999 16.6782 14.8399C16.6462 14.6639 16.6142 14.5119 16.5822 14.3839H16.5102C16.4462 14.7039 16.3742 15.0399 16.2942 15.3919C16.2302 15.7439 16.1422 16.0799 16.0302 16.3999C16.0302 16.4159 16.0222 16.4319 16.0062 16.4479C16.5342 16.4159 16.9982 16.3839 17.3982 16.3519C17.8142 16.3199 18.1502 16.2879 18.4062 16.2559C18.8062 16.2079 19.1502 16.2159 19.4382 16.2799C19.7422 16.3279 20.0302 16.4319 20.3022 16.5919C20.4462 16.6719 20.5902 16.7919 20.7342 16.9519C20.8782 17.0959 21.0142 17.2479 21.1422 17.4079C21.2862 17.4879 21.3982 17.5439 21.4782 17.5759C21.5582 17.6079 21.6382 17.6639 21.7182 17.7439ZM16.1022 8.38386C16.0702 8.52786 16.0542 8.66386 16.0542 8.79186C16.0542 8.90386 16.0622 9.02386 16.0782 9.15186C16.1262 9.15186 16.1822 9.18386 16.2462 9.24786C16.2782 9.43986 16.2862 9.63986 16.2702 9.84786C16.2702 10.0399 16.3022 10.2319 16.3662 10.4239C16.3982 10.4879 16.4382 10.4959 16.4862 10.4479C16.4862 10.3999 16.4942 10.2799 16.5102 10.0879C16.5262 9.89586 16.5342 9.75186 16.5342 9.65586C16.5342 9.62386 16.5422 9.59986 16.5582 9.58386C16.5902 9.56786 16.6302 9.57586 16.6782 9.60786C16.6942 9.68786 16.6942 9.76786 16.6782 9.84786C16.6782 9.92786 16.7182 9.98386 16.7982 10.0159C16.8142 10.0319 16.8222 10.0959 16.8222 10.2079C16.8382 10.3839 16.8542 10.5919 16.8702 10.8319C16.8862 11.0719 16.9022 11.2159 16.9182 11.2639L16.9902 11.3599C17.0382 11.2959 17.0622 11.1999 17.0622 11.0719C17.0462 10.9599 17.0302 10.7999 17.0142 10.5919C17.0142 10.3679 17.0222 10.1679 17.0382 9.99186C17.0702 9.68786 17.0942 9.39986 17.1102 9.12786C17.1262 8.83986 17.1422 8.55986 17.1582 8.28786C17.1582 8.19186 17.1502 8.10386 17.1342 8.02386C17.1342 7.92786 17.1422 7.83986 17.1582 7.75986C17.1582 7.72786 17.1422 7.68786 17.1102 7.63986C17.0942 7.59186 17.0782 7.58386 17.0622 7.61586L16.9662 7.73586L16.8942 8.23986C16.8782 8.28786 16.8622 8.32786 16.8462 8.35986C16.8462 8.37586 16.8142 8.38386 16.7502 8.38386C16.7182 8.28786 16.6862 8.13586 16.6542 7.92786C16.6222 7.71986 16.6222 7.55986 16.6542 7.44786C16.6702 7.38386 16.6782 7.30386 16.6782 7.20786C16.6782 7.11186 16.6622 7.03186 16.6302 6.96786C16.4702 6.96786 16.3502 7.00786 16.2702 7.08786C16.2702 7.23186 16.2622 7.40786 16.2462 7.61586C16.2302 7.82386 16.2062 7.99186 16.1742 8.11986C16.1582 8.15186 16.1422 8.19186 16.1262 8.23986C16.1102 8.28786 16.1022 8.33586 16.1022 8.38386ZM5.63821 7.30386C5.70221 7.39986 5.80621 7.50386 5.95021 7.61586C6.09421 7.72786 6.25421 7.83186 6.43021 7.92786C6.60621 8.02386 6.77421 8.09586 6.93421 8.14386C7.11021 8.19186 7.24621 8.20786 7.34221 8.19186C7.21421 7.96786 7.06221 7.80786 6.88621 7.71186C6.72621 7.61586 6.56621 7.55186 6.40621 7.51986C6.24621 7.48786 6.11021 7.45586 5.99821 7.42386C5.88621 7.37586 5.76621 7.33586 5.63821 7.30386ZM15.5982 9.22386C15.5982 9.25586 15.6142 9.28786 15.6462 9.31986C15.6942 9.33586 15.7422 9.37586 15.7902 9.43986C15.8222 9.21586 15.8382 9.01586 15.8382 8.83986C15.8382 8.64786 15.8302 8.46386 15.8142 8.28786C15.8142 8.22386 15.7902 8.19186 15.7422 8.19186C15.6622 8.19186 15.6142 8.21586 15.5982 8.26386V9.22386ZM10.0302 8.33586C9.99821 8.33586 9.97421 8.35986 9.95821 8.40786C9.94221 8.43986 9.90221 8.48786 9.83821 8.55186C10.2702 8.55186 10.6542 8.52786 10.9902 8.47986C11.0542 8.47986 11.0862 8.44786 11.0862 8.38386C11.0382 8.30386 11.0062 8.26386 10.9902 8.26386L10.0302 8.33586ZM13.2462 8.79186C13.2942 8.74386 13.3262 8.69586 13.3422 8.64786C13.2942 8.63186 13.2542 8.61586 13.2222 8.59986C13.1902 8.58386 13.1582 8.57586 13.1262 8.57586C12.1342 8.62386 11.1502 8.64786 10.1742 8.64786C10.2062 8.71186 10.2222 8.76786 10.2222 8.81586C10.2542 8.83186 10.2862 8.83986 10.3182 8.83986C11.1982 8.88786 12.0942 8.88786 13.0062 8.83986C13.1342 8.83986 13.2142 8.82386 13.2462 8.79186ZM14.1102 9.36786C14.0782 9.41586 14.0542 9.49586 14.0382 9.60786C14.0382 9.70386 14.0302 9.80786 14.0142 9.91986C14.0142 10.0159 14.0142 10.1119 14.0142 10.2079C14.0302 10.3039 14.0382 10.3679 14.0382 10.3999C14.0382 10.4319 14.0702 10.4479 14.1342 10.4479C14.1662 10.4319 14.2062 10.4159 14.2542 10.3999C14.3022 10.3839 14.3582 10.3599 14.4222 10.3279C14.4382 10.4239 14.4462 10.5199 14.4462 10.6159C14.4622 10.7119 14.4862 10.7999 14.5182 10.8799C14.5502 10.8479 14.5742 10.8319 14.5902 10.8319C14.6062 10.8159 14.6142 10.7919 14.6142 10.7599C14.6142 10.6639 14.6142 10.5359 14.6142 10.3759C14.6302 10.1999 14.6382 10.0319 14.6382 9.87186C14.6382 9.69586 14.6302 9.54386 14.6142 9.41586C14.6142 9.28786 14.6142 9.19986 14.6142 9.15186C14.5342 9.23186 14.4702 9.31186 14.4222 9.39186C14.3742 9.47186 14.3022 9.54386 14.2062 9.60786C14.2062 9.57586 14.1742 9.49586 14.1102 9.36786ZM13.7502 9.70386C13.7022 9.87986 13.6702 10.1119 13.6542 10.3999C13.6542 10.6719 13.6702 10.9359 13.7022 11.1919C13.7342 11.2079 13.7902 11.2159 13.8702 11.2159C13.8702 10.9759 13.8702 10.7359 13.8702 10.4959C13.8702 10.2559 13.8622 10.0239 13.8462 9.79986C13.8462 9.78386 13.8302 9.77586 13.7982 9.77586C13.7822 9.75986 13.7662 9.73586 13.7502 9.70386ZM6.88621 13.4719C7.09421 13.4719 7.37421 13.4719 7.72621 13.4719C8.07821 13.4719 8.45421 13.4719 8.85421 13.4719C9.25421 13.4719 9.66221 13.4799 10.0782 13.4959C10.5102 13.4959 10.9102 13.4959 11.2782 13.4959C11.3742 13.5119 11.4222 13.4799 11.4222 13.3999C11.3102 13.3679 11.0862 13.3439 10.7502 13.3279C10.4142 13.2959 10.1102 13.2719 9.83821 13.2559C9.71021 13.2559 9.48621 13.2559 9.16621 13.2559C8.84621 13.2559 8.51821 13.2559 8.18221 13.2559C7.84621 13.2559 7.53421 13.2559 7.24621 13.2559C6.97421 13.2559 6.80621 13.2559 6.74221 13.2559C6.55021 13.2559 6.45421 13.3039 6.45421 13.3999C6.53421 13.4319 6.59821 13.4479 6.64621 13.4479C6.71021 13.4479 6.79021 13.4559 6.88621 13.4719ZM12.4782 13.8559C12.5582 13.7759 12.6062 13.7199 12.6222 13.6879C12.5582 13.6559 12.4782 13.6399 12.3822 13.6399C12.2062 13.6399 12.0142 13.6479 11.8062 13.6639C11.5982 13.6799 11.3822 13.6799 11.1582 13.6639C10.9982 13.6479 10.8462 13.6479 10.7022 13.6639C10.5742 13.6639 10.4382 13.6639 10.2942 13.6639C10.2622 13.6639 10.2222 13.6719 10.1742 13.6879C10.1262 13.6879 10.0942 13.7279 10.0782 13.8079C10.3982 13.8399 10.7182 13.8639 11.0382 13.8799C11.3742 13.8799 11.7102 13.8879 12.0462 13.9039C12.1262 13.9039 12.1982 13.9039 12.2622 13.9039C12.3262 13.9039 12.3982 13.8879 12.4782 13.8559ZM15.5502 13.8079C15.4542 14.0319 15.2862 14.1359 15.0462 14.1199C14.9662 14.1039 14.8862 14.1039 14.8062 14.1199C14.7422 14.1359 14.6702 14.1439 14.5902 14.1439C14.5582 14.3999 14.5342 14.6479 14.5182 14.8879C14.5182 15.1279 14.5582 15.3839 14.6382 15.6559C14.7662 15.4319 14.8702 15.2159 14.9502 15.0079C14.9822 15.0719 14.9902 15.1199 14.9742 15.1519C14.9742 15.1839 14.9902 15.2079 15.0222 15.2239C15.0862 15.2559 15.1342 15.3359 15.1662 15.4639C15.1982 15.5759 15.2142 15.6719 15.2142 15.7519C15.3422 15.5919 15.4382 15.3839 15.5022 15.1279C15.5502 14.9359 15.5902 14.7359 15.6222 14.5279C15.6542 14.3199 15.6622 14.1199 15.6462 13.9279C15.5982 13.9119 15.5662 13.8719 15.5502 13.8079ZM13.7502 14.3359C13.7182 14.5119 13.7342 14.8159 13.7982 15.2479C13.8622 15.6639 13.9582 16.0959 14.0862 16.5439C14.1502 16.5439 14.2062 16.5439 14.2542 16.5439C14.3182 16.5279 14.3822 16.5199 14.4462 16.5199C14.4302 16.4079 14.4222 16.3119 14.4222 16.2319C14.4222 16.1359 14.4142 16.0639 14.3982 16.0159C14.3182 15.7119 14.2382 15.4479 14.1582 15.2239C14.0942 14.9839 13.9982 14.7759 13.8702 14.5999C13.8222 14.5359 13.7822 14.4479 13.7502 14.3359ZM20.6862 19.3519C20.6542 19.2719 20.7022 19.1999 20.8302 19.1359C20.9742 19.0559 21.0782 18.9999 21.1422 18.9679C21.1582 18.9519 21.1662 18.9359 21.1662 18.9199C21.1662 18.9039 21.1822 18.8719 21.2142 18.8239C21.0382 18.8719 20.8222 18.9199 20.5662 18.9679C20.3262 18.9999 20.0782 19.0399 19.8222 19.0879L19.7502 18.8719C19.6542 18.8399 19.5582 18.8239 19.4622 18.8239C19.3822 18.8239 19.3182 18.8079 19.2702 18.7759C19.1902 18.7439 19.1022 18.7359 19.0062 18.7519C18.9262 18.7519 18.8462 18.6879 18.7662 18.5599C18.8142 18.4959 18.8702 18.4559 18.9342 18.4399C19.0142 18.4239 19.0942 18.4159 19.1742 18.4159C19.2542 18.4159 19.3262 18.4079 19.3902 18.3919C19.4702 18.3759 19.5342 18.3439 19.5822 18.2959C19.3582 18.2639 19.1822 18.2559 19.0542 18.2719C18.9422 18.2719 18.7982 18.2959 18.6222 18.3439L18.3102 18.8239C18.3902 18.9039 18.4622 18.9759 18.5262 19.0399C18.6062 19.0879 18.6862 19.1359 18.7662 19.1839L18.7182 19.3759C18.5422 19.3439 18.3822 19.3119 18.2382 19.2799C18.1102 19.2639 17.9742 19.2559 17.8302 19.2559C17.6862 19.2239 17.5822 19.2319 17.5182 19.2799V19.3999C17.6302 19.4479 17.8222 19.4959 18.0942 19.5439C18.3662 19.6079 18.6702 19.6399 19.0062 19.6399C19.3582 19.6559 19.7262 19.6399 20.1102 19.5919C20.4942 19.5439 20.8622 19.4399 21.2142 19.2799L21.1662 19.1839L20.6862 19.3519ZM14.2062 18.8959C14.3022 18.8959 14.3502 18.8559 14.3502 18.7759C14.2382 18.7439 14.0062 18.7279 13.6542 18.7279C13.3182 18.7119 13.0222 18.7039 12.7662 18.7039C12.6382 18.7039 12.4142 18.7119 12.0942 18.7279C11.7742 18.7279 11.4462 18.7359 11.1102 18.7519C10.7742 18.7679 10.4622 18.7839 10.1742 18.7999C9.90221 18.7999 9.73421 18.7999 9.67021 18.7999C9.47821 18.7999 9.38221 18.8479 9.38221 18.9439C9.46221 18.9759 9.52621 18.9919 9.57421 18.9919C9.63821 18.9919 9.71821 18.9919 9.81421 18.9919L14.2062 18.8959ZM12.4302 19.4959C12.7022 19.4799 12.8862 19.4479 12.9822 19.3999C13.0942 19.3519 13.1582 19.2959 13.1742 19.2319C12.9502 19.2319 12.6142 19.2319 12.1662 19.2319C11.7342 19.2319 11.2862 19.2319 10.8222 19.2319C10.3582 19.2319 9.92621 19.2319 9.52621 19.2319C9.12621 19.2319 8.85421 19.2319 8.71021 19.2319C8.66221 19.2319 8.61421 19.2079 8.56621 19.1599C8.53421 19.1279 8.47021 19.1039 8.37421 19.0879C8.29421 19.0719 8.21421 19.0639 8.13421 19.0639C7.92621 19.0639 7.78221 19.0639 7.70221 19.0639C7.62221 19.0639 7.45421 19.0719 7.19821 19.0879C7.13421 19.0879 7.00621 19.1039 6.81421 19.1359C6.63821 19.1519 6.51821 19.1679 6.45421 19.1839L5.97421 19.3039C5.87821 19.3039 5.78221 19.3039 5.68621 19.3039C5.59021 19.3039 5.49421 19.2959 5.39821 19.2799C5.30221 19.2639 5.21421 19.2399 5.13421 19.2079C5.07021 19.1599 4.92621 19.1279 4.70221 19.1119L4.22221 19.2079C4.07821 19.2399 3.94221 19.2719 3.81421 19.3039C3.70221 19.3519 3.58221 19.3759 3.45421 19.3759C3.40621 19.3759 3.35021 19.4079 3.28621 19.4719L3.45421 19.5919C3.58221 19.6559 3.70221 19.6879 3.81421 19.6879C3.94221 19.7039 4.07021 19.7119 4.19821 19.7119C4.56621 19.7119 4.92621 19.7119 5.27821 19.7119C5.63021 19.7119 5.98221 19.6959 6.33421 19.6639H6.45421C6.48621 19.6479 6.52621 19.6319 6.57421 19.6159C6.62221 19.6159 6.71021 19.6159 6.83821 19.6159H7.29421C7.63021 19.6319 8.03021 19.6319 8.49421 19.6159C8.97421 19.5999 9.45421 19.5839 9.93421 19.5679C10.4142 19.5519 10.8782 19.5359 11.3262 19.5199C11.7742 19.5039 12.1422 19.4959 12.4302 19.4959ZM42.8596 17.9119C43.2276 18.1999 43.4116 18.4719 43.4116 18.7279C43.4116 18.9039 43.3316 19.0639 43.1716 19.2079C43.0276 19.3519 42.8756 19.4639 42.7156 19.5439C42.3636 19.7039 41.9796 19.8159 41.5636 19.8799C41.1476 19.9599 40.7076 19.9599 40.2436 19.8799C40.1156 19.8639 39.9316 19.8399 39.6916 19.8079C39.4516 19.7759 39.1876 19.7439 38.8996 19.7119C38.6276 19.6959 38.3476 19.6719 38.0596 19.6399C37.7716 19.6239 37.5156 19.6159 37.2916 19.6159C36.9716 19.5999 36.5076 19.5919 35.8996 19.5919C35.3076 19.6079 34.6356 19.6159 33.8836 19.6159C33.1316 19.6319 32.3396 19.6479 31.5076 19.6639C30.6916 19.6959 29.9156 19.7199 29.1796 19.7359C28.4436 19.7519 27.7876 19.7759 27.2116 19.8079C26.6356 19.8399 26.2116 19.8639 25.9396 19.8799C25.4916 19.9119 25.1076 19.9119 24.7876 19.8799C24.4676 19.8639 24.1636 19.7119 23.8756 19.4239C23.8116 19.3599 23.7556 19.2559 23.7076 19.1119C23.6756 18.9679 23.6196 18.8559 23.5396 18.7759L23.1316 18.6079C23.0196 18.4799 22.9396 18.3839 22.8916 18.3199C22.8436 18.2399 22.7876 18.1439 22.7236 18.0319C22.6756 17.9519 22.6196 17.8559 22.5556 17.7439C22.4916 17.6159 22.4436 17.5199 22.4116 17.4559C22.3316 17.2639 22.3876 17.0719 22.5796 16.8799C22.6756 16.7839 22.7956 16.7199 22.9396 16.6879C23.0516 16.6879 23.1556 16.6879 23.2516 16.6879C23.3636 16.6879 23.4436 16.6959 23.4916 16.7119C23.5716 16.7759 23.6276 16.8239 23.6596 16.8559C23.7076 16.8879 23.7956 16.8959 23.9236 16.8799C23.8916 16.7519 23.8596 16.6559 23.8276 16.5919C23.8116 16.5279 23.7636 16.4319 23.6836 16.3039C23.6356 16.2239 23.6436 16.1599 23.7076 16.1119C24.0116 15.9519 24.3476 15.9999 24.7156 16.2559C25.0996 16.5279 25.4196 16.6959 25.6756 16.7599C25.9476 16.8079 26.2676 16.8239 26.6356 16.8079C26.7316 16.8079 26.9156 16.8079 27.1876 16.8079C27.4756 16.7919 27.8116 16.7839 28.1956 16.7839C28.5796 16.7679 29.0036 16.7599 29.4676 16.7599C29.9476 16.7439 30.4356 16.7279 30.9316 16.7119C30.9156 16.3439 30.8996 16.0239 30.8836 15.7519C30.8676 15.4799 30.8436 15.2799 30.8116 15.1519C30.7796 14.9919 30.7636 14.8799 30.7636 14.8159C30.2996 14.8319 29.8996 14.8479 29.5636 14.8639C29.2276 14.8639 29.0196 14.8719 28.9396 14.8879C28.6996 14.9199 28.4436 14.9519 28.1716 14.9839C27.9156 15.0159 27.6836 15.0239 27.4756 15.0079C27.1556 14.9759 26.8836 14.8479 26.6596 14.6239C26.4356 14.3999 26.2996 14.1039 26.2516 13.7359C26.2196 13.5599 26.2516 13.3759 26.3476 13.1839C26.4596 12.9759 26.6036 12.7919 26.7796 12.6319C26.7796 12.2959 26.8036 11.9519 26.8516 11.5999C26.8996 11.2319 26.9156 10.8639 26.8996 10.4959C26.8996 10.4639 26.8996 10.3759 26.8996 10.2319C26.8996 10.0719 26.9076 9.96786 26.9236 9.91986C26.9076 9.91986 26.8756 9.92786 26.8276 9.94386C26.7796 9.94386 26.7396 9.95986 26.7076 9.99186C26.6756 10.0239 26.6436 10.0639 26.6116 10.1119C26.5956 10.1439 26.5796 10.1679 26.5636 10.1839C26.5316 10.1359 26.5076 10.0879 26.4916 10.0399C26.4916 9.97586 26.4836 9.91986 26.4676 9.87186C26.4516 9.79186 26.4436 9.67186 26.4436 9.51186C26.4596 9.33586 26.5076 9.19986 26.5876 9.10386C26.7156 8.94386 26.8996 8.79986 27.1396 8.67186C27.3796 8.54386 27.6756 8.43986 28.0276 8.35986C28.2676 8.34386 28.5396 8.37586 28.8436 8.45586C29.1636 8.53586 29.4916 8.56786 29.8276 8.55186C30.0036 8.53586 30.3396 8.54386 30.8356 8.57586C31.3316 8.60786 31.8916 8.61586 32.5156 8.59986C32.7396 8.59986 32.9796 8.62386 33.2356 8.67186C33.4916 8.70386 33.7316 8.71186 33.9556 8.69586C34.1956 8.64786 34.4116 8.59986 34.6036 8.55186C34.8116 8.50386 35.0276 8.47986 35.2516 8.47986L35.2756 7.30386C34.8276 7.31986 34.2916 7.33586 33.6676 7.35186C33.0436 7.35186 32.4276 7.35186 31.8196 7.35186C31.2116 7.35186 30.6596 7.34386 30.1636 7.32786C29.6676 7.31186 29.3316 7.28786 29.1556 7.25586C28.8196 7.19186 28.5796 7.12786 28.4356 7.06386C28.3076 6.98386 28.2436 6.89586 28.2436 6.79986C27.7956 6.54386 27.3876 6.24786 27.0196 5.91186C26.9556 5.84786 26.8916 5.79186 26.8276 5.74386C26.7636 5.69586 26.6996 5.65586 26.6356 5.62386C26.5396 5.38386 26.5796 5.16786 26.7556 4.97586C26.7876 4.94386 26.8276 4.92786 26.8756 4.92786C26.9236 4.91186 26.9636 4.88786 26.9956 4.85586C27.0116 4.82386 27.0436 4.79186 27.0916 4.75986C27.1556 4.71186 27.2036 4.67986 27.2356 4.66386C27.3156 4.66386 27.3876 4.67186 27.4516 4.68786C27.5156 4.70386 27.5876 4.71986 27.6676 4.73586C27.7796 4.76786 27.8516 4.79186 27.8836 4.80786C27.9156 4.80786 27.9956 4.78386 28.1236 4.73586C28.0596 4.63986 27.9796 4.55986 27.8836 4.49586C27.7876 4.43186 27.6836 4.35186 27.5716 4.25586C27.6836 4.17586 27.7716 4.15186 27.8356 4.18386C27.9156 4.19986 28.0276 4.25586 28.1716 4.35186C28.3156 4.44786 28.5316 4.51986 28.8196 4.56786C29.1076 4.59986 29.4516 4.63986 29.8516 4.68786C29.9316 4.70386 30.0036 4.71986 30.0676 4.73586C30.1316 4.73586 30.1956 4.74386 30.2596 4.75986C30.3396 4.75986 30.4356 4.76786 30.5476 4.78386C30.6596 4.78386 30.8116 4.78386 31.0036 4.78386H31.4356C31.7076 4.89586 31.9156 4.95186 32.0596 4.95186C32.1716 4.95186 32.3316 4.95186 32.5396 4.95186C32.7636 4.93586 32.9876 4.92786 33.2116 4.92786C33.4356 4.91186 33.6356 4.89586 33.8116 4.87986C33.9876 4.86386 34.0916 4.85586 34.1236 4.85586C34.1556 4.85586 34.1956 4.84786 34.2436 4.83186C34.2916 4.79986 34.3796 4.76786 34.5076 4.73586C34.6836 4.67186 34.9156 4.63186 35.2036 4.61586C35.5076 4.58386 35.7716 4.55186 35.9956 4.51986C36.2196 4.48786 36.4436 4.44786 36.6676 4.39986C36.9236 4.35186 37.1396 4.33586 37.3156 4.35186C37.4916 4.38386 37.6356 4.43186 37.7476 4.49586C37.8596 4.54386 38.0276 4.65586 38.2516 4.83186C38.4596 5.00786 38.6196 5.15986 38.7316 5.28786C38.8436 5.41586 38.8836 5.55986 38.8516 5.71986C38.8356 5.78386 38.8036 5.89586 38.7556 6.05586C38.7236 6.21586 38.6676 6.33586 38.5876 6.41586C38.5236 6.47986 38.4436 6.53586 38.3476 6.58386L38.2756 8.02386C38.1956 8.02386 38.1556 7.97586 38.1556 7.87986V6.63186C38.1556 6.40786 38.1156 6.20786 38.0356 6.03186C37.9556 5.83986 37.8836 5.71186 37.8196 5.64786C37.7876 5.61586 37.7556 5.60786 37.7236 5.62386C37.6756 5.59186 37.6436 5.58386 37.6276 5.59986C37.5956 5.63186 37.5556 5.65586 37.5076 5.67186C37.5716 5.76786 37.6196 5.86386 37.6516 5.95986L37.4836 6.03186L37.6276 6.89586C37.6436 6.89586 37.6996 6.87986 37.7956 6.84786L37.8676 7.08786L37.9156 7.03986C37.9156 6.91186 37.9076 6.75986 37.8916 6.58386C37.8916 6.39186 37.9076 6.27986 37.9396 6.24786C37.9716 6.27986 37.9876 6.32786 37.9876 6.39186C38.0036 6.45586 38.0116 6.51186 38.0116 6.55986C38.0276 6.71986 38.0356 6.87986 38.0356 7.03986C38.0356 7.19986 38.0356 7.34386 38.0356 7.47186C38.0356 7.55186 38.0276 7.60786 38.0116 7.63986C38.0116 7.65586 38.0036 7.67986 37.9876 7.71186C37.8756 7.66386 37.8036 7.59986 37.7716 7.51986C37.7396 7.43986 37.6996 7.35986 37.6516 7.27986C37.6036 7.19986 37.5636 7.11986 37.5316 7.03986C37.4996 6.95986 37.4596 6.86386 37.4116 6.75186C37.3956 6.79986 37.3796 6.83186 37.3636 6.84786C37.3636 6.86386 37.3636 6.88786 37.3636 6.91986C37.3796 7.04786 37.3876 7.18386 37.3876 7.32786C37.3876 7.45586 37.3876 7.58386 37.3876 7.71186C37.3876 7.77586 37.4196 7.83186 37.4836 7.87986L37.6756 7.99986C37.7396 8.03186 37.7716 8.07186 37.7716 8.11986C37.7876 8.15186 37.7796 8.17586 37.7476 8.19186C37.7156 8.20786 37.6756 8.20786 37.6276 8.19186C37.5956 8.17586 37.5556 8.15986 37.5076 8.14386C37.4596 8.20786 37.4436 8.27186 37.4596 8.33586C37.4756 8.39986 37.4756 8.47186 37.4596 8.55186C37.5876 8.64786 37.7076 8.74386 37.8196 8.83986C37.9316 8.93586 38.0756 9.01586 38.2516 9.07986C38.3316 9.14386 38.3876 9.24786 38.4196 9.39186C38.4676 9.53586 38.4756 9.66386 38.4436 9.77586C38.4116 9.75986 38.3716 9.75186 38.3236 9.75186C38.2756 9.73586 38.2116 9.75186 38.1316 9.79986C38.0996 9.87986 38.0916 9.93586 38.1076 9.96786C38.1236 9.98386 38.1316 10.0639 38.1316 10.2079C38.1316 10.2399 38.1476 10.2639 38.1796 10.2799C38.2116 10.2959 38.2276 10.3119 38.2276 10.3279C38.2276 10.4239 38.1956 10.4879 38.1316 10.5199C38.0996 10.5359 38.0516 10.5759 37.9876 10.6399C37.9396 10.6879 37.8676 10.7439 37.7716 10.8079C37.6916 10.8719 37.5956 10.9279 37.4836 10.9759C37.3716 11.0079 37.2436 11.0159 37.0996 10.9999C37.0356 10.9839 36.9236 10.9679 36.7636 10.9519C36.6036 10.9199 36.4596 10.9039 36.3316 10.9039C36.0116 10.8879 35.6676 10.8559 35.2996 10.8079C34.9476 10.7599 34.6356 10.7119 34.3636 10.6639C34.2836 10.6959 34.1956 10.7359 34.0996 10.7839C34.0036 10.8159 33.9396 10.8319 33.9076 10.8319C33.2196 10.8159 32.5476 10.8239 31.8916 10.8559C31.2516 10.8719 30.5956 10.8799 29.9236 10.8799L29.8516 11.0239C29.8356 11.0559 29.8276 11.1119 29.8276 11.1919C29.8276 11.3359 29.8276 11.4959 29.8276 11.6719C29.8276 11.8319 29.7956 11.9279 29.7316 11.9599C29.6836 11.8959 29.6596 11.8159 29.6596 11.7199C29.6596 11.6239 29.6436 11.5359 29.6116 11.4559C29.5316 11.3439 29.4836 11.2239 29.4676 11.0959C29.4516 10.9519 29.4356 10.8079 29.4196 10.6639C29.4036 10.6159 29.3796 10.5599 29.3476 10.4959C29.3316 10.4159 29.2836 10.3599 29.2036 10.3279C29.2676 10.6319 29.2996 10.9519 29.2996 11.2879C29.2996 11.4159 29.2916 11.5679 29.2756 11.7439C29.2596 11.9199 29.2596 12.0719 29.2756 12.1999C29.9476 12.1999 30.6756 12.1999 31.4596 12.1999C32.2436 12.1839 33.0036 12.1679 33.7396 12.1519C34.4916 12.1359 35.1796 12.1199 35.8036 12.1039C36.4276 12.0719 36.9236 12.0319 37.2916 11.9839C37.8996 11.9039 38.4596 12.1039 38.9716 12.5839C39.0036 12.7119 39.0276 12.8159 39.0436 12.8959C39.0756 12.9759 39.0836 13.0479 39.0676 13.1119C39.1316 13.2079 39.1956 13.2959 39.2596 13.3759C39.3236 13.4559 39.3796 13.5119 39.4276 13.5439L39.6196 13.6879C39.7156 14.0079 39.7316 14.2959 39.6676 14.5519C39.6356 14.6479 39.5476 14.7439 39.4036 14.8399C39.2756 14.9359 39.1396 14.9679 38.9956 14.9359C38.7876 14.8879 38.4916 14.8479 38.1076 14.8159C37.7396 14.7839 37.4116 14.7599 37.1236 14.7439H34.4596C34.4916 14.8559 34.5156 14.9759 34.5316 15.1039C34.5636 15.2159 34.5716 15.3119 34.5556 15.3919C34.5236 15.3759 34.4836 15.3439 34.4356 15.2959C34.4036 15.2319 34.3796 15.1919 34.3636 15.1759L34.3156 15.1999C34.3156 15.2479 34.3076 15.3599 34.2916 15.5359C34.2916 15.6959 34.2596 15.7919 34.1956 15.8239C34.1636 15.7599 34.1476 15.6959 34.1476 15.6319C34.1476 15.5519 34.1396 15.4799 34.1236 15.4159C34.1076 15.2559 34.0436 15.0719 33.9316 14.8639C33.8516 14.7039 33.7716 14.5679 33.6916 14.4559C33.6276 14.3279 33.5716 14.1759 33.5236 13.9999C33.4916 13.9199 33.4436 13.8639 33.3796 13.8319L33.3076 13.8079C33.3716 13.9839 33.4196 14.1439 33.4516 14.2879C33.4996 14.4319 33.5076 14.5359 33.4756 14.5999C33.3956 14.5679 33.3476 14.5039 33.3316 14.4079C33.3156 14.2959 33.2516 14.2239 33.1396 14.1919C33.1396 14.2559 33.1556 14.3199 33.1876 14.3839C33.2356 14.5439 33.2676 14.7039 33.2836 14.8639C33.2996 15.0079 33.3076 15.1679 33.3076 15.3439C33.3076 15.4719 33.3236 15.5519 33.3556 15.5839L33.5236 15.5119C33.5396 15.7199 33.5156 15.9599 33.4516 16.2319C33.3716 16.2639 33.3076 16.2399 33.2596 16.1599C33.2276 16.0639 33.2036 15.9599 33.1876 15.8479C33.1716 15.7199 33.1556 15.5599 33.1396 15.3679C33.1396 15.1599 33.1236 14.9919 33.0916 14.8639C33.0756 14.7839 33.0116 14.7199 32.8996 14.6719C32.9156 14.7999 32.9316 15.0079 32.9476 15.2959C32.9796 15.5839 32.9876 15.8639 32.9716 16.1359H32.9236C32.8916 16.0719 32.8596 15.9919 32.8276 15.8959C32.8116 15.7999 32.7636 15.7519 32.6836 15.7519C32.7156 15.9279 32.7236 16.0879 32.7076 16.2319C32.6916 16.3599 32.6916 16.5039 32.7076 16.6639C32.8996 16.6479 33.0836 16.6399 33.2596 16.6399C33.4516 16.6399 33.6356 16.6399 33.8116 16.6399C33.8116 16.5119 33.8196 16.3759 33.8356 16.2319C33.8676 16.0719 33.8996 15.9759 33.9316 15.9439C34.0276 16.0559 34.0676 16.1679 34.0516 16.2799C34.0356 16.3919 34.0436 16.5039 34.0756 16.6159C34.5236 16.5999 34.9076 16.5919 35.2276 16.5919C35.5476 16.5919 35.7716 16.5839 35.8996 16.5679C36.0436 16.5519 36.2356 16.5519 36.4756 16.5679C36.7316 16.5679 36.9956 16.5759 37.2676 16.5919C37.5076 16.5759 37.7796 16.5599 38.0836 16.5439C38.4036 16.5279 38.7076 16.5119 38.9956 16.4959C39.2836 16.4639 39.5396 16.4399 39.7636 16.4239C39.9876 16.4079 40.1476 16.3999 40.2436 16.3999C40.5796 16.3839 40.8756 16.4319 41.1316 16.5439C41.3876 16.6559 41.6356 16.7839 41.8756 16.9279C41.9556 16.9599 42.0276 17.0159 42.0916 17.0959C42.1556 17.1759 42.1956 17.2799 42.2116 17.4079C42.3396 17.4879 42.4436 17.5599 42.5236 17.6239C42.6036 17.6879 42.7156 17.7839 42.8596 17.9119ZM37.2436 4.68786C37.1156 4.68786 36.9956 4.68786 36.8836 4.68786C36.7716 4.68786 36.6516 4.71186 36.5236 4.75986C36.5396 4.82386 36.5476 4.88786 36.5476 4.95186C36.5476 5.01586 36.5636 5.08786 36.5956 5.16786C36.7076 5.18386 36.8196 5.19986 36.9316 5.21586C37.0436 5.21586 37.1556 5.23186 37.2676 5.26386C37.4756 5.26386 37.5636 5.16786 37.5316 4.97586C37.4996 4.89586 37.4596 4.83186 37.4116 4.78386C37.3796 4.71986 37.3236 4.68786 37.2436 4.68786ZM38.0116 4.90386C37.9796 4.83986 37.9316 4.79186 37.8676 4.75986C37.8196 4.72786 37.7556 4.72786 37.6756 4.75986L37.9156 5.26386C38.0596 5.15186 38.0916 5.03186 38.0116 4.90386ZM38.0596 5.76786L38.2036 5.98386C38.2836 5.90386 38.3556 5.83986 38.4196 5.79186C38.4836 5.72786 38.5316 5.64786 38.5636 5.55186L38.3716 5.31186L38.0596 5.76786ZM38.3476 6.34386C38.4916 6.27986 38.5476 6.15986 38.5156 5.98386C38.4676 6.01586 38.4116 6.07986 38.3476 6.17586C38.3316 6.20786 38.3236 6.23986 38.3236 6.27186C38.3396 6.28786 38.3476 6.31186 38.3476 6.34386ZM35.1076 6.63186C35.1876 6.56786 35.2436 6.49586 35.2756 6.41586C35.3076 6.38386 35.3236 6.34386 35.3236 6.29586C35.3236 6.23186 35.3316 6.17586 35.3476 6.12786C35.2996 6.11186 35.2436 6.10386 35.1796 6.10386C35.1156 6.08786 35.0676 6.08786 35.0356 6.10386C34.7476 6.11986 34.5076 6.12786 34.3156 6.12786C34.1236 6.12786 33.9156 6.14386 33.6916 6.17586C33.6756 6.19186 33.6676 6.23186 33.6676 6.29586C33.7476 6.29586 33.8196 6.30386 33.8836 6.31986C33.9636 6.31986 34.0356 6.31986 34.0996 6.31986C34.1156 6.33586 34.1236 6.36786 34.1236 6.41586C33.9476 6.43186 33.7716 6.44786 33.5956 6.46386C33.4196 6.46386 33.2436 6.46386 33.0676 6.46386C33.2436 6.54386 33.5476 6.59986 33.9796 6.63186C34.4116 6.64786 34.7876 6.64786 35.1076 6.63186ZM36.4996 8.50386C36.5156 8.51986 36.5556 8.52786 36.6196 8.52786C36.6356 8.46386 36.6596 8.39986 36.6916 8.33586C36.7236 8.27186 36.7556 8.22386 36.7876 8.19186C36.8356 8.35186 36.9076 8.51186 37.0036 8.67186C37.1156 8.67186 37.1716 8.60786 37.1716 8.47986C37.1716 8.15986 37.1716 7.83986 37.1716 7.51986C37.1876 7.19986 37.1796 6.87186 37.1476 6.53586C37.1476 6.50386 37.1316 6.45586 37.0996 6.39186C37.0836 6.31186 37.0676 6.25586 37.0516 6.22386C37.0196 6.28786 37.0036 6.35186 37.0036 6.41586C37.0036 6.46386 37.0036 6.51186 37.0036 6.55986V7.37586C37.0036 7.47186 36.9316 7.51186 36.7876 7.49586C36.7716 7.36786 36.7476 7.23186 36.7156 7.08786C36.6996 6.92786 36.6276 6.75986 36.4996 6.58386V8.50386ZM35.1796 7.03986C35.2116 7.03986 35.2356 7.01586 35.2516 6.96786C35.2676 6.91986 35.2676 6.89586 35.2516 6.89586C35.2036 6.87986 35.1316 6.86386 35.0356 6.84786C34.9396 6.83186 34.8436 6.82386 34.7476 6.82386C34.6996 6.82386 34.5796 6.82386 34.3876 6.82386C34.1956 6.82386 33.9716 6.82386 33.7156 6.82386C33.4756 6.82386 33.2116 6.82386 32.9236 6.82386C32.6356 6.82386 32.3636 6.82386 32.1076 6.82386C31.8516 6.82386 31.6276 6.82386 31.4356 6.82386C31.2596 6.82386 31.1476 6.82386 31.0996 6.82386C30.9716 6.79186 30.8676 6.79986 30.7876 6.84786C30.7396 6.87986 30.6996 6.90386 30.6676 6.91986C30.6356 6.93586 30.6116 6.95986 30.5956 6.99186C30.6916 7.02386 30.9396 7.04786 31.3396 7.06386C31.7556 7.06386 32.2116 7.06386 32.7076 7.06386C33.2036 7.06386 33.6836 7.06386 34.1476 7.06386C34.6116 7.04786 34.9556 7.03986 35.1796 7.03986ZM35.4916 8.57586C35.5396 8.54386 35.5796 8.51986 35.6116 8.50386C35.6436 8.48786 35.6676 8.45586 35.6836 8.40786V7.03986C35.6836 7.00786 35.6596 6.98386 35.6116 6.96786C35.5636 6.95186 35.5236 6.94386 35.4916 6.94386V8.57586ZM29.0356 12.1519C29.0356 12.0559 29.0356 11.9279 29.0356 11.7679C29.0516 11.5919 29.0596 11.4239 29.0596 11.2639C29.0596 11.0879 29.0516 10.9359 29.0356 10.8079C29.0356 10.6799 29.0356 10.5919 29.0356 10.5439C28.9556 10.6239 28.8916 10.7039 28.8436 10.7839C28.7956 10.8639 28.7236 10.9359 28.6276 10.9999C28.6276 10.9679 28.5956 10.8879 28.5316 10.7599C28.4996 10.8079 28.4756 10.8879 28.4596 10.9999C28.4596 11.0959 28.4516 11.1999 28.4356 11.3119C28.4356 11.4079 28.4356 11.5039 28.4356 11.5999C28.4516 11.6959 28.4596 11.7599 28.4596 11.7919C28.4596 11.8239 28.4916 11.8399 28.5556 11.8399C28.5876 11.8239 28.6276 11.8079 28.6756 11.7919C28.7236 11.7759 28.7796 11.7519 28.8436 11.7199C28.8596 11.8159 28.8676 11.9119 28.8676 12.0079C28.8836 12.1039 28.9076 12.1919 28.9396 12.2719C28.9716 12.2399 28.9956 12.2239 29.0116 12.2239C29.0276 12.2079 29.0356 12.1839 29.0356 12.1519ZM37.6996 12.6559C37.6836 12.7839 37.7156 12.8559 37.7956 12.8719C37.8756 12.8879 37.9396 12.9359 37.9876 13.0159C37.9556 13.0959 37.9156 13.1599 37.8676 13.2079C37.8356 13.2559 37.7876 13.3199 37.7236 13.3999C37.8676 13.3999 37.9796 13.3999 38.0596 13.3999C38.1556 13.3839 38.2276 13.3679 38.2756 13.3519C38.3236 13.3359 38.3636 13.3199 38.3956 13.3039C38.4436 13.2719 38.4996 13.2319 38.5636 13.1839C38.5476 13.0239 38.5236 12.8639 38.4916 12.7039C38.4756 12.5279 38.3316 12.4159 38.0596 12.3679L37.6996 12.6559ZM36.6196 13.6159C36.5716 13.6159 36.4836 13.6159 36.3556 13.6159C36.2276 13.6159 36.0916 13.6239 35.9476 13.6399C35.8036 13.6559 35.6596 13.6799 35.5156 13.7119C35.3876 13.7279 35.2996 13.7519 35.2516 13.7839C35.3316 13.8639 35.4116 13.8879 35.4916 13.8559C35.7156 13.8559 35.9076 13.8479 36.0676 13.8319C36.2436 13.8159 36.4436 13.8159 36.6676 13.8319C36.6996 13.7999 36.7156 13.7519 36.7156 13.6879C36.6996 13.6399 36.6676 13.6159 36.6196 13.6159ZM38.3476 14.1199C38.1396 14.1039 37.8996 14.0959 37.6276 14.0959C37.3556 14.0799 37.0916 14.0799 36.8356 14.0959C36.5956 14.0959 36.3796 14.1039 36.1876 14.1199C36.0116 14.1359 35.8996 14.1599 35.8516 14.1919C35.8836 14.2239 35.9236 14.2479 35.9716 14.2639C36.0196 14.2799 36.1156 14.2959 36.2596 14.3119C36.4996 14.3439 36.7956 14.3599 37.1476 14.3599C37.5156 14.3599 37.8996 14.3759 38.2996 14.4079C38.3956 14.4239 38.4596 14.3919 38.4916 14.3119C38.5236 14.2319 38.4756 14.1679 38.3476 14.1199ZM28.6756 14.6239C28.7396 14.6239 28.7716 14.5919 28.7716 14.5279C28.7716 14.4799 28.7476 14.4399 28.6996 14.4079C28.5076 14.4239 28.3156 14.4319 28.1236 14.4319C27.9476 14.4319 27.7556 14.4319 27.5476 14.4319C27.4516 14.4319 27.3716 14.4639 27.3076 14.5279C27.3556 14.5599 27.4436 14.5839 27.5716 14.5999C27.7156 14.6159 27.8596 14.6319 28.0036 14.6479C28.1636 14.6479 28.3076 14.6479 28.4356 14.6479C28.5636 14.6319 28.6436 14.6239 28.6756 14.6239ZM32.2756 15.4639C32.2276 15.5759 32.2116 15.7519 32.2276 15.9919C32.2596 16.2319 32.3156 16.4079 32.3956 16.5199C32.4756 16.2959 32.4996 16.1039 32.4676 15.9439C32.4356 15.7679 32.3716 15.6079 32.2756 15.4639ZM41.0596 17.2159C41.0756 17.2159 41.0996 17.2159 41.1316 17.2159C41.1796 17.1999 41.2516 17.1679 41.3476 17.1199C41.2996 17.0719 41.2276 17.0319 41.1316 16.9999C41.0516 16.9519 40.9876 16.9199 40.9396 16.9039C40.5876 16.7759 40.2276 16.7199 39.8596 16.7359C39.5076 16.7359 39.1876 16.7839 38.8996 16.8799C38.9636 16.9599 39.0356 16.9999 39.1156 16.9999C39.3876 17.0159 39.6676 17.0319 39.9556 17.0479C40.2596 17.0639 40.5876 17.1279 40.9396 17.2399C40.9876 17.2719 41.0116 17.2799 41.0116 17.2639C41.0276 17.2479 41.0436 17.2319 41.0596 17.2159ZM25.6756 17.5039C25.5156 17.5039 25.3876 17.4479 25.2916 17.3359C25.1956 17.2079 25.0596 17.1599 24.8836 17.1919L25.1236 17.5759H24.8356C24.7876 17.5759 24.7396 17.5599 24.6916 17.5279C24.6596 17.4799 24.6196 17.4959 24.5716 17.5759C24.7316 17.7519 24.8996 17.8559 25.0756 17.8879C25.2516 17.9199 25.4516 17.9119 25.6756 17.8639V17.5039ZM37.1956 18.7279C37.2596 18.7279 37.2916 18.6959 37.2916 18.6319C37.2916 18.5839 37.2676 18.5439 37.2196 18.5119C37.0276 18.5279 36.8356 18.5359 36.6436 18.5359C36.4676 18.5359 36.2756 18.5359 36.0676 18.5359C35.9716 18.5359 35.8916 18.5679 35.8276 18.6319C35.8756 18.6639 35.9636 18.6879 36.0916 18.7039C36.2356 18.7199 36.3796 18.7359 36.5236 18.7519C36.6836 18.7519 36.8276 18.7519 36.9556 18.7519C37.0836 18.7359 37.1636 18.7279 37.1956 18.7279ZM36.7636 19.2799C36.8596 19.2639 36.9716 19.2159 37.0996 19.1359C37.0356 19.1199 36.9476 19.1039 36.8356 19.0879C36.7236 19.0719 36.5956 19.0639 36.4516 19.0639C36.3076 19.0639 36.1636 19.0639 36.0196 19.0639C35.8756 19.0639 35.7476 19.0639 35.6356 19.0639C35.6356 19.0639 35.4996 19.0719 35.2276 19.0879C34.9556 19.0879 34.6436 19.0959 34.2916 19.1119C33.9556 19.1279 33.6196 19.1439 33.2836 19.1599C32.9476 19.1759 32.7156 19.1919 32.5876 19.2079C32.5556 19.2239 32.5076 19.2479 32.4436 19.2799C32.3956 19.3119 32.3476 19.3359 32.2996 19.3519C32.3636 19.3999 32.4356 19.4239 32.5156 19.4239C33.0756 19.3919 33.6196 19.3839 34.1476 19.3999C34.6756 19.4159 35.2116 19.4079 35.7556 19.3759C35.9476 19.3599 36.1236 19.3439 36.2836 19.3279C36.4596 19.3279 36.6196 19.3119 36.7636 19.2799ZM46.817 8.16786C46.737 8.05586 46.665 7.94386 46.601 7.83186C46.505 7.65586 46.481 7.51186 46.529 7.39986C46.625 7.35186 46.729 7.29586 46.841 7.23186C46.953 7.16786 47.081 7.07186 47.225 6.94386C47.321 6.91186 47.505 6.87986 47.777 6.84786C47.953 6.87986 48.113 6.89586 48.257 6.89586C48.401 6.89586 48.561 6.89586 48.737 6.89586L49.409 6.82386L49.145 6.12786C49.129 6.01586 49.113 5.90386 49.097 5.79186C49.097 5.66386 49.129 5.55986 49.193 5.47986C49.145 5.39986 49.105 5.33586 49.073 5.28786C49.041 5.22386 49.025 5.16786 49.025 5.11986C49.057 4.95986 49.113 4.83986 49.193 4.75986L49.649 4.37586C49.457 4.32786 49.273 4.27186 49.097 4.20786C48.937 4.12786 48.809 4.03186 48.713 3.91986C48.585 3.85586 48.465 3.83186 48.353 3.84786C48.257 3.84786 48.169 3.83986 48.089 3.82386C47.849 3.69586 47.649 3.55986 47.489 3.41586C47.409 3.35186 47.345 3.28786 47.297 3.22386C47.265 3.14386 47.233 3.04786 47.201 2.93586C47.329 2.82386 47.393 2.64786 47.393 2.40786C47.425 2.34386 47.465 2.27986 47.513 2.21586C47.561 2.15186 47.617 2.08786 47.681 2.02386C47.793 1.91186 47.993 1.85586 48.281 1.85586C48.425 1.83986 48.553 1.82386 48.665 1.80786C48.793 1.79186 48.953 1.79986 49.145 1.83186C49.401 1.91186 49.641 1.96786 49.865 1.99986C50.089 2.03186 50.305 2.04786 50.513 2.04786C50.721 2.04786 51.041 2.03986 51.473 2.02386C51.921 1.99186 52.385 1.96786 52.865 1.95186C53.361 1.91986 53.825 1.89586 54.257 1.87986C54.705 1.84786 55.049 1.82386 55.289 1.80786C55.497 1.79186 55.737 1.78386 56.009 1.78386C56.281 1.76786 56.473 1.79986 56.585 1.87986C56.729 1.81586 56.897 1.74386 57.089 1.66386C57.281 1.58386 57.433 1.50386 57.545 1.42386C57.689 1.39186 57.849 1.40786 58.025 1.47186C58.217 1.53586 58.393 1.66386 58.553 1.85586L58.889 2.31186C59.001 2.50386 59.057 2.71186 59.057 2.93586C59.137 2.98386 59.185 3.04786 59.201 3.12786C59.217 3.19186 59.217 3.26386 59.201 3.34386C59.137 3.51986 59.057 3.65586 58.961 3.75186C58.785 3.83186 58.649 3.88786 58.553 3.91986C58.473 3.93586 58.353 3.95986 58.193 3.99186C58.065 4.00786 57.921 4.01586 57.761 4.01586C57.617 4.01586 57.441 4.01586 57.233 4.01586C57.153 4.01586 57.041 4.02386 56.897 4.03986C56.769 4.03986 56.625 4.04786 56.465 4.06386C56.641 4.23986 56.761 4.39186 56.825 4.51986C56.937 4.71186 56.993 4.84786 56.993 4.92786C57.009 5.00786 57.009 5.07986 56.993 5.14386L56.897 5.35986C56.865 5.48786 56.849 5.61586 56.849 5.74386C56.849 5.77586 56.825 5.79186 56.777 5.79186C56.761 5.77586 56.729 5.73586 56.681 5.67186C56.649 5.60786 56.593 5.59186 56.513 5.62386C56.529 5.70386 56.545 5.79186 56.561 5.88786C56.577 5.98386 56.585 6.11986 56.585 6.29586C56.457 6.24786 56.377 6.19186 56.345 6.12786C56.329 6.20786 56.321 6.29586 56.321 6.39186C56.321 6.48786 56.321 6.57586 56.321 6.65586L56.873 6.72786V6.51186C56.889 6.20786 56.961 6.07186 57.089 6.10386C57.121 6.31186 57.121 6.50386 57.089 6.67986V6.75186L57.305 6.82386C57.481 6.79186 57.617 6.76786 57.713 6.75186C57.809 6.71986 57.889 6.70386 57.953 6.70386C58.193 6.73586 58.417 6.79186 58.625 6.87186C58.833 6.93586 59.049 7.05586 59.273 7.23186C59.385 7.29586 59.521 7.46386 59.681 7.73586C59.809 7.78386 59.905 7.87186 59.969 7.99986C60.033 8.11186 60.049 8.20786 60.017 8.28786C59.985 8.35186 59.937 8.40786 59.873 8.45586C59.825 8.50386 59.769 8.55986 59.705 8.62386C59.625 8.67186 59.537 8.70386 59.441 8.71986C59.361 8.71986 59.273 8.72786 59.177 8.74386C59.033 8.93586 58.865 9.04786 58.673 9.07986L58.073 9.00786C57.993 8.99186 57.905 8.97586 57.809 8.95986C57.729 8.92786 57.641 8.89586 57.545 8.86386C57.449 8.89586 57.305 8.92786 57.113 8.95986H56.585C55.673 8.92786 54.761 8.93586 53.849 8.98386C52.953 9.01586 52.121 9.06386 51.353 9.12786C51.033 9.15986 50.705 9.19186 50.369 9.22386C50.033 9.23986 49.721 9.27186 49.433 9.31986C49.209 9.35186 49.009 9.36786 48.833 9.36786C48.673 9.35186 48.537 9.32786 48.425 9.29586C48.233 9.18386 48.057 9.06386 47.897 8.93586C47.737 8.80786 47.601 8.67986 47.489 8.55186C47.329 8.51986 47.193 8.47186 47.081 8.40786C46.985 8.32786 46.897 8.24786 46.817 8.16786ZM55.913 1.95186C55.849 1.93586 55.697 1.93586 55.457 1.95186C55.233 1.96786 54.961 1.99186 54.641 2.02386C54.321 2.05586 53.977 2.09586 53.609 2.14386C53.257 2.17586 52.929 2.21586 52.625 2.26386L52.793 2.38386C52.937 2.38386 53.081 2.37586 53.225 2.35986C53.369 2.34386 53.505 2.35186 53.633 2.38386C53.729 2.41586 53.857 2.43186 54.017 2.43186C54.193 2.43186 54.369 2.42386 54.545 2.40786C54.737 2.37586 54.921 2.34386 55.097 2.31186C55.289 2.26386 55.457 2.21586 55.601 2.16786C55.777 2.11986 55.881 2.04786 55.913 1.95186ZM51.809 3.55986C51.777 3.57586 51.761 3.60786 51.761 3.65586C51.761 3.68786 51.785 3.70386 51.833 3.70386C52.009 3.70386 52.177 3.70386 52.337 3.70386C52.513 3.68786 52.689 3.64786 52.865 3.58386C52.881 3.58386 52.913 3.55186 52.961 3.48786C52.881 3.47186 52.825 3.45586 52.793 3.43986C52.777 3.40786 52.737 3.40786 52.673 3.43986C52.545 3.43986 52.425 3.44786 52.313 3.46386C52.201 3.46386 52.081 3.47186 51.953 3.48786C51.905 3.48786 51.857 3.51186 51.809 3.55986ZM54.137 3.79986C53.721 3.79986 53.305 3.81586 52.889 3.84786C52.489 3.87986 52.089 3.97586 51.689 4.13586C51.785 4.16786 51.849 4.18386 51.881 4.18386C52.041 4.19986 52.209 4.20786 52.385 4.20786C52.577 4.19186 52.761 4.17586 52.937 4.15986C53.225 4.14386 53.497 4.11986 53.753 4.08786C54.025 4.03986 54.305 4.02386 54.593 4.03986C54.641 4.07186 54.681 4.07186 54.713 4.03986C54.745 4.00786 54.761 3.99186 54.761 3.99186C54.761 3.97586 54.753 3.96786 54.737 3.96786C54.737 3.95186 54.737 3.93586 54.737 3.91986C54.657 3.85586 54.561 3.82386 54.449 3.82386C54.353 3.80786 54.249 3.79986 54.137 3.79986ZM54.305 5.38386C54.369 5.12786 54.425 4.90386 54.473 4.71186C54.521 4.50386 54.585 4.32786 54.665 4.18386C54.201 4.21586 53.753 4.25586 53.321 4.30386C52.905 4.33586 52.569 4.36786 52.313 4.39986L51.713 4.47186C51.809 4.59986 51.881 4.73586 51.929 4.87986C51.977 5.02386 52.009 5.13586 52.025 5.21586C52.073 5.45586 52.097 5.69586 52.097 5.93586C52.113 6.17586 52.113 6.41586 52.097 6.65586C52.465 6.63986 52.817 6.63186 53.153 6.63186C53.489 6.61586 53.785 6.60786 54.041 6.60786H54.281C54.249 6.41586 54.233 6.22386 54.233 6.03186C54.233 5.82386 54.257 5.60786 54.305 5.38386ZM55.001 4.56786C54.985 4.91986 54.977 5.23986 54.977 5.52786C54.993 5.81586 55.001 6.10386 55.001 6.39186C55.065 6.39186 55.105 6.37586 55.121 6.34386C55.169 6.08786 55.201 5.82386 55.217 5.55186C55.249 5.26386 55.233 5.01586 55.169 4.80786C55.169 4.77586 55.153 4.75186 55.121 4.73586C55.089 4.70386 55.049 4.64786 55.001 4.56786ZM50.945 4.80786C51.009 5.03186 51.129 5.27986 51.305 5.55186C51.385 5.37586 51.417 5.23186 51.401 5.11986C51.401 5.00786 51.377 4.89586 51.329 4.78386C51.313 4.75186 51.281 4.72786 51.233 4.71186C51.201 4.67986 51.169 4.64786 51.137 4.61586H51.065C51.049 4.61586 51.033 4.62386 51.017 4.63986C50.969 4.68786 50.945 4.74386 50.945 4.80786ZM51.881 6.65586C51.913 6.43186 51.921 6.17586 51.905 5.88786C51.905 5.58386 51.881 5.29586 51.833 5.02386C51.801 4.99186 51.769 4.96786 51.737 4.95186C51.721 4.91986 51.689 4.89586 51.641 4.87986C51.641 4.92786 51.633 4.98386 51.617 5.04786C51.617 5.11186 51.625 5.15986 51.641 5.19186C51.673 5.38386 51.697 5.55186 51.713 5.69586C51.729 5.83986 51.729 6.00786 51.713 6.19986C51.697 6.26386 51.689 6.34386 51.689 6.43986C51.705 6.51986 51.721 6.59186 51.737 6.65586H51.881ZM54.737 6.60786C54.721 6.39986 54.713 6.19986 54.713 6.00786C54.713 5.81586 54.697 5.62386 54.665 5.43186C54.665 5.41586 54.649 5.40786 54.617 5.40786C54.585 5.39186 54.561 5.36786 54.545 5.33586C54.513 5.47986 54.497 5.67186 54.497 5.91186C54.497 6.15186 54.513 6.38386 54.545 6.60786H54.737ZM50.297 5.59986C50.169 5.67986 50.089 5.74386 50.057 5.79186C49.993 6.06386 49.961 6.39186 49.961 6.77586L50.321 6.72786C50.321 6.55186 50.321 6.37586 50.321 6.19986C50.321 6.02386 50.313 5.82386 50.297 5.59986ZM49.553 5.95986C49.505 6.03986 49.497 6.17586 49.529 6.36786C49.561 6.55986 49.601 6.70386 49.649 6.79986C49.681 6.78386 49.713 6.77586 49.745 6.77586C49.793 6.64786 49.793 6.51186 49.745 6.36786C49.713 6.22386 49.649 6.08786 49.553 5.95986ZM58.289 7.61586C58.097 7.71186 57.977 7.77586 57.929 7.80786C57.897 7.82386 57.857 7.86386 57.809 7.92786C57.937 8.00786 58.065 8.01586 58.193 7.95186C58.321 7.87186 58.449 7.85586 58.577 7.90386C58.721 8.09586 58.897 8.13586 59.105 8.02386C59.217 7.97586 59.225 7.90386 59.129 7.80786C59.049 7.77586 59.009 7.74386 59.009 7.71186C59.009 7.66386 59.017 7.61586 59.033 7.56786C59.049 7.53586 59.049 7.49586 59.033 7.44786C59.033 7.39986 59.033 7.34386 59.033 7.27986C58.873 7.27986 58.729 7.27986 58.601 7.27986C58.489 7.26386 58.377 7.30386 58.265 7.39986C58.281 7.43186 58.289 7.47186 58.289 7.51986C58.289 7.55186 58.289 7.58386 58.289 7.61586ZM49.385 8.26386C49.161 8.29586 48.937 8.32786 48.713 8.35986C48.489 8.37586 48.289 8.41586 48.113 8.47986C48.241 8.55986 48.425 8.59986 48.665 8.59986C48.905 8.59986 49.113 8.55986 49.289 8.47986C49.353 8.44786 49.393 8.42386 49.409 8.40786C49.425 8.37586 49.449 8.34386 49.481 8.31186C49.465 8.27986 49.433 8.26386 49.385 8.26386ZM51.401 8.93586C51.481 8.91986 51.521 8.89586 51.521 8.86386C51.537 8.83186 51.529 8.79986 51.497 8.76786C51.177 8.79986 50.841 8.82386 50.489 8.83986C50.153 8.83986 49.873 8.83986 49.649 8.83986C49.521 8.83986 49.369 8.84786 49.193 8.86386C49.033 8.86386 48.889 8.87986 48.761 8.91186C48.761 9.03986 48.809 9.11986 48.905 9.15186C49.209 9.15186 49.537 9.14386 49.889 9.12786C50.241 9.11186 50.553 9.08786 50.825 9.05586C50.921 9.03986 51.017 9.02386 51.113 9.00786C51.225 8.99186 51.321 8.96786 51.401 8.93586ZM62.657 10.9519C62.769 11.0639 62.849 11.1599 62.897 11.2399C62.961 11.3039 63.001 11.3839 63.017 11.4799C63.017 11.6079 62.969 11.7759 62.873 11.9839C62.713 12.3199 62.393 12.5119 61.913 12.5599C61.673 12.6079 61.353 12.6159 60.953 12.5839C60.873 12.5839 60.785 12.5759 60.689 12.5599C60.593 12.5439 60.425 12.4959 60.185 12.4159C59.689 12.4319 59.129 12.4479 58.505 12.4639C57.881 12.4639 57.249 12.4719 56.609 12.4879C55.985 12.5039 55.377 12.5199 54.785 12.5359C54.209 12.5519 53.705 12.5679 53.273 12.5839L49.817 12.7759L47.225 12.9199C47.113 12.9199 47.001 12.9279 46.889 12.9439C46.793 12.9439 46.697 12.9439 46.601 12.9439C46.489 12.9439 46.377 12.9439 46.265 12.9439C46.169 12.9439 46.065 12.9359 45.953 12.9199C45.777 12.9039 45.601 12.8879 45.425 12.8719C45.265 12.8399 45.097 12.7999 44.921 12.7519C44.617 12.6719 44.329 12.5359 44.057 12.3439C43.801 12.1519 43.673 11.9759 43.673 11.8159C43.673 11.7679 43.689 11.6959 43.721 11.5999C43.881 11.6799 44.025 11.7279 44.153 11.7439C44.185 11.7119 44.193 11.6719 44.177 11.6239C44.177 11.5599 44.185 11.5039 44.201 11.4559C44.249 11.2799 44.313 11.1359 44.393 11.0239C44.473 10.8959 44.569 10.7759 44.681 10.6639C45.097 10.4399 45.473 10.3119 45.809 10.2799L46.433 10.2319C46.657 10.2159 46.881 10.2079 47.105 10.2079C47.345 10.2079 47.601 10.2079 47.873 10.2079H48.353L53.177 10.0639C53.641 10.0479 54.129 10.0239 54.641 9.99186C55.169 9.95986 55.673 9.93586 56.153 9.91986C56.649 9.88786 57.105 9.86386 57.521 9.84786C57.937 9.83186 58.273 9.82386 58.529 9.82386C59.025 9.82386 59.529 9.84786 60.041 9.89586L60.521 9.96786C60.601 9.99986 60.681 10.0639 60.761 10.1599C60.857 10.2559 60.969 10.3679 61.097 10.4959C61.385 10.5759 61.641 10.6319 61.865 10.6639C62.105 10.6799 62.305 10.7199 62.465 10.7839L62.657 10.9519ZM48.185 10.8079C48.185 10.8399 48.209 10.8559 48.257 10.8559C48.433 10.8559 48.601 10.8559 48.761 10.8559C48.937 10.8399 49.113 10.7999 49.289 10.7359C49.305 10.7359 49.337 10.7039 49.385 10.6399C49.305 10.6239 49.249 10.6079 49.217 10.5919C49.201 10.5599 49.161 10.5599 49.097 10.5919C48.969 10.5919 48.849 10.5999 48.737 10.6159C48.625 10.6159 48.505 10.6239 48.377 10.6399C48.329 10.6399 48.281 10.6639 48.233 10.7119C48.201 10.7279 48.185 10.7599 48.185 10.8079ZM51.353 11.2399C51.433 11.1919 51.513 11.1279 51.593 11.0479C51.689 10.9519 51.785 10.8639 51.881 10.7839L48.809 11.0959L48.593 11.1439C48.721 11.1759 48.905 11.2079 49.145 11.2399C49.401 11.2559 49.593 11.2639 49.721 11.2639H50.825C50.857 11.2639 50.929 11.2639 51.041 11.2639C51.169 11.2639 51.273 11.2559 51.353 11.2399ZM45.305 12.4399C45.417 12.4719 45.505 12.4959 45.569 12.5119C45.649 12.5279 45.777 12.5359 45.953 12.5359C45.841 12.4399 45.761 12.3839 45.713 12.3679C45.665 12.3359 45.601 12.3039 45.521 12.2719C45.441 12.2399 45.337 12.2159 45.209 12.1999C45.097 12.1679 44.985 12.1359 44.873 12.1039C44.905 12.0239 44.929 11.9599 44.945 11.9119C44.977 11.8639 45.009 11.7999 45.041 11.7199C44.945 11.6559 44.857 11.6399 44.777 11.6719C44.713 11.6879 44.649 11.7199 44.585 11.7679C44.553 11.7999 44.521 11.8319 44.489 11.8639C44.457 11.8959 44.425 11.9279 44.393 11.9599C44.409 12.0399 44.449 12.1599 44.513 12.3199L45.305 12.4399ZM62.225 12.2479C62.225 12.1839 62.305 12.1039 62.465 12.0079L62.033 11.6479C61.825 11.7599 61.649 11.8399 61.505 11.8879C61.377 11.9359 61.265 11.9759 61.169 12.0079C61.137 12.0879 61.153 12.1519 61.217 12.1999C61.297 12.2319 61.361 12.2559 61.409 12.2719C61.521 12.3039 61.649 12.3199 61.793 12.3199C61.953 12.3039 62.097 12.2799 62.225 12.2479ZM46.625 12.4639C46.689 12.4479 46.721 12.3999 46.721 12.3199C46.721 12.2879 46.697 12.2479 46.649 12.1999C46.601 12.1839 46.545 12.1679 46.481 12.1519C46.433 12.1359 46.385 12.1279 46.337 12.1279C46.225 12.1119 46.121 12.0879 46.025 12.0559C45.945 12.0239 45.857 12.0239 45.761 12.0559C45.873 12.2159 46.017 12.3279 46.193 12.3919C46.369 12.4559 46.513 12.4799 46.625 12.4639ZM57.377 12.2719C57.489 12.3039 57.617 12.3119 57.761 12.2959C57.905 12.2799 58.041 12.2319 58.169 12.1519C58.041 12.1199 57.865 12.1119 57.641 12.1279C57.433 12.1279 57.241 12.1439 57.065 12.1759C57.097 12.2559 57.145 12.2879 57.209 12.2719C57.289 12.2559 57.345 12.2559 57.377 12.2719ZM59.273 20.5759C59.465 20.6079 59.609 20.6319 59.705 20.6479C59.817 20.6799 59.889 20.7119 59.921 20.7439C60.017 20.9199 60.057 21.1039 60.041 21.2959C59.977 21.4879 59.905 21.6799 59.825 21.8719C59.745 22.0799 59.633 22.2479 59.489 22.3759C59.393 22.4559 59.305 22.5199 59.225 22.5679C59.161 22.6319 59.089 22.6799 59.009 22.7119C58.929 22.7439 58.857 22.7759 58.793 22.8079C58.745 22.8399 58.681 22.8719 58.601 22.9039C58.473 22.9359 58.321 22.9519 58.145 22.9519C57.985 22.9519 57.721 22.9039 57.353 22.8079C57.305 22.8879 57.201 22.9439 57.041 22.9759C56.897 23.0239 56.737 23.0639 56.561 23.0959C56.001 23.1119 55.401 23.1039 54.761 23.0719C54.137 23.0559 53.609 23.0319 53.177 22.9999C52.409 22.9359 51.705 22.7919 51.065 22.5679C50.425 22.3599 49.833 21.9679 49.289 21.3919C49.081 21.1679 48.881 20.9279 48.689 20.6719C48.497 20.4159 48.377 20.1759 48.329 19.9519C48.137 19.8719 48.009 19.7999 47.945 19.7359C47.881 19.6879 47.833 19.6399 47.801 19.5919C47.673 19.4159 47.553 19.2479 47.441 19.0879C47.329 18.9119 47.233 18.7599 47.153 18.6319C46.993 18.3919 46.945 18.1679 47.009 17.9599C47.089 17.8479 47.185 17.8159 47.297 17.8639C47.377 17.7679 47.449 17.6799 47.513 17.5999C47.577 17.5039 47.649 17.3759 47.729 17.2159C47.873 17.1359 48.009 17.0719 48.137 17.0239C48.473 16.8959 48.737 16.8639 48.929 16.9279C49.137 16.9759 49.329 17.1119 49.505 17.3359L52.097 17.1439C52.417 17.1119 52.801 17.1439 53.249 17.2399C53.537 17.2559 53.737 17.2399 53.849 17.1919C53.961 17.1279 54.057 17.0719 54.137 17.0239L56.369 16.9759C56.385 16.8159 56.393 16.6559 56.393 16.4959C56.393 16.3359 56.393 16.1759 56.393 16.0159C55.449 16.0319 54.425 16.0639 53.321 16.1119C52.217 16.1439 51.145 16.2079 50.105 16.3039C49.769 16.3519 49.409 16.3759 49.025 16.3759C48.705 16.3759 48.409 16.2639 48.137 16.0399C48.009 16.0079 47.873 15.9999 47.729 16.0159C47.601 16.0159 47.473 16.0319 47.345 16.0639C47.217 15.9839 47.081 15.9039 46.937 15.8239C46.793 15.7439 46.705 15.6319 46.673 15.4879C46.641 15.4079 46.625 15.3439 46.625 15.2959C46.641 15.2319 46.657 15.1679 46.673 15.1039C46.721 14.9599 46.833 14.9279 47.009 15.0079L47.081 14.3359C47.161 14.2079 47.257 14.1199 47.369 14.0719C47.497 14.0239 47.609 14.0079 47.705 14.0239C47.849 14.0399 47.969 14.0559 48.065 14.0719C48.161 14.0879 48.257 14.0959 48.353 14.0959C48.449 14.0959 48.553 14.0959 48.665 14.0959C48.777 14.0799 48.921 14.0639 49.097 14.0479C49.593 13.9999 50.129 13.9519 50.705 13.9039C51.281 13.8559 51.865 13.8159 52.457 13.7839C53.065 13.7519 53.665 13.7279 54.257 13.7119C54.865 13.6799 55.449 13.6559 56.009 13.6399H57.137H57.977L58.073 13.6159C58.393 13.5359 58.649 13.5119 58.841 13.5439C58.921 13.5439 58.985 13.5519 59.033 13.5679C59.081 13.5679 59.129 13.5759 59.177 13.5919C59.321 13.6399 59.441 13.7359 59.537 13.8799C59.633 14.0079 59.689 14.1279 59.705 14.2399C59.721 14.3359 59.721 14.4959 59.705 14.7199L59.609 15.3199C59.577 15.4479 59.513 15.5039 59.417 15.4879C59.385 15.3919 59.361 15.2399 59.345 15.0319C59.329 14.8239 59.345 14.6639 59.393 14.5519C59.409 14.4879 59.417 14.4079 59.417 14.3119C59.433 14.2159 59.425 14.1359 59.393 14.0719C59.313 14.0719 59.241 14.0879 59.177 14.1199C59.113 14.1359 59.057 14.1999 59.009 14.3119C58.961 14.4239 58.913 14.5999 58.865 14.8399C58.833 15.0639 58.801 15.2639 58.769 15.4399C58.737 15.5679 58.713 15.6959 58.697 15.8239C58.681 15.9519 58.673 16.0799 58.673 16.2079C58.737 16.2079 58.793 16.2479 58.841 16.3279C58.873 16.4719 58.881 16.6239 58.865 16.7839C58.849 16.9279 58.841 17.0719 58.841 17.2159L59.009 17.3599L59.153 17.5999C59.201 17.7279 59.201 17.8879 59.153 18.0799C59.137 18.1119 59.113 18.1599 59.081 18.2239C59.065 18.2719 59.009 18.3119 58.913 18.3439C58.897 18.3759 58.873 18.4319 58.841 18.5119C58.825 18.5919 58.825 18.6959 58.841 18.8239C58.713 18.9999 58.593 19.1199 58.481 19.1839C58.385 19.2319 58.241 19.2559 58.049 19.2559C57.809 19.2719 57.513 19.2719 57.161 19.2559C56.809 19.2399 56.441 19.2239 56.057 19.2079C55.881 19.2079 55.609 19.2159 55.241 19.2319C54.873 19.2319 54.457 19.2399 53.993 19.2559C53.529 19.2719 53.049 19.2959 52.553 19.3279C52.057 19.3599 51.593 19.3839 51.161 19.3999L51.689 19.7599C52.105 20.0159 52.513 20.1759 52.913 20.2399C53.313 20.3039 53.817 20.3199 54.425 20.2879C54.857 20.3839 55.313 20.4319 55.793 20.4319C56.273 20.4319 56.705 20.4079 57.089 20.3599C57.137 20.3439 57.209 20.3039 57.305 20.2399C57.401 20.1919 57.497 20.1359 57.593 20.0719C57.705 20.0239 57.809 19.9759 57.905 19.9279C58.017 19.8799 58.105 19.8559 58.169 19.8559C58.297 19.8239 58.425 19.8079 58.553 19.8079C58.681 19.8239 58.809 19.8719 58.937 19.9519C59.209 20.0799 59.321 20.2879 59.273 20.5759ZM52.409 14.3119C52.457 14.3439 52.497 14.3519 52.529 14.3359C52.577 14.3039 52.593 14.2559 52.577 14.1919C52.497 14.1279 52.401 14.0879 52.289 14.0719C52.193 14.0559 52.089 14.0479 51.977 14.0479C51.561 14.0159 51.145 14.0159 50.729 14.0479C50.329 14.0639 49.921 14.1359 49.505 14.2639C49.601 14.2959 49.665 14.3119 49.697 14.3119C49.857 14.3439 50.025 14.3599 50.201 14.3599C50.393 14.3599 50.577 14.3599 50.753 14.3599C51.041 14.3599 51.321 14.3439 51.593 14.3119C51.865 14.2799 52.137 14.2799 52.409 14.3119ZM55.049 14.9599C55.001 14.9759 54.961 15.0079 54.929 15.0559C54.913 15.1039 54.897 15.1519 54.881 15.1999C55.009 15.1999 55.105 15.1999 55.169 15.1999C55.249 15.1999 55.337 15.1919 55.433 15.1759C55.545 15.1599 55.593 15.1199 55.577 15.0559C55.577 15.0239 55.537 14.9919 55.457 14.9599C55.409 14.9439 55.345 14.9439 55.265 14.9599C55.185 14.9599 55.113 14.9599 55.049 14.9599ZM58.337 15.1999C58.273 15.4079 58.233 15.7039 58.217 16.0879C58.201 16.4559 58.209 16.7679 58.241 17.0239C58.321 17.0399 58.377 16.9839 58.409 16.8559C58.425 16.5839 58.433 16.3279 58.433 16.0879C58.449 15.8319 58.457 15.5759 58.457 15.3199C58.457 15.3039 58.441 15.2879 58.409 15.2719C58.377 15.2559 58.353 15.2319 58.337 15.1999ZM56.297 15.6079C56.313 15.6079 56.345 15.5759 56.393 15.5119C56.313 15.4959 56.257 15.4799 56.225 15.4639C56.209 15.4319 56.169 15.4319 56.105 15.4639C55.977 15.4639 55.857 15.4719 55.745 15.4879C55.633 15.4879 55.513 15.4959 55.385 15.5119C55.337 15.5119 55.289 15.5359 55.241 15.5839C55.209 15.5999 55.193 15.6319 55.193 15.6799C55.193 15.7119 55.217 15.7279 55.265 15.7279C55.441 15.7279 55.609 15.7279 55.769 15.7279C55.945 15.7119 56.121 15.6719 56.297 15.6079ZM57.281 16.9039C57.249 16.9359 57.217 17.0079 57.185 17.1199C57.361 17.1839 57.505 17.1919 57.617 17.1439C57.745 17.0799 57.889 17.0319 58.049 16.9999C58.049 16.8079 58.049 16.6559 58.049 16.5439C58.065 16.4159 58.065 16.3199 58.049 16.2559C58.049 16.1759 58.033 16.1119 58.001 16.0639C57.985 15.9999 57.961 15.9359 57.929 15.8719C57.849 15.8879 57.809 15.9359 57.809 16.0159C57.809 16.0799 57.785 16.1359 57.737 16.1839C57.641 16.1999 57.553 16.2399 57.473 16.3039C57.409 16.3679 57.385 16.4719 57.401 16.6159C57.417 16.7279 57.377 16.8239 57.281 16.9039ZM51.641 20.3359C51.753 20.3359 51.841 20.3199 51.905 20.2879C51.969 20.2719 52.017 20.2559 52.049 20.2399C51.921 20.2079 51.777 20.1359 51.617 20.0239C51.457 19.9279 51.337 19.8399 51.257 19.7599C51.113 19.6479 50.969 19.5279 50.825 19.3999C50.681 19.2719 50.521 19.1119 50.345 18.9199C50.185 18.7279 49.993 18.5039 49.769 18.2479C49.561 17.9919 49.305 17.6719 49.001 17.2879L48.929 17.3119C48.913 17.3919 48.897 17.4719 48.881 17.5519C48.881 17.6159 48.905 17.6879 48.953 17.7679L49.817 18.8479C49.721 18.8159 49.633 18.7759 49.553 18.7279C49.473 18.6799 49.393 18.6319 49.313 18.5839C49.345 18.6959 49.385 18.8079 49.433 18.9199C49.481 19.0319 49.553 19.1279 49.649 19.2079C49.793 19.3519 49.913 19.4559 50.009 19.5199C50.121 19.5999 50.257 19.7039 50.417 19.8319C50.529 19.8959 50.697 19.9839 50.921 20.0959C51.161 20.2239 51.401 20.3039 51.641 20.3359ZM56.705 18.2479C56.401 18.2159 56.105 18.2159 55.817 18.2479C55.529 18.2799 55.209 18.3199 54.857 18.3679C54.921 18.4479 54.993 18.4879 55.073 18.4879C55.633 18.5199 56.161 18.5199 56.657 18.4879C56.705 18.4879 56.729 18.4879 56.729 18.4879C56.745 18.4719 56.769 18.4559 56.801 18.4399C56.865 18.4399 56.913 18.4079 56.945 18.3439C56.913 18.2799 56.833 18.2479 56.705 18.2479ZM58.097 18.6079C57.825 18.6719 57.537 18.7119 57.233 18.7279C56.929 18.7439 56.641 18.7519 56.369 18.7519V18.8959C56.641 19.0079 56.969 19.0479 57.353 19.0159C57.753 18.9679 58.081 18.8799 58.337 18.7519L58.097 18.6079ZM50.321 20.3119C50.369 20.2319 50.353 20.1519 50.273 20.0719C50.065 19.8959 49.865 19.7279 49.673 19.5679C49.481 19.4079 49.281 19.2479 49.073 19.0879C49.057 19.1039 49.041 19.1119 49.025 19.1119C48.961 19.1119 48.929 19.1119 48.929 19.1119C49.057 19.2879 49.265 19.4959 49.553 19.7359C49.841 19.9759 50.097 20.1679 50.321 20.3119ZM49.889 20.5279C49.921 20.4959 49.921 20.4399 49.889 20.3599C49.857 20.3279 49.801 20.2799 49.721 20.2159C49.657 20.1679 49.609 20.1199 49.577 20.0719C49.513 20.0559 49.417 20.0799 49.289 20.1439C49.369 20.2239 49.441 20.2879 49.505 20.3359C49.569 20.3839 49.641 20.4399 49.721 20.5039C49.785 20.5519 49.817 20.5759 49.817 20.5759C49.833 20.5759 49.857 20.5599 49.889 20.5279ZM56.633 21.1279C56.633 21.1599 56.649 21.1919 56.681 21.2239C56.809 21.3039 56.913 21.2559 56.993 21.0799C56.881 21.0479 56.785 21.0399 56.705 21.0559L56.633 21.1279ZM59.105 22.2559C59.233 22.1759 59.297 22.0959 59.297 22.0159C59.313 21.9359 59.257 21.8399 59.129 21.7279C59.001 21.5999 58.905 21.5199 58.841 21.4879C58.761 21.5999 58.721 21.6879 58.721 21.7519C58.673 21.7679 58.625 21.7999 58.577 21.8479C58.545 21.8959 58.497 21.9199 58.433 21.9199C58.305 21.9199 58.201 21.9439 58.121 21.9919C58.057 22.0559 57.985 22.1359 57.905 22.2319C57.873 22.2159 57.833 22.1919 57.785 22.1599C57.737 22.1439 57.689 22.1199 57.641 22.0879C57.609 22.0719 57.569 22.0479 57.521 22.0159C57.473 21.9999 57.425 21.9839 57.377 21.9679C57.473 22.1439 57.609 22.2959 57.785 22.4239C57.977 22.5519 58.233 22.6159 58.553 22.6159C58.633 22.5839 58.721 22.5359 58.817 22.4719C58.913 22.4079 59.009 22.3359 59.105 22.2559ZM56.753 21.8959C56.801 21.9759 56.849 22.0079 56.897 21.9919C56.945 21.9919 57.001 21.9759 57.065 21.9439C57.033 21.8639 56.993 21.7919 56.945 21.7279C56.913 21.6639 56.881 21.5999 56.849 21.5359C56.705 21.6639 56.673 21.7839 56.753 21.8959ZM53.369 22.6639C53.785 22.6959 54.193 22.7039 54.593 22.6879C55.009 22.6879 55.425 22.6239 55.841 22.4959C55.745 22.4639 55.681 22.4479 55.649 22.4479C55.329 22.3999 54.977 22.3759 54.593 22.3759C54.305 22.3759 54.025 22.3839 53.753 22.3999C53.481 22.4319 53.209 22.4319 52.937 22.3999C52.889 22.3679 52.841 22.3599 52.793 22.3759C52.761 22.4079 52.753 22.4559 52.769 22.5199C52.849 22.5839 52.937 22.6239 53.033 22.6399C53.145 22.6559 53.257 22.6639 53.369 22.6639ZM82.7356 5.47986C82.8556 6.60786 82.8316 7.78386 82.8076 8.98386C82.8076 9.34386 82.7836 9.67986 82.7836 9.99186C82.5436 9.99186 82.3516 9.96786 82.2076 9.96786C81.7516 9.96786 80.3596 10.2319 80.0236 10.4479C79.7356 10.6399 79.6156 10.9759 79.6156 11.1199C79.6156 11.5519 79.9516 12.0079 80.2876 12.3199C80.6476 12.6559 81.1756 13.1119 81.5836 13.0639C81.7996 13.0399 82.2316 12.9199 82.6876 12.7999C82.6876 13.0639 82.6876 13.3279 82.7116 13.6399C82.7836 15.4639 83.3116 16.7599 83.7196 17.8879C84.9196 16.2079 85.9036 15.4639 85.9756 12.9919C86.0716 9.91986 85.9276 6.79986 85.8316 4.30386C85.8076 3.82386 85.7356 3.48786 85.4476 3.07986C85.1596 2.67186 84.2956 1.85586 83.8156 1.51986C83.5756 1.35186 83.0956 1.13586 82.7836 1.23186C82.3756 1.35186 81.6316 1.78386 81.3676 2.21586C81.2236 2.45586 81.3916 2.74386 81.6556 3.07986C82.3036 3.91986 82.6156 4.39986 82.7356 5.47986ZM75.8956 11.3359C78.3436 11.1919 80.1676 9.70386 80.1676 7.63986C80.1676 5.50386 77.9356 3.79986 75.6796 3.55986C75.2236 3.51186 74.8156 3.72786 74.6476 4.06386C72.9196 4.63986 71.3116 6.17586 71.3116 7.78386C71.3116 9.84786 73.6396 11.4799 75.8956 11.3359ZM75.4396 6.10386C75.5116 6.15186 75.6316 6.24786 75.7516 6.27186C76.4236 6.41586 77.1916 6.79986 77.2156 7.42386C77.2396 8.21586 76.4956 8.64786 75.6796 8.64786C75.0796 8.64786 74.2156 8.26386 74.2156 7.54386C74.2156 6.87186 74.8636 6.22386 75.4396 6.10386ZM79.3036 14.0959C79.5916 13.8079 79.9036 13.3759 79.9036 13.0159C79.9036 12.8239 79.6396 12.5119 79.2796 12.2719C78.8716 11.9839 78.5116 11.9119 78.1996 11.9359C77.8636 11.9599 77.6236 12.1279 77.2396 12.1519C76.4476 12.1999 73.7356 12.4159 72.9916 12.3439C72.5356 12.2959 72.1516 12.1519 71.7436 11.9119C71.1196 11.5279 70.7596 11.4319 70.1836 12.0559C69.6556 12.6079 69.5836 12.9919 69.8956 13.4239C70.1116 13.7359 70.5676 14.2399 70.8076 14.4319C71.4316 14.9119 72.0556 15.0799 72.7516 15.1519C73.1356 15.1999 73.6156 15.1759 74.1436 15.1519C73.3756 16.0159 72.4876 16.9279 71.6236 17.5039C70.7836 18.0559 69.6076 18.5599 68.8876 18.5359C69.4396 19.0639 70.4476 19.5199 71.2636 19.6159C72.2716 19.7359 73.5916 19.8079 75.0796 18.4399C76.0156 17.5999 77.3356 15.9199 78.3436 14.5759C78.7036 14.4799 79.0636 14.3359 79.3036 14.0959ZM86.6716 20.3839C86.1916 19.5679 85.3996 18.8959 84.4636 19.0399C83.9836 19.1119 82.0876 19.2799 81.5836 19.2799C81.2716 19.2799 81.1516 19.2559 80.7916 18.9679C80.3116 18.5839 79.6396 17.9119 78.8956 17.1679C78.3676 16.6399 77.7196 16.5199 76.9516 17.0959C76.3996 17.5039 76.0156 18.4399 76.5436 19.1119C76.9756 19.6639 77.9116 20.6239 78.7996 21.3679C79.7836 22.1839 80.4316 22.5439 81.1516 22.5919C81.7516 22.6399 82.3756 22.6639 83.0716 22.6399C84.5596 22.5919 85.1836 22.4959 86.3836 21.7519C86.9596 21.3919 87.0796 21.0799 86.6716 20.3839ZM102.551 15.0319C103.607 13.9039 104.471 12.2239 104.519 10.9519C104.567 9.31986 104.591 6.67986 104.591 5.11986C104.591 3.96786 104.471 3.24786 103.967 2.59986C103.607 2.11986 103.295 1.83186 102.623 1.35186C102.143 1.01586 102.023 1.03986 101.495 1.32786C101.327 1.42386 100.727 1.97586 100.559 2.16786C100.271 2.50386 100.319 2.67186 100.679 3.19986C101.231 4.01586 101.375 4.23186 101.279 5.26386C101.255 5.64786 101.207 6.19986 101.183 6.79986C100.535 6.77586 99.8633 6.79986 99.5273 6.82386C98.8073 6.87186 97.7033 7.06386 97.6313 7.71186C97.5833 8.09586 97.7993 8.50386 98.0633 8.76786C98.6633 9.36786 99.4793 9.94386 100.271 9.96786C100.535 9.96786 100.823 9.96786 101.111 9.94386C101.087 10.8079 101.159 11.6959 101.303 12.4639C101.471 13.3759 102.047 13.9999 102.287 14.8399C101.519 14.3599 100.631 14.0479 99.7433 14.0239C99.5273 14.0239 99.1193 14.0719 98.8793 14.2159C95.1113 14.5279 92.4713 16.0879 92.4713 18.8479C92.4713 20.1679 93.6233 21.4639 94.6313 21.7999C95.7593 22.5199 97.2233 22.9519 98.7113 22.9519C102.095 22.9519 104.591 21.5119 104.591 18.7999C104.591 17.2639 103.727 15.8959 102.551 15.0319ZM94.5593 11.1919C94.9433 11.6959 95.4233 12.3199 95.6393 12.5599C96.4553 13.5199 97.4873 13.7839 98.4233 13.3279C99.3113 12.8959 99.4073 11.3839 98.4233 10.4239C97.9913 10.0159 96.6953 9.29586 96.0473 8.98386C96.5753 8.11986 97.0553 7.30386 97.3673 6.72786C98.0393 5.45586 98.2073 5.07186 97.7273 4.42386C97.4633 4.06386 97.1033 3.84786 96.6713 3.84786C96.3593 3.84786 95.9513 3.96786 95.7353 3.99186C94.7273 4.11186 92.4953 4.25586 91.9913 4.25586C91.4153 4.25586 91.1033 4.18386 90.5273 3.89586C90.1913 3.72786 89.9753 3.70386 89.6873 3.96786C89.4473 4.18386 89.1353 4.51986 88.9913 4.66386C88.6793 4.97586 88.7513 5.19186 88.9433 5.47986C89.4233 6.17586 90.1193 6.96786 91.2233 6.96786C91.8473 6.96786 92.8313 6.87186 93.5513 6.82386C92.5433 8.64786 90.5273 11.1679 89.3753 11.9839C88.9673 12.2719 88.4393 12.5599 87.7913 12.6319C87.5753 12.6559 87.6233 12.8479 87.7673 12.9679C89.2793 14.2399 91.1513 14.5759 92.8313 13.2079C93.2633 12.8479 93.8873 12.0799 94.5593 11.1919ZM98.9273 20.0239C97.1753 20.0239 96.1193 19.3759 96.1673 18.3679C96.2153 17.4799 97.6553 16.6399 99.2633 16.5679C100.463 17.0959 101.351 17.5999 101.351 18.5839C101.351 19.5919 100.151 20.0239 98.9273 20.0239ZM125.583 5.09586C125.559 3.31986 125.223 2.67186 123.783 1.54386C123.015 0.943859 122.679 1.03986 121.911 1.73586C121.191 2.38386 121.047 2.74386 121.551 3.34386C121.983 3.87186 122.199 4.42386 122.199 5.64786C122.199 6.91986 122.199 8.86386 122.175 10.9039C121.887 10.8799 121.599 10.8559 121.383 10.8559C121.071 10.8559 120.735 10.8559 120.399 10.8799C120.399 9.58386 120.399 8.23986 120.375 7.11186C120.351 5.35986 120.063 4.61586 118.647 3.48786C117.903 2.88786 117.519 2.98386 116.727 3.65586C116.031 4.25586 115.815 4.66386 116.319 5.26386C116.727 5.76786 117.015 6.27186 117.015 7.49586C117.015 10.2319 116.895 14.1919 116.895 17.1199C116.895 18.5359 117.663 20.3839 117.879 21.6559C118.575 20.8879 119.127 19.8079 119.703 18.7519C120.135 17.9599 120.279 16.6639 120.327 15.6319L120.375 14.0719C120.711 14.1199 121.047 14.1439 121.311 14.1199C121.551 14.1199 121.839 14.0959 122.151 14.0479C122.127 15.7519 122.079 17.3599 122.055 18.5119C122.031 19.3039 122.175 20.2159 122.391 20.9359C122.631 21.7519 122.823 22.4239 122.895 23.0959C124.719 21.2239 125.607 19.2799 125.607 16.7839C125.607 14.5759 125.631 8.47986 125.583 5.09586ZM116.175 13.7599C115.503 13.8799 114.471 13.9999 114.087 14.0239C113.415 14.0719 112.407 14.0479 111.495 14.0239C111.495 12.7039 111.447 11.1199 111.423 9.94386C112.839 9.94386 114.447 9.84786 115.071 9.65586C115.767 9.43986 115.863 9.03186 115.599 8.43186C115.383 7.99986 114.951 7.35186 114.591 7.01586C114.255 6.70386 113.919 6.58386 113.463 6.65586C112.215 6.82386 111.567 6.91986 110.223 6.91986C109.743 6.91986 109.407 6.84786 109.047 6.72786C108.711 6.60786 108.303 6.87186 108.111 7.18386C107.895 7.54386 107.631 7.97586 107.607 8.38386C107.583 8.81586 107.727 9.12786 107.967 9.36786C108.039 10.9999 108.039 12.5599 108.135 14.2159V14.3839L108.111 14.4079C107.559 14.9599 107.487 15.7759 107.799 16.5679C108.039 17.1919 108.615 17.5999 109.263 17.5519C109.863 17.5039 112.575 17.3599 113.631 17.3119C114.807 17.2639 115.671 16.6399 116.151 15.6079C116.343 15.1999 116.535 14.5759 116.607 14.1199C116.655 13.8319 116.511 13.7119 116.175 13.7599Z" fill="#FF8902"/>
<path d="M147.231 17.0239C147.007 16.8319 146.687 16.6239 146.255 16.7359C146.111 16.7839 145.903 16.8159 145.711 16.8479C145.695 15.4079 145.679 13.8879 145.679 12.7999C145.679 11.6159 145.455 11.1839 144.447 10.4319C143.903 10.0319 143.727 10.1119 143.167 10.5599C142.623 11.0079 142.447 11.1999 142.831 11.6479C143.119 11.9839 143.359 12.3199 143.375 13.1519C143.423 15.1519 143.327 19.4559 143.279 21.6159C143.247 22.7199 143.791 23.9519 144.447 24.8159C144.495 24.3039 145.071 23.4559 145.375 22.7359C145.631 22.1279 145.791 21.2959 145.775 20.6079C145.775 20.2559 145.759 19.7599 145.743 19.1839C146.095 19.1839 146.463 19.1839 146.735 19.1679C147.439 19.1359 148.159 18.7519 148.159 18.2559C148.159 17.9519 147.583 17.3279 147.231 17.0239ZM140.159 17.3759C140.447 16.7999 140.671 16.2079 140.831 15.6479C141.055 14.8479 141.071 14.4479 140.591 13.9679C140.239 13.6159 139.855 13.3759 139.503 13.1999C139.215 13.0559 139.087 13.0719 138.863 13.1999C138.623 13.3439 138.287 13.7119 138.207 13.9039C138.127 14.0959 138.143 14.0959 138.399 14.4159C138.623 14.7039 138.639 14.9119 138.447 15.3919C137.695 17.2639 136.575 19.0719 135.023 20.2719C134.735 20.4959 134.383 20.6559 134.127 20.6559C133.919 20.6559 134.015 20.7679 134.255 20.9119C134.799 21.2319 135.487 21.3599 136.063 21.3439C137.007 21.3119 137.455 21.1679 138.207 20.3999C138.511 20.0959 138.863 19.6319 139.215 19.0879C139.615 19.5359 139.999 20.0479 140.223 20.3519C140.751 21.0879 141.647 21.4879 142.255 21.1199C142.943 20.7039 142.911 19.6639 142.207 18.8319C141.823 18.3679 140.815 17.6959 140.159 17.3759ZM160.117 15.1359C159.893 14.9439 159.573 14.7359 159.141 14.8479L158.661 14.9439L158.709 12.8319C158.725 12.0639 158.613 11.5839 158.277 11.1519C158.037 10.8319 157.813 10.6399 157.365 10.3199C157.045 10.0959 156.965 10.1119 156.613 10.3039C156.501 10.3679 156.021 10.7359 155.909 10.8639C155.717 11.0879 155.749 11.1999 155.989 11.5519C156.357 12.0959 156.421 12.2399 156.389 12.9279C156.341 13.8879 156.229 15.3439 156.245 16.1599C156.277 17.2319 156.309 18.1599 156.741 19.0399C156.309 18.8639 155.845 18.7679 155.333 18.7679C155.189 18.7679 154.917 18.7999 154.757 18.8959C152.485 19.1039 150.533 20.1439 150.677 21.9839C150.741 22.7679 151.237 23.6799 152.037 23.9519C152.789 24.4319 153.813 24.7199 154.805 24.7199C156.901 24.7199 158.533 23.7599 158.597 22.0479C158.629 20.9279 158.181 19.9999 157.397 19.4239C157.909 18.8319 158.309 17.9679 158.453 17.4559C158.469 17.3759 158.501 17.2479 158.517 17.0879C158.869 17.0879 159.285 17.0879 159.589 17.0719C160.309 17.0399 161.013 16.7039 161.013 16.2559C161.013 15.9519 160.469 15.4399 160.117 15.1359ZM152.453 16.7999C152.709 17.1519 153.061 17.5359 153.189 17.6959C153.749 18.3519 154.421 18.4319 154.917 18.2079C155.445 17.9679 155.637 16.9439 155.045 16.3039C154.789 16.0319 154.069 15.6159 153.589 15.3919C153.957 14.8959 154.293 14.4479 154.517 14.1119C155.077 13.2959 154.997 13.0719 154.629 12.5439C154.437 12.2719 154.213 12.1759 153.925 12.1759C153.717 12.1759 153.445 12.2399 153.301 12.2559C152.629 12.3359 151.173 12.3999 150.757 12.3679C150.373 12.3359 150.165 12.3199 149.781 12.1279C149.557 12.0159 149.413 11.9999 149.221 12.1759C149.061 12.3199 148.853 12.5439 148.757 12.6399C148.549 12.8479 148.597 12.9919 148.725 13.1839C149.045 13.6479 149.557 14.0799 150.293 14.1759C150.645 14.2239 151.269 14.1599 151.925 14.1279C151.045 15.3119 149.701 16.6079 148.917 17.0879C148.629 17.2639 148.229 17.4399 147.861 17.4879C147.749 17.5039 147.765 17.5999 147.845 17.6799C148.165 17.9999 148.613 18.3199 148.981 18.4479C149.781 18.7199 150.501 18.6079 151.285 18.0159C151.573 17.7919 152.005 17.3439 152.453 16.7999ZM154.773 22.7679C154.261 22.7519 153.637 22.6559 153.269 22.4479C153.029 22.2079 152.917 21.9359 152.933 21.6479C152.965 21.0559 154.133 20.5119 154.997 20.4639C155.765 20.7519 156.389 21.0879 156.389 21.8239C156.389 22.5279 155.589 22.7999 154.773 22.7679ZM171.34 11.1679C171.1 10.8479 170.86 10.6079 170.524 10.3519C170.22 10.1279 170.076 10.1279 169.692 10.3199C169.5 10.4159 169.164 10.6879 169.02 10.8799C168.844 11.1199 168.892 11.2319 169.1 11.5679C169.372 12.0159 169.404 12.2399 169.388 12.9279C169.356 14.0799 169.324 14.9599 169.26 15.6959C167.82 16.0159 165.884 16.1759 164.108 16.2399C164.124 15.6159 164.124 14.4799 164.124 13.8879C164.124 13.4079 163.74 12.8319 163.228 12.4479C162.86 12.1759 162.572 12.1439 162.332 12.2879C161.948 12.5119 161.692 12.7519 161.5 13.0879C161.292 13.4559 161.324 13.5999 161.516 13.8239C161.788 14.1439 161.82 14.5119 161.836 14.8639C161.852 15.3759 161.788 16.6239 161.708 17.2639C161.66 17.6319 162.172 18.3039 162.828 18.3359C163.66 18.3839 165.42 18.3039 166.732 18.1279C167.516 18.0159 168.684 17.6159 169.244 17.2639C169.26 17.4559 169.308 17.6479 169.356 17.8239C169.484 18.2559 169.74 18.5919 169.932 18.9599C169.708 18.9759 169.548 19.0399 169.356 19.1039C168.54 19.1039 166.54 19.1839 165.148 19.2479C164.924 18.8799 164.3 18.9599 163.74 19.0719C163.212 19.1839 162.716 19.4879 162.732 19.9199C162.748 20.0799 162.828 20.2079 162.956 20.3359C163.084 20.4799 163.212 20.6879 163.308 21.1199C163.404 21.5679 163.708 23.0879 163.756 23.2799C163.98 24.3679 164.588 24.6879 165.132 24.6239C165.244 24.6079 165.34 24.5439 165.42 24.4639C167.5 24.4319 169.596 24.4319 170.124 24.4319C170.812 24.4319 171.276 23.9199 171.26 23.2799C171.26 23.1359 171.18 22.9919 171.052 22.8799C171.18 22.1599 171.324 21.0719 171.388 20.3679C171.564 20.2239 171.644 20.0159 171.564 19.6799C171.5 19.3919 171.292 19.1039 170.7 18.9919C171.212 18.3039 171.58 17.4559 171.596 16.7839C171.628 15.6959 171.644 14.4799 171.644 12.8319C171.644 12.0639 171.676 11.5999 171.34 11.1679ZM169.052 20.9919H169.1L169.02 22.5119C168.14 22.5599 166.732 22.6559 165.74 22.7039C165.692 22.2719 165.612 21.6639 165.516 21.0559C167.068 20.9759 168.22 20.9279 169.052 20.9919ZM184.87 14.6559C184.47 14.6719 183.382 14.8479 183.382 15.2959C183.382 15.6959 183.654 16.1279 184.07 16.4319C184.454 16.7199 184.902 16.8319 185.446 16.7999C185.526 16.7999 185.606 16.7839 185.718 16.7839L185.686 17.1039C185.622 17.7279 185.606 18.3199 185.654 19.1039C185.702 19.7759 186.342 20.3359 186.63 20.9439C187.318 20.6239 187.942 19.3759 188.022 18.2559C188.086 17.3119 188.038 14.6399 188.086 13.3279C188.102 12.9439 188.07 12.3359 188.022 12.0319C187.958 11.5839 187.83 11.4239 187.478 11.0719C187.302 10.8959 186.678 10.4479 186.486 10.3679C186.326 10.3039 186.134 10.2559 185.91 10.3199C185.702 10.3839 185.366 10.6879 185.27 10.8319C185.142 11.0239 185.094 11.2159 185.174 11.3279C185.286 11.4719 185.414 11.6959 185.494 11.8079C185.718 12.1279 185.814 12.2879 185.814 12.6879C185.814 13.3919 185.814 14.0479 185.798 14.6399C185.446 14.6399 185.094 14.6559 184.87 14.6559ZM181.238 17.4879C181.494 17.8559 181.926 18.4159 182.086 18.5919C182.662 19.2639 183.766 19.2799 184.07 18.9599C184.454 18.5439 184.486 17.6959 183.974 17.0879C183.574 16.6079 182.71 16.2399 182.294 16.0799C182.742 15.4719 183.142 14.8799 183.398 14.4799C183.926 13.6639 183.894 13.3599 183.526 12.8319C183.334 12.5599 183.062 12.4319 182.774 12.4639C182.214 12.5119 180.198 12.6879 179.51 12.6559C179.126 12.6399 178.918 12.6079 178.534 12.4159C178.31 12.3039 178.166 12.2879 177.974 12.4639C177.814 12.6079 177.606 12.8319 177.51 12.9279C177.302 13.1359 177.35 13.3599 177.478 13.5519C177.798 14.0159 178.422 14.5439 179.158 14.5759C179.51 14.5919 180.15 14.5759 180.774 14.5439C179.926 15.7599 178.518 17.2479 177.718 17.7279C177.43 17.9039 177.078 17.9839 176.71 18.0319C176.598 18.0479 176.614 18.1759 176.694 18.2559C177.014 18.5759 177.462 18.9439 177.83 19.0719C178.63 19.3439 179.382 19.2159 180.166 18.6239C180.438 18.4159 180.822 17.9999 181.238 17.4879ZM188.662 22.7839C188.534 22.5119 188.31 22.1919 188.086 21.9839C187.798 21.7279 187.734 21.6799 187.19 21.9039C186.886 22.0319 186.374 22.0959 186.038 22.1119C185.414 22.1439 184.31 22.1279 183.926 22.0959C183.494 22.0639 183.27 22.0159 182.902 21.6479C182.454 21.1999 181.99 20.6239 181.51 20.0479C181.318 19.8239 181.046 19.7759 180.694 19.8239C180.438 19.8559 179.99 19.9679 179.622 20.0959C179.142 20.2559 178.934 20.3999 178.934 20.7679C178.934 21.0559 179.094 21.2319 179.334 21.3439C179.606 21.4719 179.894 21.7439 180.118 21.9839C180.422 22.3199 180.998 22.9599 181.51 23.5039C182.086 24.1119 182.374 24.2399 183.238 24.2879C183.798 24.3199 185.766 24.3679 186.23 24.3519C187.222 24.3199 187.686 24.3199 188.438 23.6799C188.758 23.4079 188.87 23.2319 188.662 22.7839ZM202.617 17.3599C202.281 17.0719 201.801 16.8479 201.321 16.7679C200.873 16.6879 200.441 16.6719 199.993 16.6719C199.833 16.6719 199.641 16.6719 199.401 16.6879L199.481 16.0479C199.529 15.7119 199.465 15.4399 199.225 15.3119C199.129 15.2639 198.985 15.2159 198.825 15.1839C199.257 14.7679 199.641 14.2399 199.673 13.5999C199.737 12.3839 198.457 10.7679 197.113 10.7679C196.921 10.7679 196.729 10.7999 196.601 10.8479C196.009 10.8159 195.129 11.1519 194.409 11.5199C193.689 11.8879 192.681 12.5919 192.569 13.5519C192.505 14.1439 192.905 14.7519 193.353 15.0879C193.481 15.1839 193.577 15.2479 193.689 15.2959C193.497 15.4079 193.337 15.5359 193.225 15.6479C193.097 15.7919 193.065 15.9519 193.177 16.1119C193.289 16.2719 193.385 16.5599 193.433 16.8799C192.281 16.9119 191.385 16.9279 190.713 16.9599C190.137 16.9919 189.289 17.6799 189.289 18.0639C189.289 18.2719 189.721 18.7359 190.121 18.8319C190.489 18.9279 190.873 18.9759 191.241 18.9599C192.937 18.8799 195.305 18.7519 196.169 18.7359C197.897 18.7039 200.057 18.6239 201.609 18.7359C202.265 18.7839 202.681 18.7999 202.889 18.2559C203.049 17.8239 202.985 17.6799 202.617 17.3599ZM195.449 12.8639C195.721 12.7359 196.105 12.5919 196.617 12.4959C196.745 12.4639 196.873 12.4479 196.969 12.4319C197.113 12.5439 197.257 12.6719 197.321 12.7039C197.465 12.7839 197.689 13.0719 197.673 13.3439C197.641 13.8879 197.097 14.0639 196.265 14.0639C195.897 14.0639 195.609 14.0159 195.449 13.9839C195.433 13.9679 195.417 13.9519 195.401 13.9519C195.145 13.8559 194.857 13.6799 194.857 13.4399C194.857 13.2479 195.097 13.0559 195.449 12.8639ZM196.105 16.8319C195.913 16.8319 195.737 16.8479 195.561 16.8479C195.529 16.4799 195.481 16.1439 195.385 15.8399C195.737 15.9039 196.137 15.9359 196.457 15.9359C196.713 15.9359 196.985 15.9199 197.273 15.8879C197.305 16.0159 197.337 16.1439 197.337 16.2719C197.337 16.4479 197.321 16.6079 197.305 16.7839L196.105 16.8319ZM196.617 19.1679C196.297 19.1519 195.833 19.1839 195.561 19.3599C194.249 19.4719 192.313 20.3359 192.073 21.3599C192.025 21.5679 192.073 21.7759 192.073 21.9839C192.073 23.6639 194.265 24.6079 196.377 24.6079C198.089 24.6079 200.121 23.9039 200.265 22.3039C200.425 20.6079 198.457 19.2639 196.617 19.1679ZM198.105 21.9199C198.073 22.5439 197.049 22.7199 196.345 22.7199C195.449 22.7199 194.633 22.6079 194.169 21.9199C194.649 21.2479 195.593 20.8799 196.297 20.8639C197.289 20.9439 198.137 21.4079 198.105 21.9199Z" fill="#FFDC4C"/>
</svg>
