<svg width="204" height="27" viewBox="0 0 204 27" fill="none" xmlns="http://www.w3.org/2000/svg">
<path d="M21.3432 17.488C21.6472 17.856 21.7832 18.144 21.7512 18.352C21.7352 18.464 21.6712 18.568 21.5592 18.664C21.4632 18.76 21.3432 18.856 21.1992 18.952C21.0712 19.032 20.9272 19.104 20.7672 19.168C20.6232 19.232 20.4952 19.288 20.3832 19.336C20.0792 19.448 19.7112 19.536 19.2792 19.6C18.8472 19.664 18.4152 19.68 17.9832 19.648C17.0872 19.6 16.0712 19.56 14.9352 19.528C13.8152 19.512 12.6552 19.504 11.4552 19.504C10.2552 19.504 9.05521 19.512 7.85521 19.528C6.65521 19.56 5.54321 19.6 4.51921 19.648C4.15121 19.664 3.83921 19.664 3.58321 19.648C3.34321 19.648 3.12721 19.632 2.93521 19.6C2.74321 19.568 2.55921 19.52 2.38321 19.456C2.22321 19.392 2.05521 19.312 1.87921 19.216C1.79921 19.184 1.71921 19.12 1.63921 19.024C1.57521 18.928 1.50321 18.808 1.42321 18.664C1.23121 18.6 1.06321 18.504 0.919213 18.376C0.791212 18.232 0.711212 18.08 0.679212 17.92L0.751212 17.488C0.847212 17.36 0.967212 17.232 1.11121 17.104C1.27121 16.976 1.42321 16.888 1.56721 16.84C1.74321 16.696 1.92721 16.568 2.11921 16.456C2.31121 16.344 2.51121 16.296 2.71921 16.312C3.21521 16.328 3.91121 16.336 4.80721 16.336C5.71921 16.336 6.72721 16.328 7.83121 16.312C7.99121 16.312 8.15921 16.376 8.33521 16.504C9.19921 16.472 10.0632 16.44 10.9272 16.408C11.7912 16.376 12.6312 16.336 13.4472 16.288L13.2792 15.664C13.2312 15.488 13.1912 15.336 13.1592 15.208C13.1432 15.064 13.1272 14.928 13.1112 14.8C13.0952 14.656 13.0872 14.512 13.0872 14.368C13.1032 14.208 13.1112 14.016 13.1112 13.792C12.5032 13.792 11.8872 13.8 11.2632 13.816C10.6392 13.816 10.0552 13.824 9.51121 13.84C8.98321 13.856 8.51921 13.872 8.11921 13.888C7.71921 13.904 7.43921 13.92 7.27921 13.936C7.11921 13.968 6.87921 13.992 6.55921 14.008C6.25521 14.008 5.95921 13.968 5.67121 13.888C5.44721 13.824 5.21521 13.728 4.97521 13.6C4.75121 13.472 4.55921 13.296 4.39921 13.072C4.33521 12.992 4.29521 12.904 4.27921 12.808C4.27921 12.712 4.28721 12.616 4.30321 12.52C4.20721 12.392 4.12721 12.232 4.06321 12.04C3.99921 11.832 3.99121 11.664 4.03921 11.536C4.10321 11.376 4.23121 11.24 4.42321 11.128C4.63121 11.016 4.91921 10.944 5.28721 10.912L7.66321 10.84C8.01521 10.84 8.35921 10.896 8.69521 11.008C9.41521 10.96 10.1592 10.928 10.9272 10.912C11.6952 10.896 12.4312 10.904 13.1352 10.936C13.1352 10.568 13.1272 10.2 13.1112 9.832C13.1112 9.448 13.1112 9.08 13.1112 8.728C12.7112 8.728 12.2792 8.736 11.8152 8.752C11.3512 8.768 10.8952 8.784 10.4472 8.8C9.99921 8.8 9.58321 8.8 9.19921 8.8C8.81521 8.8 8.50321 8.8 8.26321 8.8C7.95921 8.784 7.69521 8.736 7.47121 8.656C7.26321 8.56 7.06321 8.464 6.87121 8.368C6.64721 8.4 6.43121 8.384 6.22321 8.32C6.04721 8.208 5.87121 8.096 5.69521 7.984C5.53521 7.856 5.36721 7.728 5.19121 7.6C4.93521 7.408 4.79921 7.232 4.78321 7.072C4.76721 6.896 4.82321 6.696 4.95121 6.472L5.28721 6.424C5.33521 6.248 5.39921 6.056 5.47921 5.848C5.57521 5.64 5.63921 5.52 5.67121 5.488C5.75121 5.408 5.82321 5.344 5.88721 5.296C5.96721 5.232 6.04721 5.192 6.12721 5.176L6.27121 5.152C6.31921 5.168 6.38321 5.192 6.46321 5.224C6.54321 5.256 6.61521 5.288 6.67921 5.32C7.27121 5.592 8.08721 5.704 9.12721 5.656C9.20721 5.656 9.28721 5.672 9.36721 5.704C9.44721 5.736 9.58321 5.768 9.77521 5.8C10.1752 5.752 10.6312 5.696 11.1432 5.632C11.6552 5.552 12.1512 5.496 12.6312 5.464C13.1912 5.432 13.7272 5.368 14.2392 5.272C14.7512 5.176 15.1352 5.136 15.3912 5.152C15.5832 5.152 15.7752 5.192 15.9672 5.272C15.7272 5.304 15.5672 5.368 15.4872 5.464C15.6152 5.448 15.7352 5.456 15.8472 5.488C15.9592 5.52 16.0792 5.552 16.2072 5.584C16.3192 5.616 16.4152 5.648 16.4952 5.68C16.5752 5.712 16.6552 5.744 16.7352 5.776C16.9432 5.968 17.1192 6.16 17.2632 6.352C17.4232 6.528 17.5032 6.72 17.5032 6.928C17.5032 7.008 17.4712 7.136 17.4072 7.312C17.3592 7.472 17.2872 7.6 17.1912 7.696L17.0952 7.792C17.0952 8.144 17.0952 8.52 17.0952 8.92C17.0952 9.32 17.0872 9.696 17.0712 10.048C17.0712 10.4 17.0632 10.704 17.0472 10.96C17.0472 11.216 17.0392 11.384 17.0232 11.464L16.8552 12.664C16.8392 12.84 16.8152 13.064 16.7832 13.336C16.7512 13.592 16.7112 13.848 16.6632 14.104C16.6312 14.36 16.5912 14.592 16.5432 14.8C16.4952 14.992 16.4472 15.112 16.3992 15.16C16.3832 14.936 16.3512 14.744 16.3032 14.584C16.2712 14.408 16.2392 14.256 16.2072 14.128H16.1352C16.0712 14.448 15.9992 14.784 15.9192 15.136C15.8552 15.488 15.7672 15.824 15.6552 16.144C15.6552 16.16 15.6472 16.176 15.6312 16.192C16.1592 16.16 16.6232 16.128 17.0232 16.096C17.4392 16.064 17.7752 16.032 18.0312 16C18.4312 15.952 18.7752 15.96 19.0632 16.024C19.3672 16.072 19.6552 16.176 19.9272 16.336C20.0712 16.416 20.2152 16.536 20.3592 16.696C20.5032 16.84 20.6392 16.992 20.7672 17.152C20.9112 17.232 21.0232 17.288 21.1032 17.32C21.1832 17.352 21.2632 17.408 21.3432 17.488ZM15.7272 8.128C15.6952 8.272 15.6792 8.408 15.6792 8.536C15.6792 8.648 15.6872 8.768 15.7032 8.896C15.7512 8.896 15.8072 8.928 15.8712 8.992C15.9032 9.184 15.9112 9.384 15.8952 9.592C15.8952 9.784 15.9272 9.976 15.9912 10.168C16.0232 10.232 16.0632 10.24 16.1112 10.192C16.1112 10.144 16.1192 10.024 16.1352 9.832C16.1512 9.64 16.1592 9.496 16.1592 9.4C16.1592 9.368 16.1672 9.344 16.1832 9.328C16.2152 9.312 16.2552 9.32 16.3032 9.352C16.3192 9.432 16.3192 9.512 16.3032 9.592C16.3032 9.672 16.3432 9.728 16.4232 9.76C16.4392 9.776 16.4472 9.84 16.4472 9.952C16.4632 10.128 16.4792 10.336 16.4952 10.576C16.5112 10.816 16.5272 10.96 16.5432 11.008L16.6152 11.104C16.6632 11.04 16.6872 10.944 16.6872 10.816C16.6712 10.704 16.6552 10.544 16.6392 10.336C16.6392 10.112 16.6472 9.912 16.6632 9.736C16.6952 9.432 16.7192 9.144 16.7352 8.872C16.7512 8.584 16.7672 8.304 16.7832 8.032C16.7832 7.936 16.7752 7.848 16.7592 7.768C16.7592 7.672 16.7672 7.584 16.7832 7.504C16.7832 7.472 16.7672 7.432 16.7352 7.384C16.7192 7.336 16.7032 7.328 16.6872 7.36L16.5912 7.48L16.5192 7.984C16.5032 8.032 16.4872 8.072 16.4712 8.104C16.4712 8.12 16.4392 8.128 16.3752 8.128C16.3432 8.032 16.3112 7.88 16.2792 7.672C16.2472 7.464 16.2472 7.304 16.2792 7.192C16.2952 7.128 16.3032 7.048 16.3032 6.952C16.3032 6.856 16.2872 6.776 16.2552 6.712C16.0952 6.712 15.9752 6.752 15.8952 6.832C15.8952 6.976 15.8872 7.152 15.8712 7.36C15.8552 7.568 15.8312 7.736 15.7992 7.864C15.7832 7.896 15.7672 7.936 15.7512 7.984C15.7352 8.032 15.7272 8.08 15.7272 8.128ZM5.26321 7.048C5.32721 7.144 5.43121 7.248 5.57521 7.36C5.71921 7.472 5.87921 7.576 6.05521 7.672C6.23121 7.768 6.39921 7.84 6.55921 7.888C6.73521 7.936 6.87121 7.952 6.96721 7.936C6.83921 7.712 6.68721 7.552 6.51121 7.456C6.35121 7.36 6.19121 7.296 6.03121 7.264C5.87121 7.232 5.73521 7.2 5.62321 7.168C5.51121 7.12 5.39121 7.08 5.26321 7.048ZM15.2232 8.968C15.2232 9 15.2392 9.032 15.2712 9.064C15.3192 9.08 15.3672 9.12 15.4152 9.184C15.4472 8.96 15.4632 8.76 15.4632 8.584C15.4632 8.392 15.4552 8.208 15.4392 8.032C15.4392 7.968 15.4152 7.936 15.3672 7.936C15.2872 7.936 15.2392 7.96 15.2232 8.008V8.968ZM9.65521 8.08C9.62321 8.08 9.59921 8.104 9.58321 8.152C9.56721 8.184 9.52721 8.232 9.46321 8.296C9.89521 8.296 10.2792 8.272 10.6152 8.224C10.6792 8.224 10.7112 8.192 10.7112 8.128C10.6632 8.048 10.6312 8.008 10.6152 8.008L9.65521 8.08ZM12.8712 8.536C12.9192 8.488 12.9512 8.44 12.9672 8.392C12.9192 8.376 12.8792 8.36 12.8472 8.344C12.8152 8.328 12.7832 8.32 12.7512 8.32C11.7592 8.368 10.7752 8.392 9.79921 8.392C9.83121 8.456 9.84721 8.512 9.84721 8.56C9.87921 8.576 9.91121 8.584 9.94321 8.584C10.8232 8.632 11.7192 8.632 12.6312 8.584C12.7592 8.584 12.8392 8.568 12.8712 8.536ZM13.7352 9.112C13.7032 9.16 13.6792 9.24 13.6632 9.352C13.6632 9.448 13.6552 9.552 13.6392 9.664C13.6392 9.76 13.6392 9.856 13.6392 9.952C13.6552 10.048 13.6632 10.112 13.6632 10.144C13.6632 10.176 13.6952 10.192 13.7592 10.192C13.7912 10.176 13.8312 10.16 13.8792 10.144C13.9272 10.128 13.9832 10.104 14.0472 10.072C14.0632 10.168 14.0712 10.264 14.0712 10.36C14.0872 10.456 14.1112 10.544 14.1432 10.624C14.1752 10.592 14.1992 10.576 14.2152 10.576C14.2312 10.56 14.2392 10.536 14.2392 10.504C14.2392 10.408 14.2392 10.28 14.2392 10.12C14.2552 9.944 14.2632 9.776 14.2632 9.616C14.2632 9.44 14.2552 9.288 14.2392 9.16C14.2392 9.032 14.2392 8.944 14.2392 8.896C14.1592 8.976 14.0952 9.056 14.0472 9.136C13.9992 9.216 13.9272 9.288 13.8312 9.352C13.8312 9.32 13.7992 9.24 13.7352 9.112ZM13.3752 9.448C13.3272 9.624 13.2952 9.856 13.2792 10.144C13.2792 10.416 13.2952 10.68 13.3272 10.936C13.3592 10.952 13.4152 10.96 13.4952 10.96C13.4952 10.72 13.4952 10.48 13.4952 10.24C13.4952 10 13.4872 9.768 13.4712 9.544C13.4712 9.528 13.4552 9.52 13.4232 9.52C13.4072 9.504 13.3912 9.48 13.3752 9.448ZM6.51121 13.216C6.71921 13.216 6.99921 13.216 7.35121 13.216C7.70321 13.216 8.07921 13.216 8.47921 13.216C8.87921 13.216 9.28721 13.224 9.70321 13.24C10.1352 13.24 10.5352 13.24 10.9032 13.24C10.9992 13.256 11.0472 13.224 11.0472 13.144C10.9352 13.112 10.7112 13.088 10.3752 13.072C10.0392 13.04 9.73521 13.016 9.46321 13C9.33521 13 9.11121 13 8.79121 13C8.47121 13 8.14321 13 7.80721 13C7.47121 13 7.15921 13 6.87121 13C6.59921 13 6.43121 13 6.36721 13C6.17521 13 6.07921 13.048 6.07921 13.144C6.15921 13.176 6.22321 13.192 6.27121 13.192C6.33521 13.192 6.41521 13.2 6.51121 13.216ZM12.1032 13.6C12.1832 13.52 12.2312 13.464 12.2472 13.432C12.1832 13.4 12.1032 13.384 12.0072 13.384C11.8312 13.384 11.6392 13.392 11.4312 13.408C11.2232 13.424 11.0072 13.424 10.7832 13.408C10.6232 13.392 10.4712 13.392 10.3272 13.408C10.1992 13.408 10.0632 13.408 9.91921 13.408C9.88721 13.408 9.84721 13.416 9.79921 13.432C9.75121 13.432 9.71921 13.472 9.70321 13.552C10.0232 13.584 10.3432 13.608 10.6632 13.624C10.9992 13.624 11.3352 13.632 11.6712 13.648C11.7512 13.648 11.8232 13.648 11.8872 13.648C11.9512 13.648 12.0232 13.632 12.1032 13.6ZM15.1752 13.552C15.0792 13.776 14.9112 13.88 14.6712 13.864C14.5912 13.848 14.5112 13.848 14.4312 13.864C14.3672 13.88 14.2952 13.888 14.2152 13.888C14.1832 14.144 14.1592 14.392 14.1432 14.632C14.1432 14.872 14.1832 15.128 14.2632 15.4C14.3912 15.176 14.4952 14.96 14.5752 14.752C14.6072 14.816 14.6152 14.864 14.5992 14.896C14.5992 14.928 14.6152 14.952 14.6472 14.968C14.7112 15 14.7592 15.08 14.7912 15.208C14.8232 15.32 14.8392 15.416 14.8392 15.496C14.9672 15.336 15.0632 15.128 15.1272 14.872C15.1752 14.68 15.2152 14.48 15.2472 14.272C15.2792 14.064 15.2872 13.864 15.2712 13.672C15.2232 13.656 15.1912 13.616 15.1752 13.552ZM13.3752 14.08C13.3432 14.256 13.3592 14.56 13.4232 14.992C13.4872 15.408 13.5832 15.84 13.7112 16.288C13.7752 16.288 13.8312 16.288 13.8792 16.288C13.9432 16.272 14.0072 16.264 14.0712 16.264C14.0552 16.152 14.0472 16.056 14.0472 15.976C14.0472 15.88 14.0392 15.808 14.0232 15.76C13.9432 15.456 13.8632 15.192 13.7832 14.968C13.7192 14.728 13.6232 14.52 13.4952 14.344C13.4472 14.28 13.4072 14.192 13.3752 14.08ZM20.3112 19.096C20.2792 19.016 20.3272 18.944 20.4552 18.88C20.5992 18.8 20.7032 18.744 20.7672 18.712C20.7832 18.696 20.7912 18.68 20.7912 18.664C20.7912 18.648 20.8072 18.616 20.8392 18.568C20.6632 18.616 20.4472 18.664 20.1912 18.712C19.9512 18.744 19.7032 18.784 19.4472 18.832L19.3752 18.616C19.2792 18.584 19.1832 18.568 19.0872 18.568C19.0072 18.568 18.9432 18.552 18.8952 18.52C18.8152 18.488 18.7272 18.48 18.6312 18.496C18.5512 18.496 18.4712 18.432 18.3912 18.304C18.4392 18.24 18.4952 18.2 18.5592 18.184C18.6392 18.168 18.7192 18.16 18.7992 18.16C18.8792 18.16 18.9512 18.152 19.0152 18.136C19.0952 18.12 19.1592 18.088 19.2072 18.04C18.9832 18.008 18.8072 18 18.6792 18.016C18.5672 18.016 18.4232 18.04 18.2472 18.088L17.9352 18.568C18.0152 18.648 18.0872 18.72 18.1512 18.784C18.2312 18.832 18.3112 18.88 18.3912 18.928L18.3432 19.12C18.1672 19.088 18.0072 19.056 17.8632 19.024C17.7352 19.008 17.5992 19 17.4552 19C17.3112 18.968 17.2072 18.976 17.1432 19.024V19.144C17.2552 19.192 17.4472 19.24 17.7192 19.288C17.9912 19.352 18.2952 19.384 18.6312 19.384C18.9832 19.4 19.3512 19.384 19.7352 19.336C20.1192 19.288 20.4872 19.184 20.8392 19.024L20.7912 18.928L20.3112 19.096ZM13.8312 18.64C13.9272 18.64 13.9752 18.6 13.9752 18.52C13.8632 18.488 13.6312 18.472 13.2792 18.472C12.9432 18.456 12.6472 18.448 12.3912 18.448C12.2632 18.448 12.0392 18.456 11.7192 18.472C11.3992 18.472 11.0712 18.48 10.7352 18.496C10.3992 18.512 10.0872 18.528 9.79921 18.544C9.52721 18.544 9.35921 18.544 9.29521 18.544C9.10321 18.544 9.00721 18.592 9.00721 18.688C9.08721 18.72 9.15121 18.736 9.19921 18.736C9.26321 18.736 9.34321 18.736 9.43921 18.736L13.8312 18.64ZM12.0552 19.24C12.3272 19.224 12.5112 19.192 12.6072 19.144C12.7192 19.096 12.7832 19.04 12.7992 18.976C12.5752 18.976 12.2392 18.976 11.7912 18.976C11.3592 18.976 10.9112 18.976 10.4472 18.976C9.98321 18.976 9.55121 18.976 9.15121 18.976C8.75121 18.976 8.47921 18.976 8.33521 18.976C8.28721 18.976 8.23921 18.952 8.19121 18.904C8.15921 18.872 8.09521 18.848 7.99921 18.832C7.91921 18.816 7.83921 18.808 7.75921 18.808C7.55121 18.808 7.40721 18.808 7.32721 18.808C7.24721 18.808 7.07921 18.816 6.82321 18.832C6.75921 18.832 6.63121 18.848 6.43921 18.88C6.26321 18.896 6.14321 18.912 6.07921 18.928L5.59921 19.048C5.50321 19.048 5.40721 19.048 5.31121 19.048C5.21521 19.048 5.11921 19.04 5.02321 19.024C4.92721 19.008 4.83921 18.984 4.75921 18.952C4.69521 18.904 4.55121 18.872 4.32721 18.856L3.84721 18.952C3.70321 18.984 3.56721 19.016 3.43921 19.048C3.32721 19.096 3.20721 19.12 3.07921 19.12C3.03121 19.12 2.97521 19.152 2.91121 19.216L3.07921 19.336C3.20721 19.4 3.32721 19.432 3.43921 19.432C3.56721 19.448 3.69521 19.456 3.82321 19.456C4.19121 19.456 4.55121 19.456 4.90321 19.456C5.25521 19.456 5.60721 19.44 5.95921 19.408H6.07921C6.11121 19.392 6.15121 19.376 6.19921 19.36C6.24721 19.36 6.33521 19.36 6.46321 19.36H6.91921C7.25521 19.376 7.65521 19.376 8.11921 19.36C8.59921 19.344 9.07921 19.328 9.55921 19.312C10.0392 19.296 10.5032 19.28 10.9512 19.264C11.3992 19.248 11.7672 19.24 12.0552 19.24ZM42.4846 17.656C42.8526 17.944 43.0366 18.216 43.0366 18.472C43.0366 18.648 42.9566 18.808 42.7966 18.952C42.6526 19.096 42.5006 19.208 42.3406 19.288C41.9886 19.448 41.6046 19.56 41.1886 19.624C40.7726 19.704 40.3326 19.704 39.8686 19.624C39.7406 19.608 39.5566 19.584 39.3166 19.552C39.0766 19.52 38.8126 19.488 38.5246 19.456C38.2526 19.44 37.9726 19.416 37.6846 19.384C37.3966 19.368 37.1406 19.36 36.9166 19.36C36.5966 19.344 36.1326 19.336 35.5246 19.336C34.9326 19.352 34.2606 19.36 33.5086 19.36C32.7566 19.376 31.9646 19.392 31.1326 19.408C30.3166 19.44 29.5406 19.464 28.8046 19.48C28.0686 19.496 27.4126 19.52 26.8366 19.552C26.2606 19.584 25.8366 19.608 25.5646 19.624C25.1166 19.656 24.7326 19.656 24.4126 19.624C24.0926 19.608 23.7886 19.456 23.5006 19.168C23.4366 19.104 23.3806 19 23.3326 18.856C23.3006 18.712 23.2446 18.6 23.1646 18.52L22.7566 18.352C22.6446 18.224 22.5646 18.128 22.5166 18.064C22.4686 17.984 22.4126 17.888 22.3486 17.776C22.3006 17.696 22.2446 17.6 22.1806 17.488C22.1166 17.36 22.0686 17.264 22.0366 17.2C21.9566 17.008 22.0126 16.816 22.2046 16.624C22.3006 16.528 22.4206 16.464 22.5646 16.432C22.6766 16.432 22.7806 16.432 22.8766 16.432C22.9886 16.432 23.0686 16.44 23.1166 16.456C23.1966 16.52 23.2526 16.568 23.2846 16.6C23.3326 16.632 23.4206 16.64 23.5486 16.624C23.5166 16.496 23.4846 16.4 23.4526 16.336C23.4366 16.272 23.3886 16.176 23.3086 16.048C23.2606 15.968 23.2686 15.904 23.3326 15.856C23.6366 15.696 23.9726 15.744 24.3406 16C24.7246 16.272 25.0446 16.44 25.3006 16.504C25.5726 16.552 25.8926 16.568 26.2606 16.552C26.3566 16.552 26.5406 16.552 26.8126 16.552C27.1006 16.536 27.4366 16.528 27.8206 16.528C28.2046 16.512 28.6286 16.504 29.0926 16.504C29.5726 16.488 30.0606 16.472 30.5566 16.456C30.5406 16.088 30.5246 15.768 30.5086 15.496C30.4926 15.224 30.4686 15.024 30.4366 14.896C30.4046 14.736 30.3886 14.624 30.3886 14.56C29.9246 14.576 29.5246 14.592 29.1886 14.608C28.8526 14.608 28.6446 14.616 28.5646 14.632C28.3246 14.664 28.0686 14.696 27.7966 14.728C27.5406 14.76 27.3086 14.768 27.1006 14.752C26.7806 14.72 26.5086 14.592 26.2846 14.368C26.0606 14.144 25.9246 13.848 25.8766 13.48C25.8446 13.304 25.8766 13.12 25.9726 12.928C26.0846 12.72 26.2286 12.536 26.4046 12.376C26.4046 12.04 26.4286 11.696 26.4766 11.344C26.5246 10.976 26.5406 10.608 26.5246 10.24C26.5246 10.208 26.5246 10.12 26.5246 9.976C26.5246 9.816 26.5326 9.712 26.5486 9.664C26.5326 9.664 26.5006 9.672 26.4526 9.688C26.4046 9.688 26.3646 9.704 26.3326 9.736C26.3006 9.768 26.2686 9.808 26.2366 9.856C26.2206 9.888 26.2046 9.912 26.1886 9.928C26.1566 9.88 26.1326 9.832 26.1166 9.784C26.1166 9.72 26.1086 9.664 26.0926 9.616C26.0766 9.536 26.0686 9.416 26.0686 9.256C26.0846 9.08 26.1326 8.944 26.2126 8.848C26.3406 8.688 26.5246 8.544 26.7646 8.416C27.0046 8.288 27.3006 8.184 27.6526 8.104C27.8926 8.088 28.1646 8.12 28.4686 8.2C28.7886 8.28 29.1166 8.312 29.4526 8.296C29.6286 8.28 29.9646 8.288 30.4606 8.32C30.9566 8.352 31.5166 8.36 32.1406 8.344C32.3646 8.344 32.6046 8.368 32.8606 8.416C33.1166 8.448 33.3566 8.456 33.5806 8.44C33.8206 8.392 34.0366 8.344 34.2286 8.296C34.4366 8.248 34.6526 8.224 34.8766 8.224L34.9006 7.048C34.4526 7.064 33.9166 7.08 33.2926 7.096C32.6686 7.096 32.0526 7.096 31.4446 7.096C30.8366 7.096 30.2846 7.088 29.7886 7.072C29.2926 7.056 28.9566 7.032 28.7806 7C28.4446 6.936 28.2046 6.872 28.0606 6.808C27.9326 6.728 27.8686 6.64 27.8686 6.544C27.4206 6.288 27.0126 5.992 26.6446 5.656C26.5806 5.592 26.5166 5.536 26.4526 5.488C26.3886 5.44 26.3246 5.4 26.2606 5.368C26.1646 5.128 26.2046 4.912 26.3806 4.72C26.4126 4.688 26.4526 4.672 26.5006 4.672C26.5486 4.656 26.5886 4.632 26.6206 4.6C26.6366 4.568 26.6686 4.536 26.7166 4.504C26.7806 4.456 26.8286 4.424 26.8606 4.408C26.9406 4.408 27.0126 4.416 27.0766 4.432C27.1406 4.448 27.2126 4.464 27.2926 4.48C27.4046 4.512 27.4766 4.536 27.5086 4.552C27.5406 4.552 27.6206 4.528 27.7486 4.48C27.6846 4.384 27.6046 4.304 27.5086 4.24C27.4126 4.176 27.3086 4.096 27.1966 4C27.3086 3.92 27.3966 3.896 27.4606 3.928C27.5406 3.944 27.6526 4 27.7966 4.096C27.9406 4.192 28.1566 4.264 28.4446 4.312C28.7326 4.344 29.0766 4.384 29.4766 4.432C29.5566 4.448 29.6286 4.464 29.6926 4.48C29.7566 4.48 29.8206 4.488 29.8846 4.504C29.9646 4.504 30.0606 4.512 30.1726 4.528C30.2846 4.528 30.4366 4.528 30.6286 4.528H31.0606C31.3326 4.64 31.5406 4.696 31.6846 4.696C31.7966 4.696 31.9566 4.696 32.1646 4.696C32.3886 4.68 32.6126 4.672 32.8366 4.672C33.0606 4.656 33.2606 4.64 33.4366 4.624C33.6126 4.608 33.7166 4.6 33.7486 4.6C33.7806 4.6 33.8206 4.592 33.8686 4.576C33.9166 4.544 34.0046 4.512 34.1326 4.48C34.3086 4.416 34.5406 4.376 34.8286 4.36C35.1326 4.328 35.3966 4.296 35.6206 4.264C35.8446 4.232 36.0686 4.192 36.2926 4.144C36.5486 4.096 36.7646 4.08 36.9406 4.096C37.1166 4.128 37.2606 4.176 37.3726 4.24C37.4846 4.288 37.6526 4.4 37.8766 4.576C38.0846 4.752 38.2446 4.904 38.3566 5.032C38.4686 5.16 38.5086 5.304 38.4766 5.464C38.4606 5.528 38.4286 5.64 38.3806 5.8C38.3486 5.96 38.2926 6.08 38.2126 6.16C38.1486 6.224 38.0686 6.28 37.9726 6.328L37.9006 7.768C37.8206 7.768 37.7806 7.72 37.7806 7.624V6.376C37.7806 6.152 37.7406 5.952 37.6606 5.776C37.5806 5.584 37.5086 5.456 37.4446 5.392C37.4126 5.36 37.3806 5.352 37.3486 5.368C37.3006 5.336 37.2686 5.328 37.2526 5.344C37.2206 5.376 37.1806 5.4 37.1326 5.416C37.1966 5.512 37.2446 5.608 37.2766 5.704L37.1086 5.776L37.2526 6.64C37.2686 6.64 37.3246 6.624 37.4206 6.592L37.4926 6.832L37.5406 6.784C37.5406 6.656 37.5326 6.504 37.5166 6.328C37.5166 6.136 37.5326 6.024 37.5646 5.992C37.5966 6.024 37.6126 6.072 37.6126 6.136C37.6286 6.2 37.6366 6.256 37.6366 6.304C37.6526 6.464 37.6606 6.624 37.6606 6.784C37.6606 6.944 37.6606 7.088 37.6606 7.216C37.6606 7.296 37.6526 7.352 37.6366 7.384C37.6366 7.4 37.6286 7.424 37.6126 7.456C37.5006 7.408 37.4286 7.344 37.3966 7.264C37.3646 7.184 37.3246 7.104 37.2766 7.024C37.2286 6.944 37.1886 6.864 37.1566 6.784C37.1246 6.704 37.0846 6.608 37.0366 6.496C37.0206 6.544 37.0046 6.576 36.9886 6.592C36.9886 6.608 36.9886 6.632 36.9886 6.664C37.0046 6.792 37.0126 6.928 37.0126 7.072C37.0126 7.2 37.0126 7.328 37.0126 7.456C37.0126 7.52 37.0446 7.576 37.1086 7.624L37.3006 7.744C37.3646 7.776 37.3966 7.816 37.3966 7.864C37.4126 7.896 37.4046 7.92 37.3726 7.936C37.3406 7.952 37.3006 7.952 37.2526 7.936C37.2206 7.92 37.1806 7.904 37.1326 7.888C37.0846 7.952 37.0686 8.016 37.0846 8.08C37.1006 8.144 37.1006 8.216 37.0846 8.296C37.2126 8.392 37.3326 8.488 37.4446 8.584C37.5566 8.68 37.7006 8.76 37.8766 8.824C37.9566 8.888 38.0126 8.992 38.0446 9.136C38.0926 9.28 38.1006 9.408 38.0686 9.52C38.0366 9.504 37.9966 9.496 37.9486 9.496C37.9006 9.48 37.8366 9.496 37.7566 9.544C37.7246 9.624 37.7166 9.68 37.7326 9.712C37.7486 9.728 37.7566 9.808 37.7566 9.952C37.7566 9.984 37.7726 10.008 37.8046 10.024C37.8366 10.04 37.8526 10.056 37.8526 10.072C37.8526 10.168 37.8206 10.232 37.7566 10.264C37.7246 10.28 37.6766 10.32 37.6126 10.384C37.5646 10.432 37.4926 10.488 37.3966 10.552C37.3166 10.616 37.2206 10.672 37.1086 10.72C36.9966 10.752 36.8686 10.76 36.7246 10.744C36.6606 10.728 36.5486 10.712 36.3886 10.696C36.2286 10.664 36.0846 10.648 35.9566 10.648C35.6366 10.632 35.2926 10.6 34.9246 10.552C34.5726 10.504 34.2606 10.456 33.9886 10.408C33.9086 10.44 33.8206 10.48 33.7246 10.528C33.6286 10.56 33.5646 10.576 33.5326 10.576C32.8446 10.56 32.1726 10.568 31.5166 10.6C30.8766 10.616 30.2206 10.624 29.5486 10.624L29.4766 10.768C29.4606 10.8 29.4526 10.856 29.4526 10.936C29.4526 11.08 29.4526 11.24 29.4526 11.416C29.4526 11.576 29.4206 11.672 29.3566 11.704C29.3086 11.64 29.2846 11.56 29.2846 11.464C29.2846 11.368 29.2686 11.28 29.2366 11.2C29.1566 11.088 29.1086 10.968 29.0926 10.84C29.0766 10.696 29.0606 10.552 29.0446 10.408C29.0286 10.36 29.0046 10.304 28.9726 10.24C28.9566 10.16 28.9086 10.104 28.8286 10.072C28.8926 10.376 28.9246 10.696 28.9246 11.032C28.9246 11.16 28.9166 11.312 28.9006 11.488C28.8846 11.664 28.8846 11.816 28.9006 11.944C29.5726 11.944 30.3006 11.944 31.0846 11.944C31.8686 11.928 32.6286 11.912 33.3646 11.896C34.1166 11.88 34.8046 11.864 35.4286 11.848C36.0526 11.816 36.5486 11.776 36.9166 11.728C37.5246 11.648 38.0846 11.848 38.5966 12.328C38.6286 12.456 38.6526 12.56 38.6686 12.64C38.7006 12.72 38.7086 12.792 38.6926 12.856C38.7566 12.952 38.8206 13.04 38.8846 13.12C38.9486 13.2 39.0046 13.256 39.0526 13.288L39.2446 13.432C39.3406 13.752 39.3566 14.04 39.2926 14.296C39.2606 14.392 39.1726 14.488 39.0286 14.584C38.9006 14.68 38.7646 14.712 38.6206 14.68C38.4126 14.632 38.1166 14.592 37.7326 14.56C37.3646 14.528 37.0366 14.504 36.7486 14.488H34.0846C34.1166 14.6 34.1406 14.72 34.1566 14.848C34.1886 14.96 34.1966 15.056 34.1806 15.136C34.1486 15.12 34.1086 15.088 34.0606 15.04C34.0286 14.976 34.0046 14.936 33.9886 14.92L33.9406 14.944C33.9406 14.992 33.9326 15.104 33.9166 15.28C33.9166 15.44 33.8846 15.536 33.8206 15.568C33.7886 15.504 33.7726 15.44 33.7726 15.376C33.7726 15.296 33.7646 15.224 33.7486 15.16C33.7326 15 33.6686 14.816 33.5566 14.608C33.4766 14.448 33.3966 14.312 33.3166 14.2C33.2526 14.072 33.1966 13.92 33.1486 13.744C33.1166 13.664 33.0686 13.608 33.0046 13.576L32.9326 13.552C32.9966 13.728 33.0446 13.888 33.0766 14.032C33.1246 14.176 33.1326 14.28 33.1006 14.344C33.0206 14.312 32.9726 14.248 32.9566 14.152C32.9406 14.04 32.8766 13.968 32.7646 13.936C32.7646 14 32.7806 14.064 32.8126 14.128C32.8606 14.288 32.8926 14.448 32.9086 14.608C32.9246 14.752 32.9326 14.912 32.9326 15.088C32.9326 15.216 32.9486 15.296 32.9806 15.328L33.1486 15.256C33.1646 15.464 33.1406 15.704 33.0766 15.976C32.9966 16.008 32.9326 15.984 32.8846 15.904C32.8526 15.808 32.8286 15.704 32.8126 15.592C32.7966 15.464 32.7806 15.304 32.7646 15.112C32.7646 14.904 32.7486 14.736 32.7166 14.608C32.7006 14.528 32.6366 14.464 32.5246 14.416C32.5406 14.544 32.5566 14.752 32.5726 15.04C32.6046 15.328 32.6126 15.608 32.5966 15.88H32.5486C32.5166 15.816 32.4846 15.736 32.4526 15.64C32.4366 15.544 32.3886 15.496 32.3086 15.496C32.3406 15.672 32.3486 15.832 32.3326 15.976C32.3166 16.104 32.3166 16.248 32.3326 16.408C32.5246 16.392 32.7086 16.384 32.8846 16.384C33.0766 16.384 33.2606 16.384 33.4366 16.384C33.4366 16.256 33.4446 16.12 33.4606 15.976C33.4926 15.816 33.5246 15.72 33.5566 15.688C33.6526 15.8 33.6926 15.912 33.6766 16.024C33.6606 16.136 33.6686 16.248 33.7006 16.36C34.1486 16.344 34.5326 16.336 34.8526 16.336C35.1726 16.336 35.3966 16.328 35.5246 16.312C35.6686 16.296 35.8606 16.296 36.1006 16.312C36.3566 16.312 36.6206 16.32 36.8926 16.336C37.1326 16.32 37.4046 16.304 37.7086 16.288C38.0286 16.272 38.3326 16.256 38.6206 16.24C38.9086 16.208 39.1646 16.184 39.3886 16.168C39.6126 16.152 39.7726 16.144 39.8686 16.144C40.2046 16.128 40.5006 16.176 40.7566 16.288C41.0126 16.4 41.2606 16.528 41.5006 16.672C41.5806 16.704 41.6526 16.76 41.7166 16.84C41.7806 16.92 41.8206 17.024 41.8366 17.152C41.9646 17.232 42.0686 17.304 42.1486 17.368C42.2286 17.432 42.3406 17.528 42.4846 17.656ZM36.8686 4.432C36.7406 4.432 36.6206 4.432 36.5086 4.432C36.3966 4.432 36.2766 4.456 36.1486 4.504C36.1646 4.568 36.1726 4.632 36.1726 4.696C36.1726 4.76 36.1886 4.832 36.2206 4.912C36.3326 4.928 36.4446 4.944 36.5566 4.96C36.6686 4.96 36.7806 4.976 36.8926 5.008C37.1006 5.008 37.1886 4.912 37.1566 4.72C37.1246 4.64 37.0846 4.576 37.0366 4.528C37.0046 4.464 36.9486 4.432 36.8686 4.432ZM37.6366 4.648C37.6046 4.584 37.5566 4.536 37.4926 4.504C37.4446 4.472 37.3806 4.472 37.3006 4.504L37.5406 5.008C37.6846 4.896 37.7166 4.776 37.6366 4.648ZM37.6846 5.512L37.8286 5.728C37.9086 5.648 37.9806 5.584 38.0446 5.536C38.1086 5.472 38.1566 5.392 38.1886 5.296L37.9966 5.056L37.6846 5.512ZM37.9726 6.088C38.1166 6.024 38.1726 5.904 38.1406 5.728C38.0926 5.76 38.0366 5.824 37.9726 5.92C37.9566 5.952 37.9486 5.984 37.9486 6.016C37.9646 6.032 37.9726 6.056 37.9726 6.088ZM34.7326 6.376C34.8126 6.312 34.8686 6.24 34.9006 6.16C34.9326 6.128 34.9486 6.088 34.9486 6.04C34.9486 5.976 34.9566 5.92 34.9726 5.872C34.9246 5.856 34.8686 5.848 34.8046 5.848C34.7406 5.832 34.6926 5.832 34.6606 5.848C34.3726 5.864 34.1326 5.872 33.9406 5.872C33.7486 5.872 33.5406 5.888 33.3166 5.92C33.3006 5.936 33.2926 5.976 33.2926 6.04C33.3726 6.04 33.4446 6.048 33.5086 6.064C33.5886 6.064 33.6606 6.064 33.7246 6.064C33.7406 6.08 33.7486 6.112 33.7486 6.16C33.5726 6.176 33.3966 6.192 33.2206 6.208C33.0446 6.208 32.8686 6.208 32.6926 6.208C32.8686 6.288 33.1726 6.344 33.6046 6.376C34.0366 6.392 34.4126 6.392 34.7326 6.376ZM36.1246 8.248C36.1406 8.264 36.1806 8.272 36.2446 8.272C36.2606 8.208 36.2846 8.144 36.3166 8.08C36.3486 8.016 36.3806 7.968 36.4126 7.936C36.4606 8.096 36.5326 8.256 36.6286 8.416C36.7406 8.416 36.7966 8.352 36.7966 8.224C36.7966 7.904 36.7966 7.584 36.7966 7.264C36.8126 6.944 36.8046 6.616 36.7726 6.28C36.7726 6.248 36.7566 6.2 36.7246 6.136C36.7086 6.056 36.6926 6 36.6766 5.968C36.6446 6.032 36.6286 6.096 36.6286 6.16C36.6286 6.208 36.6286 6.256 36.6286 6.304V7.12C36.6286 7.216 36.5566 7.256 36.4126 7.24C36.3966 7.112 36.3726 6.976 36.3406 6.832C36.3246 6.672 36.2526 6.504 36.1246 6.328V8.248ZM34.8046 6.784C34.8366 6.784 34.8606 6.76 34.8766 6.712C34.8926 6.664 34.8926 6.64 34.8766 6.64C34.8286 6.624 34.7566 6.608 34.6606 6.592C34.5646 6.576 34.4686 6.568 34.3726 6.568C34.3246 6.568 34.2046 6.568 34.0126 6.568C33.8206 6.568 33.5966 6.568 33.3406 6.568C33.1006 6.568 32.8366 6.568 32.5486 6.568C32.2606 6.568 31.9886 6.568 31.7326 6.568C31.4766 6.568 31.2526 6.568 31.0606 6.568C30.8846 6.568 30.7726 6.568 30.7246 6.568C30.5966 6.536 30.4926 6.544 30.4126 6.592C30.3646 6.624 30.3246 6.648 30.2926 6.664C30.2606 6.68 30.2366 6.704 30.2206 6.736C30.3166 6.768 30.5646 6.792 30.9646 6.808C31.3806 6.808 31.8366 6.808 32.3326 6.808C32.8286 6.808 33.3086 6.808 33.7726 6.808C34.2366 6.792 34.5806 6.784 34.8046 6.784ZM35.1166 8.32C35.1646 8.288 35.2046 8.264 35.2366 8.248C35.2686 8.232 35.2926 8.2 35.3086 8.152V6.784C35.3086 6.752 35.2846 6.728 35.2366 6.712C35.1886 6.696 35.1486 6.688 35.1166 6.688V8.32ZM28.6606 11.896C28.6606 11.8 28.6606 11.672 28.6606 11.512C28.6766 11.336 28.6846 11.168 28.6846 11.008C28.6846 10.832 28.6766 10.68 28.6606 10.552C28.6606 10.424 28.6606 10.336 28.6606 10.288C28.5806 10.368 28.5166 10.448 28.4686 10.528C28.4206 10.608 28.3486 10.68 28.2526 10.744C28.2526 10.712 28.2206 10.632 28.1566 10.504C28.1246 10.552 28.1006 10.632 28.0846 10.744C28.0846 10.84 28.0766 10.944 28.0606 11.056C28.0606 11.152 28.0606 11.248 28.0606 11.344C28.0766 11.44 28.0846 11.504 28.0846 11.536C28.0846 11.568 28.1166 11.584 28.1806 11.584C28.2126 11.568 28.2526 11.552 28.3006 11.536C28.3486 11.52 28.4046 11.496 28.4686 11.464C28.4846 11.56 28.4926 11.656 28.4926 11.752C28.5086 11.848 28.5326 11.936 28.5646 12.016C28.5966 11.984 28.6206 11.968 28.6366 11.968C28.6526 11.952 28.6606 11.928 28.6606 11.896ZM37.3246 12.4C37.3086 12.528 37.3406 12.6 37.4206 12.616C37.5006 12.632 37.5646 12.68 37.6126 12.76C37.5806 12.84 37.5406 12.904 37.4926 12.952C37.4606 13 37.4126 13.064 37.3486 13.144C37.4926 13.144 37.6046 13.144 37.6846 13.144C37.7806 13.128 37.8526 13.112 37.9006 13.096C37.9486 13.08 37.9886 13.064 38.0206 13.048C38.0686 13.016 38.1246 12.976 38.1886 12.928C38.1726 12.768 38.1486 12.608 38.1166 12.448C38.1006 12.272 37.9566 12.16 37.6846 12.112L37.3246 12.4ZM36.2446 13.36C36.1966 13.36 36.1086 13.36 35.9806 13.36C35.8526 13.36 35.7166 13.368 35.5726 13.384C35.4286 13.4 35.2846 13.424 35.1406 13.456C35.0126 13.472 34.9246 13.496 34.8766 13.528C34.9566 13.608 35.0366 13.632 35.1166 13.6C35.3406 13.6 35.5326 13.592 35.6926 13.576C35.8686 13.56 36.0686 13.56 36.2926 13.576C36.3246 13.544 36.3406 13.496 36.3406 13.432C36.3246 13.384 36.2926 13.36 36.2446 13.36ZM37.9726 13.864C37.7646 13.848 37.5246 13.84 37.2526 13.84C36.9806 13.824 36.7166 13.824 36.4606 13.84C36.2206 13.84 36.0046 13.848 35.8126 13.864C35.6366 13.88 35.5246 13.904 35.4766 13.936C35.5086 13.968 35.5486 13.992 35.5966 14.008C35.6446 14.024 35.7406 14.04 35.8846 14.056C36.1246 14.088 36.4206 14.104 36.7726 14.104C37.1406 14.104 37.5246 14.12 37.9246 14.152C38.0206 14.168 38.0846 14.136 38.1166 14.056C38.1486 13.976 38.1006 13.912 37.9726 13.864ZM28.3006 14.368C28.3646 14.368 28.3966 14.336 28.3966 14.272C28.3966 14.224 28.3726 14.184 28.3246 14.152C28.1326 14.168 27.9406 14.176 27.7486 14.176C27.5726 14.176 27.3806 14.176 27.1726 14.176C27.0766 14.176 26.9966 14.208 26.9326 14.272C26.9806 14.304 27.0686 14.328 27.1966 14.344C27.3406 14.36 27.4846 14.376 27.6286 14.392C27.7886 14.392 27.9326 14.392 28.0606 14.392C28.1886 14.376 28.2686 14.368 28.3006 14.368ZM31.9006 15.208C31.8526 15.32 31.8366 15.496 31.8526 15.736C31.8846 15.976 31.9406 16.152 32.0206 16.264C32.1006 16.04 32.1246 15.848 32.0926 15.688C32.0606 15.512 31.9966 15.352 31.9006 15.208ZM40.6846 16.96C40.7006 16.96 40.7246 16.96 40.7566 16.96C40.8046 16.944 40.8766 16.912 40.9726 16.864C40.9246 16.816 40.8526 16.776 40.7566 16.744C40.6766 16.696 40.6126 16.664 40.5646 16.648C40.2126 16.52 39.8526 16.464 39.4846 16.48C39.1326 16.48 38.8126 16.528 38.5246 16.624C38.5886 16.704 38.6606 16.744 38.7406 16.744C39.0126 16.76 39.2926 16.776 39.5806 16.792C39.8846 16.808 40.2126 16.872 40.5646 16.984C40.6126 17.016 40.6366 17.024 40.6366 17.008C40.6526 16.992 40.6686 16.976 40.6846 16.96ZM25.3006 17.248C25.1406 17.248 25.0126 17.192 24.9166 17.08C24.8206 16.952 24.6846 16.904 24.5086 16.936L24.7486 17.32H24.4606C24.4126 17.32 24.3646 17.304 24.3166 17.272C24.2846 17.224 24.2446 17.24 24.1966 17.32C24.3566 17.496 24.5246 17.6 24.7006 17.632C24.8766 17.664 25.0766 17.656 25.3006 17.608V17.248ZM36.8206 18.472C36.8846 18.472 36.9166 18.44 36.9166 18.376C36.9166 18.328 36.8926 18.288 36.8446 18.256C36.6526 18.272 36.4606 18.28 36.2686 18.28C36.0926 18.28 35.9006 18.28 35.6926 18.28C35.5966 18.28 35.5166 18.312 35.4526 18.376C35.5006 18.408 35.5886 18.432 35.7166 18.448C35.8606 18.464 36.0046 18.48 36.1486 18.496C36.3086 18.496 36.4526 18.496 36.5806 18.496C36.7086 18.48 36.7886 18.472 36.8206 18.472ZM36.3886 19.024C36.4846 19.008 36.5966 18.96 36.7246 18.88C36.6606 18.864 36.5726 18.848 36.4606 18.832C36.3486 18.816 36.2206 18.808 36.0766 18.808C35.9326 18.808 35.7886 18.808 35.6446 18.808C35.5006 18.808 35.3726 18.808 35.2606 18.808C35.2606 18.808 35.1246 18.816 34.8526 18.832C34.5806 18.832 34.2686 18.84 33.9166 18.856C33.5806 18.872 33.2446 18.888 32.9086 18.904C32.5726 18.92 32.3406 18.936 32.2126 18.952C32.1806 18.968 32.1326 18.992 32.0686 19.024C32.0206 19.056 31.9726 19.08 31.9246 19.096C31.9886 19.144 32.0606 19.168 32.1406 19.168C32.7006 19.136 33.2446 19.128 33.7726 19.144C34.3006 19.16 34.8366 19.152 35.3806 19.12C35.5726 19.104 35.7486 19.088 35.9086 19.072C36.0846 19.072 36.2446 19.056 36.3886 19.024ZM46.442 7.912C46.362 7.8 46.29 7.688 46.226 7.576C46.13 7.4 46.106 7.256 46.154 7.144C46.25 7.096 46.354 7.04 46.466 6.976C46.578 6.912 46.706 6.816 46.85 6.688C46.946 6.656 47.13 6.624 47.402 6.592C47.578 6.624 47.738 6.64 47.882 6.64C48.026 6.64 48.186 6.64 48.362 6.64L49.034 6.568L48.77 5.872C48.754 5.76 48.738 5.648 48.722 5.536C48.722 5.408 48.754 5.304 48.818 5.224C48.77 5.144 48.73 5.08 48.698 5.032C48.666 4.968 48.65 4.912 48.65 4.864C48.682 4.704 48.738 4.584 48.818 4.504L49.274 4.12C49.082 4.072 48.898 4.016 48.722 3.952C48.562 3.872 48.434 3.776 48.338 3.664C48.21 3.6 48.09 3.576 47.978 3.592C47.882 3.592 47.794 3.584 47.714 3.568C47.474 3.44 47.274 3.304 47.114 3.16C47.034 3.096 46.97 3.032 46.922 2.968C46.89 2.888 46.858 2.792 46.826 2.68C46.954 2.568 47.018 2.392 47.018 2.152C47.05 2.088 47.09 2.024 47.138 1.96C47.186 1.896 47.242 1.832 47.306 1.768C47.418 1.656 47.618 1.6 47.906 1.6C48.05 1.584 48.178 1.568 48.29 1.552C48.418 1.536 48.578 1.544 48.77 1.576C49.026 1.656 49.266 1.712 49.49 1.744C49.714 1.776 49.93 1.792 50.138 1.792C50.346 1.792 50.666 1.784 51.098 1.768C51.546 1.736 52.01 1.712 52.49 1.696C52.986 1.664 53.45 1.64 53.882 1.624C54.33 1.592 54.674 1.568 54.914 1.552C55.122 1.536 55.362 1.528 55.634 1.528C55.906 1.512 56.098 1.544 56.21 1.624C56.354 1.56 56.522 1.488 56.714 1.408C56.906 1.328 57.058 1.248 57.17 1.168C57.314 1.136 57.474 1.152 57.65 1.216C57.842 1.28 58.018 1.408 58.178 1.6L58.514 2.056C58.626 2.248 58.682 2.456 58.682 2.68C58.762 2.728 58.81 2.792 58.826 2.872C58.842 2.936 58.842 3.008 58.826 3.088C58.762 3.264 58.682 3.4 58.586 3.496C58.41 3.576 58.274 3.632 58.178 3.664C58.098 3.68 57.978 3.704 57.818 3.736C57.69 3.752 57.546 3.76 57.386 3.76C57.242 3.76 57.066 3.76 56.858 3.76C56.778 3.76 56.666 3.768 56.522 3.784C56.394 3.784 56.25 3.792 56.09 3.808C56.266 3.984 56.386 4.136 56.45 4.264C56.562 4.456 56.618 4.592 56.618 4.672C56.634 4.752 56.634 4.824 56.618 4.888L56.522 5.104C56.49 5.232 56.474 5.36 56.474 5.488C56.474 5.52 56.45 5.536 56.402 5.536C56.386 5.52 56.354 5.48 56.306 5.416C56.274 5.352 56.218 5.336 56.138 5.368C56.154 5.448 56.17 5.536 56.186 5.632C56.202 5.728 56.21 5.864 56.21 6.04C56.082 5.992 56.002 5.936 55.97 5.872C55.954 5.952 55.946 6.04 55.946 6.136C55.946 6.232 55.946 6.32 55.946 6.4L56.498 6.472V6.256C56.514 5.952 56.586 5.816 56.714 5.848C56.746 6.056 56.746 6.248 56.714 6.424V6.496L56.93 6.568C57.106 6.536 57.242 6.512 57.338 6.496C57.434 6.464 57.514 6.448 57.578 6.448C57.818 6.48 58.042 6.536 58.25 6.616C58.458 6.68 58.674 6.8 58.898 6.976C59.01 7.04 59.146 7.208 59.306 7.48C59.434 7.528 59.53 7.616 59.594 7.744C59.658 7.856 59.674 7.952 59.642 8.032C59.61 8.096 59.562 8.152 59.498 8.2C59.45 8.248 59.394 8.304 59.33 8.368C59.25 8.416 59.162 8.448 59.066 8.464C58.986 8.464 58.898 8.472 58.802 8.488C58.658 8.68 58.49 8.792 58.298 8.824L57.698 8.752C57.618 8.736 57.53 8.72 57.434 8.704C57.354 8.672 57.266 8.64 57.17 8.608C57.074 8.64 56.93 8.672 56.738 8.704H56.21C55.298 8.672 54.386 8.68 53.474 8.728C52.578 8.76 51.746 8.808 50.978 8.872C50.658 8.904 50.33 8.936 49.994 8.968C49.658 8.984 49.346 9.016 49.058 9.064C48.834 9.096 48.634 9.112 48.458 9.112C48.298 9.096 48.162 9.072 48.05 9.04C47.858 8.928 47.682 8.808 47.522 8.68C47.362 8.552 47.226 8.424 47.114 8.296C46.954 8.264 46.818 8.216 46.706 8.152C46.61 8.072 46.522 7.992 46.442 7.912ZM55.538 1.696C55.474 1.68 55.322 1.68 55.082 1.696C54.858 1.712 54.586 1.736 54.266 1.768C53.946 1.8 53.602 1.84 53.234 1.888C52.882 1.92 52.554 1.96 52.25 2.008L52.418 2.128C52.562 2.128 52.706 2.12 52.85 2.104C52.994 2.088 53.13 2.096 53.258 2.128C53.354 2.16 53.482 2.176 53.642 2.176C53.818 2.176 53.994 2.168 54.17 2.152C54.362 2.12 54.546 2.088 54.722 2.056C54.914 2.008 55.082 1.96 55.226 1.912C55.402 1.864 55.506 1.792 55.538 1.696ZM51.434 3.304C51.402 3.32 51.386 3.352 51.386 3.4C51.386 3.432 51.41 3.448 51.458 3.448C51.634 3.448 51.802 3.448 51.962 3.448C52.138 3.432 52.314 3.392 52.49 3.328C52.506 3.328 52.538 3.296 52.586 3.232C52.506 3.216 52.45 3.2 52.418 3.184C52.402 3.152 52.362 3.152 52.298 3.184C52.17 3.184 52.05 3.192 51.938 3.208C51.826 3.208 51.706 3.216 51.578 3.232C51.53 3.232 51.482 3.256 51.434 3.304ZM53.762 3.544C53.346 3.544 52.93 3.56 52.514 3.592C52.114 3.624 51.714 3.72 51.314 3.88C51.41 3.912 51.474 3.928 51.506 3.928C51.666 3.944 51.834 3.952 52.01 3.952C52.202 3.936 52.386 3.92 52.562 3.904C52.85 3.888 53.122 3.864 53.378 3.832C53.65 3.784 53.93 3.768 54.218 3.784C54.266 3.816 54.306 3.816 54.338 3.784C54.37 3.752 54.386 3.736 54.386 3.736C54.386 3.72 54.378 3.712 54.362 3.712C54.362 3.696 54.362 3.68 54.362 3.664C54.282 3.6 54.186 3.568 54.074 3.568C53.978 3.552 53.874 3.544 53.762 3.544ZM53.93 5.128C53.994 4.872 54.05 4.648 54.098 4.456C54.146 4.248 54.21 4.072 54.29 3.928C53.826 3.96 53.378 4 52.946 4.048C52.53 4.08 52.194 4.112 51.938 4.144L51.338 4.216C51.434 4.344 51.506 4.48 51.554 4.624C51.602 4.768 51.634 4.88 51.65 4.96C51.698 5.2 51.722 5.44 51.722 5.68C51.738 5.92 51.738 6.16 51.722 6.4C52.09 6.384 52.442 6.376 52.778 6.376C53.114 6.36 53.41 6.352 53.666 6.352H53.906C53.874 6.16 53.858 5.968 53.858 5.776C53.858 5.568 53.882 5.352 53.93 5.128ZM54.626 4.312C54.61 4.664 54.602 4.984 54.602 5.272C54.618 5.56 54.626 5.848 54.626 6.136C54.69 6.136 54.73 6.12 54.746 6.088C54.794 5.832 54.826 5.568 54.842 5.296C54.874 5.008 54.858 4.76 54.794 4.552C54.794 4.52 54.778 4.496 54.746 4.48C54.714 4.448 54.674 4.392 54.626 4.312ZM50.57 4.552C50.634 4.776 50.754 5.024 50.93 5.296C51.01 5.12 51.042 4.976 51.026 4.864C51.026 4.752 51.002 4.64 50.954 4.528C50.938 4.496 50.906 4.472 50.858 4.456C50.826 4.424 50.794 4.392 50.762 4.36H50.69C50.674 4.36 50.658 4.368 50.642 4.384C50.594 4.432 50.57 4.488 50.57 4.552ZM51.506 6.4C51.538 6.176 51.546 5.92 51.53 5.632C51.53 5.328 51.506 5.04 51.458 4.768C51.426 4.736 51.394 4.712 51.362 4.696C51.346 4.664 51.314 4.64 51.266 4.624C51.266 4.672 51.258 4.728 51.242 4.792C51.242 4.856 51.25 4.904 51.266 4.936C51.298 5.128 51.322 5.296 51.338 5.44C51.354 5.584 51.354 5.752 51.338 5.944C51.322 6.008 51.314 6.088 51.314 6.184C51.33 6.264 51.346 6.336 51.362 6.4H51.506ZM54.362 6.352C54.346 6.144 54.338 5.944 54.338 5.752C54.338 5.56 54.322 5.368 54.29 5.176C54.29 5.16 54.274 5.152 54.242 5.152C54.21 5.136 54.186 5.112 54.17 5.08C54.138 5.224 54.122 5.416 54.122 5.656C54.122 5.896 54.138 6.128 54.17 6.352H54.362ZM49.922 5.344C49.794 5.424 49.714 5.488 49.682 5.536C49.618 5.808 49.586 6.136 49.586 6.52L49.946 6.472C49.946 6.296 49.946 6.12 49.946 5.944C49.946 5.768 49.938 5.568 49.922 5.344ZM49.178 5.704C49.13 5.784 49.122 5.92 49.154 6.112C49.186 6.304 49.226 6.448 49.274 6.544C49.306 6.528 49.338 6.52 49.37 6.52C49.418 6.392 49.418 6.256 49.37 6.112C49.338 5.968 49.274 5.832 49.178 5.704ZM57.914 7.36C57.722 7.456 57.602 7.52 57.554 7.552C57.522 7.568 57.482 7.608 57.434 7.672C57.562 7.752 57.69 7.76 57.818 7.696C57.946 7.616 58.074 7.6 58.202 7.648C58.346 7.84 58.522 7.88 58.73 7.768C58.842 7.72 58.85 7.648 58.754 7.552C58.674 7.52 58.634 7.488 58.634 7.456C58.634 7.408 58.642 7.36 58.658 7.312C58.674 7.28 58.674 7.24 58.658 7.192C58.658 7.144 58.658 7.088 58.658 7.024C58.498 7.024 58.354 7.024 58.226 7.024C58.114 7.008 58.002 7.048 57.89 7.144C57.906 7.176 57.914 7.216 57.914 7.264C57.914 7.296 57.914 7.328 57.914 7.36ZM49.01 8.008C48.786 8.04 48.562 8.072 48.338 8.104C48.114 8.12 47.914 8.16 47.738 8.224C47.866 8.304 48.05 8.344 48.29 8.344C48.53 8.344 48.738 8.304 48.914 8.224C48.978 8.192 49.018 8.168 49.034 8.152C49.05 8.12 49.074 8.088 49.106 8.056C49.09 8.024 49.058 8.008 49.01 8.008ZM51.026 8.68C51.106 8.664 51.146 8.64 51.146 8.608C51.162 8.576 51.154 8.544 51.122 8.512C50.802 8.544 50.466 8.568 50.114 8.584C49.778 8.584 49.498 8.584 49.274 8.584C49.146 8.584 48.994 8.592 48.818 8.608C48.658 8.608 48.514 8.624 48.386 8.656C48.386 8.784 48.434 8.864 48.53 8.896C48.834 8.896 49.162 8.888 49.514 8.872C49.866 8.856 50.178 8.832 50.45 8.8C50.546 8.784 50.642 8.768 50.738 8.752C50.85 8.736 50.946 8.712 51.026 8.68ZM62.282 10.696C62.394 10.808 62.474 10.904 62.522 10.984C62.586 11.048 62.626 11.128 62.642 11.224C62.642 11.352 62.594 11.52 62.498 11.728C62.338 12.064 62.018 12.256 61.538 12.304C61.298 12.352 60.978 12.36 60.578 12.328C60.498 12.328 60.41 12.32 60.314 12.304C60.218 12.288 60.05 12.24 59.81 12.16C59.314 12.176 58.754 12.192 58.13 12.208C57.506 12.208 56.874 12.216 56.234 12.232C55.61 12.248 55.002 12.264 54.41 12.28C53.834 12.296 53.33 12.312 52.898 12.328L49.442 12.52L46.85 12.664C46.738 12.664 46.626 12.672 46.514 12.688C46.418 12.688 46.322 12.688 46.226 12.688C46.114 12.688 46.002 12.688 45.89 12.688C45.794 12.688 45.69 12.68 45.578 12.664C45.402 12.648 45.226 12.632 45.05 12.616C44.89 12.584 44.722 12.544 44.546 12.496C44.242 12.416 43.954 12.28 43.682 12.088C43.426 11.896 43.298 11.72 43.298 11.56C43.298 11.512 43.314 11.44 43.346 11.344C43.506 11.424 43.65 11.472 43.778 11.488C43.81 11.456 43.818 11.416 43.802 11.368C43.802 11.304 43.81 11.248 43.826 11.2C43.874 11.024 43.938 10.88 44.018 10.768C44.098 10.64 44.194 10.52 44.306 10.408C44.722 10.184 45.098 10.056 45.434 10.024L46.058 9.976C46.282 9.96 46.506 9.952 46.73 9.952C46.97 9.952 47.226 9.952 47.498 9.952H47.978L52.802 9.808C53.266 9.792 53.754 9.768 54.266 9.736C54.794 9.704 55.298 9.68 55.778 9.664C56.274 9.632 56.73 9.608 57.146 9.592C57.562 9.576 57.898 9.568 58.154 9.568C58.65 9.568 59.154 9.592 59.666 9.64L60.146 9.712C60.226 9.744 60.306 9.808 60.386 9.904C60.482 10 60.594 10.112 60.722 10.24C61.01 10.32 61.266 10.376 61.49 10.408C61.73 10.424 61.93 10.464 62.09 10.528L62.282 10.696ZM47.81 10.552C47.81 10.584 47.834 10.6 47.882 10.6C48.058 10.6 48.226 10.6 48.386 10.6C48.562 10.584 48.738 10.544 48.914 10.48C48.93 10.48 48.962 10.448 49.01 10.384C48.93 10.368 48.874 10.352 48.842 10.336C48.826 10.304 48.786 10.304 48.722 10.336C48.594 10.336 48.474 10.344 48.362 10.36C48.25 10.36 48.13 10.368 48.002 10.384C47.954 10.384 47.906 10.408 47.858 10.456C47.826 10.472 47.81 10.504 47.81 10.552ZM50.978 10.984C51.058 10.936 51.138 10.872 51.218 10.792C51.314 10.696 51.41 10.608 51.506 10.528L48.434 10.84L48.218 10.888C48.346 10.92 48.53 10.952 48.77 10.984C49.026 11 49.218 11.008 49.346 11.008H50.45C50.482 11.008 50.554 11.008 50.666 11.008C50.794 11.008 50.898 11 50.978 10.984ZM44.93 12.184C45.042 12.216 45.13 12.24 45.194 12.256C45.274 12.272 45.402 12.28 45.578 12.28C45.466 12.184 45.386 12.128 45.338 12.112C45.29 12.08 45.226 12.048 45.146 12.016C45.066 11.984 44.962 11.96 44.834 11.944C44.722 11.912 44.61 11.88 44.498 11.848C44.53 11.768 44.554 11.704 44.57 11.656C44.602 11.608 44.634 11.544 44.666 11.464C44.57 11.4 44.482 11.384 44.402 11.416C44.338 11.432 44.274 11.464 44.21 11.512C44.178 11.544 44.146 11.576 44.114 11.608C44.082 11.64 44.05 11.672 44.018 11.704C44.034 11.784 44.074 11.904 44.138 12.064L44.93 12.184ZM61.85 11.992C61.85 11.928 61.93 11.848 62.09 11.752L61.658 11.392C61.45 11.504 61.274 11.584 61.13 11.632C61.002 11.68 60.89 11.72 60.794 11.752C60.762 11.832 60.778 11.896 60.842 11.944C60.922 11.976 60.986 12 61.034 12.016C61.146 12.048 61.274 12.064 61.418 12.064C61.578 12.048 61.722 12.024 61.85 11.992ZM46.25 12.208C46.314 12.192 46.346 12.144 46.346 12.064C46.346 12.032 46.322 11.992 46.274 11.944C46.226 11.928 46.17 11.912 46.106 11.896C46.058 11.88 46.01 11.872 45.962 11.872C45.85 11.856 45.746 11.832 45.65 11.8C45.57 11.768 45.482 11.768 45.386 11.8C45.498 11.96 45.642 12.072 45.818 12.136C45.994 12.2 46.138 12.224 46.25 12.208ZM57.002 12.016C57.114 12.048 57.242 12.056 57.386 12.04C57.53 12.024 57.666 11.976 57.794 11.896C57.666 11.864 57.49 11.856 57.266 11.872C57.058 11.872 56.866 11.888 56.69 11.92C56.722 12 56.77 12.032 56.834 12.016C56.914 12 56.97 12 57.002 12.016ZM58.898 20.32C59.09 20.352 59.234 20.376 59.33 20.392C59.442 20.424 59.514 20.456 59.546 20.488C59.642 20.664 59.682 20.848 59.666 21.04C59.602 21.232 59.53 21.424 59.45 21.616C59.37 21.824 59.258 21.992 59.114 22.12C59.018 22.2 58.93 22.264 58.85 22.312C58.786 22.376 58.714 22.424 58.634 22.456C58.554 22.488 58.482 22.52 58.418 22.552C58.37 22.584 58.306 22.616 58.226 22.648C58.098 22.68 57.946 22.696 57.77 22.696C57.61 22.696 57.346 22.648 56.978 22.552C56.93 22.632 56.826 22.688 56.666 22.72C56.522 22.768 56.362 22.808 56.186 22.84C55.626 22.856 55.026 22.848 54.386 22.816C53.762 22.8 53.234 22.776 52.802 22.744C52.034 22.68 51.33 22.536 50.69 22.312C50.05 22.104 49.458 21.712 48.914 21.136C48.706 20.912 48.506 20.672 48.314 20.416C48.122 20.16 48.002 19.92 47.954 19.696C47.762 19.616 47.634 19.544 47.57 19.48C47.506 19.432 47.458 19.384 47.426 19.336C47.298 19.16 47.178 18.992 47.066 18.832C46.954 18.656 46.858 18.504 46.778 18.376C46.618 18.136 46.57 17.912 46.634 17.704C46.714 17.592 46.81 17.56 46.922 17.608C47.002 17.512 47.074 17.424 47.138 17.344C47.202 17.248 47.274 17.12 47.354 16.96C47.498 16.88 47.634 16.816 47.762 16.768C48.098 16.64 48.362 16.608 48.554 16.672C48.762 16.72 48.954 16.856 49.13 17.08L51.722 16.888C52.042 16.856 52.426 16.888 52.874 16.984C53.162 17 53.362 16.984 53.474 16.936C53.586 16.872 53.682 16.816 53.762 16.768L55.994 16.72C56.01 16.56 56.018 16.4 56.018 16.24C56.018 16.08 56.018 15.92 56.018 15.76C55.074 15.776 54.05 15.808 52.946 15.856C51.842 15.888 50.77 15.952 49.73 16.048C49.394 16.096 49.034 16.12 48.65 16.12C48.33 16.12 48.034 16.008 47.762 15.784C47.634 15.752 47.498 15.744 47.354 15.76C47.226 15.76 47.098 15.776 46.97 15.808C46.842 15.728 46.706 15.648 46.562 15.568C46.418 15.488 46.33 15.376 46.298 15.232C46.266 15.152 46.25 15.088 46.25 15.04C46.266 14.976 46.282 14.912 46.298 14.848C46.346 14.704 46.458 14.672 46.634 14.752L46.706 14.08C46.786 13.952 46.882 13.864 46.994 13.816C47.122 13.768 47.234 13.752 47.33 13.768C47.474 13.784 47.594 13.8 47.69 13.816C47.786 13.832 47.882 13.84 47.978 13.84C48.074 13.84 48.178 13.84 48.29 13.84C48.402 13.824 48.546 13.808 48.722 13.792C49.218 13.744 49.754 13.696 50.33 13.648C50.906 13.6 51.49 13.56 52.082 13.528C52.69 13.496 53.29 13.472 53.882 13.456C54.49 13.424 55.074 13.4 55.634 13.384H56.762H57.602L57.698 13.36C58.018 13.28 58.274 13.256 58.466 13.288C58.546 13.288 58.61 13.296 58.658 13.312C58.706 13.312 58.754 13.32 58.802 13.336C58.946 13.384 59.066 13.48 59.162 13.624C59.258 13.752 59.314 13.872 59.33 13.984C59.346 14.08 59.346 14.24 59.33 14.464L59.234 15.064C59.202 15.192 59.138 15.248 59.042 15.232C59.01 15.136 58.986 14.984 58.97 14.776C58.954 14.568 58.97 14.408 59.018 14.296C59.034 14.232 59.042 14.152 59.042 14.056C59.058 13.96 59.05 13.88 59.018 13.816C58.938 13.816 58.866 13.832 58.802 13.864C58.738 13.88 58.682 13.944 58.634 14.056C58.586 14.168 58.538 14.344 58.49 14.584C58.458 14.808 58.426 15.008 58.394 15.184C58.362 15.312 58.338 15.44 58.322 15.568C58.306 15.696 58.298 15.824 58.298 15.952C58.362 15.952 58.418 15.992 58.466 16.072C58.498 16.216 58.506 16.368 58.49 16.528C58.474 16.672 58.466 16.816 58.466 16.96L58.634 17.104L58.778 17.344C58.826 17.472 58.826 17.632 58.778 17.824C58.762 17.856 58.738 17.904 58.706 17.968C58.69 18.016 58.634 18.056 58.538 18.088C58.522 18.12 58.498 18.176 58.466 18.256C58.45 18.336 58.45 18.44 58.466 18.568C58.338 18.744 58.218 18.864 58.106 18.928C58.01 18.976 57.866 19 57.674 19C57.434 19.016 57.138 19.016 56.786 19C56.434 18.984 56.066 18.968 55.682 18.952C55.506 18.952 55.234 18.96 54.866 18.976C54.498 18.976 54.082 18.984 53.618 19C53.154 19.016 52.674 19.04 52.178 19.072C51.682 19.104 51.218 19.128 50.786 19.144L51.314 19.504C51.73 19.76 52.138 19.92 52.538 19.984C52.938 20.048 53.442 20.064 54.05 20.032C54.482 20.128 54.938 20.176 55.418 20.176C55.898 20.176 56.33 20.152 56.714 20.104C56.762 20.088 56.834 20.048 56.93 19.984C57.026 19.936 57.122 19.88 57.218 19.816C57.33 19.768 57.434 19.72 57.53 19.672C57.642 19.624 57.73 19.6 57.794 19.6C57.922 19.568 58.05 19.552 58.178 19.552C58.306 19.568 58.434 19.616 58.562 19.696C58.834 19.824 58.946 20.032 58.898 20.32ZM52.034 14.056C52.082 14.088 52.122 14.096 52.154 14.08C52.202 14.048 52.218 14 52.202 13.936C52.122 13.872 52.026 13.832 51.914 13.816C51.818 13.8 51.714 13.792 51.602 13.792C51.186 13.76 50.77 13.76 50.354 13.792C49.954 13.808 49.546 13.88 49.13 14.008C49.226 14.04 49.29 14.056 49.322 14.056C49.482 14.088 49.65 14.104 49.826 14.104C50.018 14.104 50.202 14.104 50.378 14.104C50.666 14.104 50.946 14.088 51.218 14.056C51.49 14.024 51.762 14.024 52.034 14.056ZM54.674 14.704C54.626 14.72 54.586 14.752 54.554 14.8C54.538 14.848 54.522 14.896 54.506 14.944C54.634 14.944 54.73 14.944 54.794 14.944C54.874 14.944 54.962 14.936 55.058 14.92C55.17 14.904 55.218 14.864 55.202 14.8C55.202 14.768 55.162 14.736 55.082 14.704C55.034 14.688 54.97 14.688 54.89 14.704C54.81 14.704 54.738 14.704 54.674 14.704ZM57.962 14.944C57.898 15.152 57.858 15.448 57.842 15.832C57.826 16.2 57.834 16.512 57.866 16.768C57.946 16.784 58.002 16.728 58.034 16.6C58.05 16.328 58.058 16.072 58.058 15.832C58.074 15.576 58.082 15.32 58.082 15.064C58.082 15.048 58.066 15.032 58.034 15.016C58.002 15 57.978 14.976 57.962 14.944ZM55.922 15.352C55.938 15.352 55.97 15.32 56.018 15.256C55.938 15.24 55.882 15.224 55.85 15.208C55.834 15.176 55.794 15.176 55.73 15.208C55.602 15.208 55.482 15.216 55.37 15.232C55.258 15.232 55.138 15.24 55.01 15.256C54.962 15.256 54.914 15.28 54.866 15.328C54.834 15.344 54.818 15.376 54.818 15.424C54.818 15.456 54.842 15.472 54.89 15.472C55.066 15.472 55.234 15.472 55.394 15.472C55.57 15.456 55.746 15.416 55.922 15.352ZM56.906 16.648C56.874 16.68 56.842 16.752 56.81 16.864C56.986 16.928 57.13 16.936 57.242 16.888C57.37 16.824 57.514 16.776 57.674 16.744C57.674 16.552 57.674 16.4 57.674 16.288C57.69 16.16 57.69 16.064 57.674 16C57.674 15.92 57.658 15.856 57.626 15.808C57.61 15.744 57.586 15.68 57.554 15.616C57.474 15.632 57.434 15.68 57.434 15.76C57.434 15.824 57.41 15.88 57.362 15.928C57.266 15.944 57.178 15.984 57.098 16.048C57.034 16.112 57.01 16.216 57.026 16.36C57.042 16.472 57.002 16.568 56.906 16.648ZM51.266 20.08C51.378 20.08 51.466 20.064 51.53 20.032C51.594 20.016 51.642 20 51.674 19.984C51.546 19.952 51.402 19.88 51.242 19.768C51.082 19.672 50.962 19.584 50.882 19.504C50.738 19.392 50.594 19.272 50.45 19.144C50.306 19.016 50.146 18.856 49.97 18.664C49.81 18.472 49.618 18.248 49.394 17.992C49.186 17.736 48.93 17.416 48.626 17.032L48.554 17.056C48.538 17.136 48.522 17.216 48.506 17.296C48.506 17.36 48.53 17.432 48.578 17.512L49.442 18.592C49.346 18.56 49.258 18.52 49.178 18.472C49.098 18.424 49.018 18.376 48.938 18.328C48.97 18.44 49.01 18.552 49.058 18.664C49.106 18.776 49.178 18.872 49.274 18.952C49.418 19.096 49.538 19.2 49.634 19.264C49.746 19.344 49.882 19.448 50.042 19.576C50.154 19.64 50.322 19.728 50.546 19.84C50.786 19.968 51.026 20.048 51.266 20.08ZM56.33 17.992C56.026 17.96 55.73 17.96 55.442 17.992C55.154 18.024 54.834 18.064 54.482 18.112C54.546 18.192 54.618 18.232 54.698 18.232C55.258 18.264 55.786 18.264 56.282 18.232C56.33 18.232 56.354 18.232 56.354 18.232C56.37 18.216 56.394 18.2 56.426 18.184C56.49 18.184 56.538 18.152 56.57 18.088C56.538 18.024 56.458 17.992 56.33 17.992ZM57.722 18.352C57.45 18.416 57.162 18.456 56.858 18.472C56.554 18.488 56.266 18.496 55.994 18.496V18.64C56.266 18.752 56.594 18.792 56.978 18.76C57.378 18.712 57.706 18.624 57.962 18.496L57.722 18.352ZM49.946 20.056C49.994 19.976 49.978 19.896 49.898 19.816C49.69 19.64 49.49 19.472 49.298 19.312C49.106 19.152 48.906 18.992 48.698 18.832C48.682 18.848 48.666 18.856 48.65 18.856C48.586 18.856 48.554 18.856 48.554 18.856C48.682 19.032 48.89 19.24 49.178 19.48C49.466 19.72 49.722 19.912 49.946 20.056ZM49.514 20.272C49.546 20.24 49.546 20.184 49.514 20.104C49.482 20.072 49.426 20.024 49.346 19.96C49.282 19.912 49.234 19.864 49.202 19.816C49.138 19.8 49.042 19.824 48.914 19.888C48.994 19.968 49.066 20.032 49.13 20.08C49.194 20.128 49.266 20.184 49.346 20.248C49.41 20.296 49.442 20.32 49.442 20.32C49.458 20.32 49.482 20.304 49.514 20.272ZM56.258 20.872C56.258 20.904 56.274 20.936 56.306 20.968C56.434 21.048 56.538 21 56.618 20.824C56.506 20.792 56.41 20.784 56.33 20.8L56.258 20.872ZM58.73 22C58.858 21.92 58.922 21.84 58.922 21.76C58.938 21.68 58.882 21.584 58.754 21.472C58.626 21.344 58.53 21.264 58.466 21.232C58.386 21.344 58.346 21.432 58.346 21.496C58.298 21.512 58.25 21.544 58.202 21.592C58.17 21.64 58.122 21.664 58.058 21.664C57.93 21.664 57.826 21.688 57.746 21.736C57.682 21.8 57.61 21.88 57.53 21.976C57.498 21.96 57.458 21.936 57.41 21.904C57.362 21.888 57.314 21.864 57.266 21.832C57.234 21.816 57.194 21.792 57.146 21.76C57.098 21.744 57.05 21.728 57.002 21.712C57.098 21.888 57.234 22.04 57.41 22.168C57.602 22.296 57.858 22.36 58.178 22.36C58.258 22.328 58.346 22.28 58.442 22.216C58.538 22.152 58.634 22.08 58.73 22ZM56.378 21.64C56.426 21.72 56.474 21.752 56.522 21.736C56.57 21.736 56.626 21.72 56.69 21.688C56.658 21.608 56.618 21.536 56.57 21.472C56.538 21.408 56.506 21.344 56.474 21.28C56.33 21.408 56.298 21.528 56.378 21.64ZM52.994 22.408C53.41 22.44 53.818 22.448 54.218 22.432C54.634 22.432 55.05 22.368 55.466 22.24C55.37 22.208 55.306 22.192 55.274 22.192C54.954 22.144 54.602 22.12 54.218 22.12C53.93 22.12 53.65 22.128 53.378 22.144C53.106 22.176 52.834 22.176 52.562 22.144C52.514 22.112 52.466 22.104 52.418 22.12C52.386 22.152 52.378 22.2 52.394 22.264C52.474 22.328 52.562 22.368 52.658 22.384C52.77 22.4 52.882 22.408 52.994 22.408ZM82.3606 5.224C82.4806 6.352 82.4566 7.528 82.4326 8.728C82.4326 9.088 82.4086 9.424 82.4086 9.736C82.1686 9.736 81.9766 9.712 81.8326 9.712C81.3766 9.712 79.9846 9.976 79.6486 10.192C79.3606 10.384 79.2406 10.72 79.2406 10.864C79.2406 11.296 79.5766 11.752 79.9126 12.064C80.2726 12.4 80.8006 12.856 81.2086 12.808C81.4246 12.784 81.8566 12.664 82.3126 12.544C82.3126 12.808 82.3126 13.072 82.3366 13.384C82.4086 15.208 82.9366 16.504 83.3446 17.632C84.5446 15.952 85.5286 15.208 85.6006 12.736C85.6966 9.664 85.5526 6.544 85.4566 4.048C85.4326 3.568 85.3606 3.232 85.0726 2.824C84.7846 2.416 83.9206 1.6 83.4406 1.264C83.2006 1.096 82.7206 0.879999 82.4086 0.975999C82.0006 1.096 81.2566 1.528 80.9926 1.96C80.8486 2.2 81.0166 2.488 81.2806 2.824C81.9286 3.664 82.2406 4.144 82.3606 5.224ZM75.5206 11.08C77.9686 10.936 79.7926 9.448 79.7926 7.384C79.7926 5.248 77.5606 3.544 75.3046 3.304C74.8486 3.256 74.4406 3.472 74.2726 3.808C72.5446 4.384 70.9366 5.92 70.9366 7.528C70.9366 9.592 73.2646 11.224 75.5206 11.08ZM75.0646 5.848C75.1366 5.896 75.2566 5.992 75.3766 6.016C76.0486 6.16 76.8166 6.544 76.8406 7.168C76.8646 7.96 76.1206 8.392 75.3046 8.392C74.7046 8.392 73.8406 8.008 73.8406 7.288C73.8406 6.616 74.4886 5.968 75.0646 5.848ZM78.9286 13.84C79.2166 13.552 79.5286 13.12 79.5286 12.76C79.5286 12.568 79.2646 12.256 78.9046 12.016C78.4966 11.728 78.1366 11.656 77.8246 11.68C77.4886 11.704 77.2486 11.872 76.8646 11.896C76.0726 11.944 73.3606 12.16 72.6166 12.088C72.1606 12.04 71.7766 11.896 71.3686 11.656C70.7446 11.272 70.3846 11.176 69.8086 11.8C69.2806 12.352 69.2086 12.736 69.5206 13.168C69.7366 13.48 70.1926 13.984 70.4326 14.176C71.0566 14.656 71.6806 14.824 72.3766 14.896C72.7606 14.944 73.2406 14.92 73.7686 14.896C73.0006 15.76 72.1126 16.672 71.2486 17.248C70.4086 17.8 69.2326 18.304 68.5126 18.28C69.0646 18.808 70.0726 19.264 70.8886 19.36C71.8966 19.48 73.2166 19.552 74.7046 18.184C75.6406 17.344 76.9606 15.664 77.9686 14.32C78.3286 14.224 78.6886 14.08 78.9286 13.84ZM86.2966 20.128C85.8166 19.312 85.0246 18.64 84.0886 18.784C83.6086 18.856 81.7126 19.024 81.2086 19.024C80.8966 19.024 80.7766 19 80.4166 18.712C79.9366 18.328 79.2646 17.656 78.5206 16.912C77.9926 16.384 77.3446 16.264 76.5766 16.84C76.0246 17.248 75.6406 18.184 76.1686 18.856C76.6006 19.408 77.5366 20.368 78.4246 21.112C79.4086 21.928 80.0566 22.288 80.7766 22.336C81.3766 22.384 82.0006 22.408 82.6966 22.384C84.1846 22.336 84.8086 22.24 86.0086 21.496C86.5846 21.136 86.7046 20.824 86.2966 20.128ZM102.176 14.776C103.232 13.648 104.096 11.968 104.144 10.696C104.192 9.064 104.216 6.424 104.216 4.864C104.216 3.712 104.096 2.992 103.592 2.344C103.232 1.864 102.92 1.576 102.248 1.096C101.768 0.759999 101.648 0.783998 101.12 1.072C100.952 1.168 100.352 1.72 100.184 1.912C99.8963 2.248 99.9443 2.416 100.304 2.944C100.856 3.76 101 3.976 100.904 5.008C100.88 5.392 100.832 5.944 100.808 6.544C100.16 6.52 99.4883 6.544 99.1523 6.568C98.4323 6.616 97.3283 6.808 97.2563 7.456C97.2083 7.84 97.4243 8.248 97.6883 8.512C98.2883 9.112 99.1043 9.688 99.8963 9.712C100.16 9.712 100.448 9.712 100.736 9.688C100.712 10.552 100.784 11.44 100.928 12.208C101.096 13.12 101.672 13.744 101.912 14.584C101.144 14.104 100.256 13.792 99.3683 13.768C99.1523 13.768 98.7443 13.816 98.5043 13.96C94.7363 14.272 92.0963 15.832 92.0963 18.592C92.0963 19.912 93.2483 21.208 94.2563 21.544C95.3843 22.264 96.8483 22.696 98.3363 22.696C101.72 22.696 104.216 21.256 104.216 18.544C104.216 17.008 103.352 15.64 102.176 14.776ZM94.1843 10.936C94.5683 11.44 95.0483 12.064 95.2643 12.304C96.0803 13.264 97.1123 13.528 98.0483 13.072C98.9363 12.64 99.0323 11.128 98.0483 10.168C97.6163 9.76 96.3203 9.04 95.6723 8.728C96.2003 7.864 96.6803 7.048 96.9923 6.472C97.6643 5.2 97.8323 4.816 97.3523 4.168C97.0883 3.808 96.7283 3.592 96.2963 3.592C95.9843 3.592 95.5763 3.712 95.3603 3.736C94.3523 3.856 92.1203 4 91.6163 4C91.0403 4 90.7283 3.928 90.1523 3.64C89.8163 3.472 89.6003 3.448 89.3123 3.712C89.0723 3.928 88.7603 4.264 88.6163 4.408C88.3043 4.72 88.3763 4.936 88.5683 5.224C89.0483 5.92 89.7443 6.712 90.8483 6.712C91.4723 6.712 92.4563 6.616 93.1763 6.568C92.1683 8.392 90.1523 10.912 89.0003 11.728C88.5923 12.016 88.0643 12.304 87.4163 12.376C87.2003 12.4 87.2483 12.592 87.3923 12.712C88.9043 13.984 90.7763 14.32 92.4563 12.952C92.8883 12.592 93.5123 11.824 94.1843 10.936ZM98.5523 19.768C96.8003 19.768 95.7443 19.12 95.7923 18.112C95.8403 17.224 97.2803 16.384 98.8883 16.312C100.088 16.84 100.976 17.344 100.976 18.328C100.976 19.336 99.7763 19.768 98.5523 19.768ZM125.208 4.84C125.184 3.064 124.848 2.416 123.408 1.288C122.64 0.688 122.304 0.783998 121.536 1.48C120.816 2.128 120.672 2.488 121.176 3.088C121.608 3.616 121.824 4.168 121.824 5.392C121.824 6.664 121.824 8.608 121.8 10.648C121.512 10.624 121.224 10.6 121.008 10.6C120.696 10.6 120.36 10.6 120.024 10.624C120.024 9.328 120.024 7.984 120 6.856C119.976 5.104 119.688 4.36 118.272 3.232C117.528 2.632 117.144 2.728 116.352 3.4C115.656 4 115.44 4.408 115.944 5.008C116.352 5.512 116.64 6.016 116.64 7.24C116.64 9.976 116.52 13.936 116.52 16.864C116.52 18.28 117.288 20.128 117.504 21.4C118.2 20.632 118.752 19.552 119.328 18.496C119.76 17.704 119.904 16.408 119.952 15.376L120 13.816C120.336 13.864 120.672 13.888 120.936 13.864C121.176 13.864 121.464 13.84 121.776 13.792C121.752 15.496 121.704 17.104 121.68 18.256C121.656 19.048 121.8 19.96 122.016 20.68C122.256 21.496 122.448 22.168 122.52 22.84C124.344 20.968 125.232 19.024 125.232 16.528C125.232 14.32 125.256 8.224 125.208 4.84ZM115.8 13.504C115.128 13.624 114.096 13.744 113.712 13.768C113.04 13.816 112.032 13.792 111.12 13.768C111.12 12.448 111.072 10.864 111.048 9.688C112.464 9.688 114.072 9.592 114.696 9.4C115.392 9.184 115.488 8.776 115.224 8.176C115.008 7.744 114.576 7.096 114.216 6.76C113.88 6.448 113.544 6.328 113.088 6.4C111.84 6.568 111.192 6.664 109.848 6.664C109.368 6.664 109.032 6.592 108.672 6.472C108.336 6.352 107.928 6.616 107.736 6.928C107.52 7.288 107.256 7.72 107.232 8.128C107.208 8.56 107.352 8.872 107.592 9.112C107.664 10.744 107.664 12.304 107.76 13.96V14.128L107.736 14.152C107.184 14.704 107.112 15.52 107.424 16.312C107.664 16.936 108.24 17.344 108.888 17.296C109.488 17.248 112.2 17.104 113.256 17.056C114.432 17.008 115.296 16.384 115.776 15.352C115.968 14.944 116.16 14.32 116.232 13.864C116.28 13.576 116.136 13.456 115.8 13.504Z" fill="#FF8902"/>
<path d="M146.856 16.768C146.632 16.576 146.312 16.368 145.88 16.48C145.736 16.528 145.528 16.56 145.336 16.592C145.32 15.152 145.304 13.632 145.304 12.544C145.304 11.36 145.08 10.928 144.072 10.176C143.528 9.776 143.352 9.856 142.792 10.304C142.248 10.752 142.072 10.944 142.456 11.392C142.744 11.728 142.984 12.064 143 12.896C143.048 14.896 142.952 19.2 142.904 21.36C142.872 22.464 143.416 23.696 144.072 24.56C144.12 24.048 144.696 23.2 145 22.48C145.256 21.872 145.416 21.04 145.4 20.352C145.4 20 145.384 19.504 145.368 18.928C145.72 18.928 146.088 18.928 146.36 18.912C147.064 18.88 147.784 18.496 147.784 18C147.784 17.696 147.208 17.072 146.856 16.768ZM139.784 17.12C140.072 16.544 140.296 15.952 140.456 15.392C140.68 14.592 140.696 14.192 140.216 13.712C139.864 13.36 139.48 13.12 139.128 12.944C138.84 12.8 138.712 12.816 138.488 12.944C138.248 13.088 137.912 13.456 137.832 13.648C137.752 13.84 137.768 13.84 138.024 14.16C138.248 14.448 138.264 14.656 138.072 15.136C137.32 17.008 136.2 18.816 134.648 20.016C134.36 20.24 134.008 20.4 133.752 20.4C133.544 20.4 133.64 20.512 133.88 20.656C134.424 20.976 135.112 21.104 135.688 21.088C136.632 21.056 137.08 20.912 137.832 20.144C138.136 19.84 138.488 19.376 138.84 18.832C139.24 19.28 139.624 19.792 139.848 20.096C140.376 20.832 141.272 21.232 141.88 20.864C142.568 20.448 142.536 19.408 141.832 18.576C141.448 18.112 140.44 17.44 139.784 17.12ZM159.742 14.88C159.518 14.688 159.198 14.48 158.766 14.592L158.286 14.688L158.334 12.576C158.35 11.808 158.238 11.328 157.902 10.896C157.662 10.576 157.438 10.384 156.99 10.064C156.67 9.84 156.59 9.856 156.238 10.048C156.126 10.112 155.646 10.48 155.534 10.608C155.342 10.832 155.374 10.944 155.614 11.296C155.982 11.84 156.046 11.984 156.014 12.672C155.966 13.632 155.854 15.088 155.87 15.904C155.902 16.976 155.934 17.904 156.366 18.784C155.934 18.608 155.47 18.512 154.958 18.512C154.814 18.512 154.542 18.544 154.382 18.64C152.11 18.848 150.158 19.888 150.302 21.728C150.366 22.512 150.862 23.424 151.662 23.696C152.414 24.176 153.438 24.464 154.43 24.464C156.526 24.464 158.158 23.504 158.222 21.792C158.254 20.672 157.806 19.744 157.022 19.168C157.534 18.576 157.934 17.712 158.078 17.2C158.094 17.12 158.126 16.992 158.142 16.832C158.494 16.832 158.91 16.832 159.214 16.816C159.934 16.784 160.638 16.448 160.638 16C160.638 15.696 160.094 15.184 159.742 14.88ZM152.078 16.544C152.334 16.896 152.686 17.28 152.814 17.44C153.374 18.096 154.046 18.176 154.542 17.952C155.07 17.712 155.262 16.688 154.67 16.048C154.414 15.776 153.694 15.36 153.214 15.136C153.582 14.64 153.918 14.192 154.142 13.856C154.702 13.04 154.622 12.816 154.254 12.288C154.062 12.016 153.838 11.92 153.55 11.92C153.342 11.92 153.07 11.984 152.926 12C152.254 12.08 150.798 12.144 150.382 12.112C149.998 12.08 149.79 12.064 149.406 11.872C149.182 11.76 149.038 11.744 148.846 11.92C148.686 12.064 148.478 12.288 148.382 12.384C148.174 12.592 148.222 12.736 148.35 12.928C148.67 13.392 149.182 13.824 149.918 13.92C150.27 13.968 150.894 13.904 151.55 13.872C150.67 15.056 149.326 16.352 148.542 16.832C148.254 17.008 147.854 17.184 147.486 17.232C147.374 17.248 147.39 17.344 147.47 17.424C147.79 17.744 148.238 18.064 148.606 18.192C149.406 18.464 150.126 18.352 150.91 17.76C151.198 17.536 151.63 17.088 152.078 16.544ZM154.398 22.512C153.886 22.496 153.262 22.4 152.894 22.192C152.654 21.952 152.542 21.68 152.558 21.392C152.59 20.8 153.758 20.256 154.622 20.208C155.39 20.496 156.014 20.832 156.014 21.568C156.014 22.272 155.214 22.544 154.398 22.512ZM170.965 10.912C170.725 10.592 170.485 10.352 170.149 10.096C169.845 9.872 169.701 9.872 169.317 10.064C169.125 10.16 168.789 10.432 168.645 10.624C168.469 10.864 168.517 10.976 168.725 11.312C168.997 11.76 169.029 11.984 169.013 12.672C168.981 13.824 168.949 14.704 168.885 15.44C167.445 15.76 165.509 15.92 163.733 15.984C163.749 15.36 163.749 14.224 163.749 13.632C163.749 13.152 163.365 12.576 162.853 12.192C162.485 11.92 162.197 11.888 161.957 12.032C161.573 12.256 161.317 12.496 161.125 12.832C160.917 13.2 160.949 13.344 161.141 13.568C161.413 13.888 161.445 14.256 161.461 14.608C161.477 15.12 161.413 16.368 161.333 17.008C161.285 17.376 161.797 18.048 162.453 18.08C163.285 18.128 165.045 18.048 166.357 17.872C167.141 17.76 168.309 17.36 168.869 17.008C168.885 17.2 168.933 17.392 168.981 17.568C169.109 18 169.365 18.336 169.557 18.704C169.333 18.72 169.173 18.784 168.981 18.848C168.165 18.848 166.165 18.928 164.773 18.992C164.549 18.624 163.925 18.704 163.365 18.816C162.837 18.928 162.341 19.232 162.357 19.664C162.373 19.824 162.453 19.952 162.581 20.08C162.709 20.224 162.837 20.432 162.933 20.864C163.029 21.312 163.333 22.832 163.381 23.024C163.605 24.112 164.213 24.432 164.757 24.368C164.869 24.352 164.965 24.288 165.045 24.208C167.125 24.176 169.221 24.176 169.749 24.176C170.437 24.176 170.901 23.664 170.885 23.024C170.885 22.88 170.805 22.736 170.677 22.624C170.805 21.904 170.949 20.816 171.013 20.112C171.189 19.968 171.269 19.76 171.189 19.424C171.125 19.136 170.917 18.848 170.325 18.736C170.837 18.048 171.205 17.2 171.221 16.528C171.253 15.44 171.269 14.224 171.269 12.576C171.269 11.808 171.301 11.344 170.965 10.912ZM168.677 20.736H168.725L168.645 22.256C167.765 22.304 166.357 22.4 165.365 22.448C165.317 22.016 165.237 21.408 165.141 20.8C166.693 20.72 167.845 20.672 168.677 20.736ZM184.495 14.4C184.095 14.416 183.007 14.592 183.007 15.04C183.007 15.44 183.279 15.872 183.695 16.176C184.079 16.464 184.527 16.576 185.071 16.544C185.151 16.544 185.231 16.528 185.343 16.528L185.311 16.848C185.247 17.472 185.231 18.064 185.279 18.848C185.327 19.52 185.967 20.08 186.255 20.688C186.943 20.368 187.567 19.12 187.647 18C187.711 17.056 187.663 14.384 187.711 13.072C187.727 12.688 187.695 12.08 187.647 11.776C187.583 11.328 187.455 11.168 187.103 10.816C186.927 10.64 186.303 10.192 186.111 10.112C185.951 10.048 185.759 10 185.535 10.064C185.327 10.128 184.991 10.432 184.895 10.576C184.767 10.768 184.719 10.96 184.799 11.072C184.911 11.216 185.039 11.44 185.119 11.552C185.343 11.872 185.439 12.032 185.439 12.432C185.439 13.136 185.439 13.792 185.423 14.384C185.071 14.384 184.719 14.4 184.495 14.4ZM180.863 17.232C181.119 17.6 181.551 18.16 181.711 18.336C182.287 19.008 183.391 19.024 183.695 18.704C184.079 18.288 184.111 17.44 183.599 16.832C183.199 16.352 182.335 15.984 181.919 15.824C182.367 15.216 182.767 14.624 183.023 14.224C183.551 13.408 183.519 13.104 183.151 12.576C182.959 12.304 182.687 12.176 182.399 12.208C181.839 12.256 179.823 12.432 179.135 12.4C178.751 12.384 178.543 12.352 178.159 12.16C177.935 12.048 177.791 12.032 177.599 12.208C177.439 12.352 177.231 12.576 177.135 12.672C176.927 12.88 176.975 13.104 177.103 13.296C177.423 13.76 178.047 14.288 178.783 14.32C179.135 14.336 179.775 14.32 180.399 14.288C179.551 15.504 178.143 16.992 177.343 17.472C177.055 17.648 176.703 17.728 176.335 17.776C176.223 17.792 176.239 17.92 176.319 18C176.639 18.32 177.087 18.688 177.455 18.816C178.255 19.088 179.007 18.96 179.791 18.368C180.063 18.16 180.447 17.744 180.863 17.232ZM188.287 22.528C188.159 22.256 187.935 21.936 187.711 21.728C187.423 21.472 187.359 21.424 186.815 21.648C186.511 21.776 185.999 21.84 185.663 21.856C185.039 21.888 183.935 21.872 183.551 21.84C183.119 21.808 182.895 21.76 182.527 21.392C182.079 20.944 181.615 20.368 181.135 19.792C180.943 19.568 180.671 19.52 180.319 19.568C180.063 19.6 179.615 19.712 179.247 19.84C178.767 20 178.559 20.144 178.559 20.512C178.559 20.8 178.719 20.976 178.959 21.088C179.231 21.216 179.519 21.488 179.743 21.728C180.047 22.064 180.623 22.704 181.135 23.248C181.711 23.856 181.999 23.984 182.863 24.032C183.423 24.064 185.391 24.112 185.855 24.096C186.847 24.064 187.311 24.064 188.063 23.424C188.383 23.152 188.495 22.976 188.287 22.528ZM202.242 17.104C201.906 16.816 201.426 16.592 200.946 16.512C200.498 16.432 200.066 16.416 199.618 16.416C199.458 16.416 199.266 16.416 199.026 16.432L199.106 15.792C199.154 15.456 199.09 15.184 198.85 15.056C198.754 15.008 198.61 14.96 198.45 14.928C198.882 14.512 199.266 13.984 199.298 13.344C199.362 12.128 198.082 10.512 196.738 10.512C196.546 10.512 196.354 10.544 196.226 10.592C195.634 10.56 194.754 10.896 194.034 11.264C193.314 11.632 192.306 12.336 192.194 13.296C192.13 13.888 192.53 14.496 192.978 14.832C193.106 14.928 193.202 14.992 193.314 15.04C193.122 15.152 192.962 15.28 192.85 15.392C192.722 15.536 192.69 15.696 192.802 15.856C192.914 16.016 193.01 16.304 193.058 16.624C191.906 16.656 191.01 16.672 190.338 16.704C189.762 16.736 188.914 17.424 188.914 17.808C188.914 18.016 189.346 18.48 189.746 18.576C190.114 18.672 190.498 18.72 190.866 18.704C192.562 18.624 194.93 18.496 195.794 18.48C197.522 18.448 199.682 18.368 201.234 18.48C201.89 18.528 202.306 18.544 202.514 18C202.674 17.568 202.61 17.424 202.242 17.104ZM195.074 12.608C195.346 12.48 195.73 12.336 196.242 12.24C196.37 12.208 196.498 12.192 196.594 12.176C196.738 12.288 196.882 12.416 196.946 12.448C197.09 12.528 197.314 12.816 197.298 13.088C197.266 13.632 196.722 13.808 195.89 13.808C195.522 13.808 195.234 13.76 195.074 13.728C195.058 13.712 195.042 13.696 195.026 13.696C194.77 13.6 194.482 13.424 194.482 13.184C194.482 12.992 194.722 12.8 195.074 12.608ZM195.73 16.576C195.538 16.576 195.362 16.592 195.186 16.592C195.154 16.224 195.106 15.888 195.01 15.584C195.362 15.648 195.762 15.68 196.082 15.68C196.338 15.68 196.61 15.664 196.898 15.632C196.93 15.76 196.962 15.888 196.962 16.016C196.962 16.192 196.946 16.352 196.93 16.528L195.73 16.576ZM196.242 18.912C195.922 18.896 195.458 18.928 195.186 19.104C193.874 19.216 191.938 20.08 191.698 21.104C191.65 21.312 191.698 21.52 191.698 21.728C191.698 23.408 193.89 24.352 196.002 24.352C197.714 24.352 199.746 23.648 199.89 22.048C200.05 20.352 198.082 19.008 196.242 18.912ZM197.73 21.664C197.698 22.288 196.674 22.464 195.97 22.464C195.074 22.464 194.258 22.352 193.794 21.664C194.274 20.992 195.218 20.624 195.922 20.608C196.914 20.688 197.762 21.152 197.73 21.664Z" fill="#FFDC4C"/>
</svg>
