<svg width="11" height="18" viewBox="0 0 11 18" fill="none" xmlns="http://www.w3.org/2000/svg">
<path d="M0.445312 8.94922C0.445312 9.34961 0.591797 9.68164 0.914062 9.99414L8.43359 17.3477C8.67773 17.6016 8.99023 17.7285 9.35156 17.7285C10.084 17.7285 10.6699 17.1426 10.6699 16.4102C10.6699 16.0391 10.5234 15.7168 10.2598 15.4531L3.58008 8.93945L10.2598 2.44531C10.5234 2.18164 10.6699 1.84961 10.6699 1.48828C10.6699 0.755859 10.084 0.179688 9.35156 0.179688C8.98047 0.179688 8.67773 0.296875 8.43359 0.550781L0.914062 7.9043C0.591797 8.2168 0.455078 8.54883 0.445312 8.94922Z" fill="#25282B"/>
</svg>
