<svg width="34" height="22" viewBox="0 0 34 22" fill="none" xmlns="http://www.w3.org/2000/svg">
<path d="M0 10C0 4.47715 4.47715 0 10 0H24C29.5228 0 34 4.47715 34 10V12C34 17.5228 29.5228 22 24 22H10C4.47715 22 0 17.5228 0 12V10Z" fill="white"/>
<path d="M11.335 15H12.175V10.94C12.175 10.31 12.105 9.42 12.065 8.78H12.105L12.685 10.45L14.075 14.26H14.695L16.085 10.45L16.665 8.78H16.705C16.655 9.42 16.585 10.31 16.585 10.94V15H17.455V7.67H16.335L14.935 11.59C14.765 12.1 14.605 12.61 14.435 13.12H14.385C14.205 12.61 14.035 12.1 13.865 11.59L12.455 7.67H11.335V15ZM19.4602 17.34C20.5402 17.34 21.1002 16.52 21.4802 15.45L23.5302 9.57H22.6402L21.6702 12.59C21.5202 13.07 21.3602 13.62 21.2102 14.11H21.1602C20.9902 13.62 20.8002 13.06 20.6402 12.59L19.5302 9.57H18.5802L20.7602 15.01L20.6402 15.42C20.4202 16.09 20.0302 16.59 19.4102 16.59C19.2702 16.59 19.1102 16.54 19.0002 16.5L18.8202 17.23C18.9902 17.3 19.2002 17.34 19.4602 17.34Z" fill="#FF8902"/>
<path d="M10 1H24V-1H10V1ZM33 10V12H35V10H33ZM24 21H10V23H24V21ZM1 12V10H-1V12H1ZM10 21C5.02944 21 1 16.9706 1 12H-1C-1 18.0751 3.92487 23 10 23V21ZM33 12C33 16.9706 28.9706 21 24 21V23C30.0751 23 35 18.0751 35 12H33ZM24 1C28.9706 1 33 5.02944 33 10H35C35 3.92487 30.0751 -1 24 -1V1ZM10 -1C3.92487 -1 -1 3.92487 -1 10H1C1 5.02944 5.02944 1 10 1V-1Z" fill="#FF8902"/>
</svg>
