<svg width="18" height="17" viewBox="0 0 18 17" fill="none" xmlns="http://www.w3.org/2000/svg">
<path d="M8.25 2.83331H3C2.60218 2.83331 2.22064 2.98257 1.93934 3.24824C1.65804 3.51392 1.5 3.87426 1.5 4.24998V14.1666C1.5 14.5424 1.65804 14.9027 1.93934 15.1684C2.22064 15.4341 2.60218 15.5833 3 15.5833H13.5C13.8978 15.5833 14.2794 15.4341 14.5607 15.1684C14.842 14.9027 15 14.5424 15 14.1666V9.20831" stroke="#52575C" stroke-linecap="round" stroke-linejoin="round"/>
<path d="M13.875 1.77085C14.1734 1.48906 14.578 1.33075 15 1.33075C15.422 1.33075 15.8266 1.48906 16.125 1.77085C16.4234 2.05264 16.591 2.43484 16.591 2.83335C16.591 3.23187 16.4234 3.61406 16.125 3.89585L9 10.625L6 11.3334L6.75 8.50002L13.875 1.77085Z" stroke="#52575C" stroke-linecap="round" stroke-linejoin="round"/>
</svg>
