<svg width="73" height="73" viewBox="0 0 73 73" fill="none" xmlns="http://www.w3.org/2000/svg">
<path d="M65.387 32.3604C65.9837 32.3604 66.556 32.1233 66.978 31.7013C67.3999 31.2794 67.637 30.7071 67.637 30.1104V18.8604C67.637 17.6669 67.1629 16.5223 66.3189 15.6784C65.475 14.8345 64.3304 14.3604 63.137 14.3604H9.13696C7.94349 14.3604 6.7989 14.8345 5.95498 15.6784C5.11107 16.5223 4.63696 17.6669 4.63696 18.8604V30.1104C4.63696 30.7071 4.87402 31.2794 5.29597 31.7013C5.71793 32.1233 6.29023 32.3604 6.88696 32.3604C8.08044 32.3604 9.22503 32.8345 10.0689 33.6784C10.9129 34.5223 11.387 35.6669 11.387 36.8604C11.387 38.0538 10.9129 39.1984 10.0689 40.0423C9.22503 40.8862 8.08044 41.3604 6.88696 41.3604C6.29023 41.3604 5.71793 41.5974 5.29597 42.0194C4.87402 42.4413 4.63696 43.0136 4.63696 43.6104V54.8604C4.63696 56.0538 5.11107 57.1984 5.95498 58.0423C6.7989 58.8862 7.94349 59.3604 9.13696 59.3604H63.137C64.3304 59.3604 65.475 58.8862 66.3189 58.0423C67.1629 57.1984 67.637 56.0538 67.637 54.8604V43.6104C67.637 43.0136 67.3999 42.4413 66.978 42.0194C66.556 41.5974 65.9837 41.3604 65.387 41.3604C64.1935 41.3604 63.0489 40.8862 62.205 40.0423C61.3611 39.1984 60.887 38.0538 60.887 36.8604C60.887 35.6669 61.3611 34.5223 62.205 33.6784C63.0489 32.8345 64.1935 32.3604 65.387 32.3604ZM63.137 45.5679V54.8604H47.387V48.1104H42.887V54.8604H9.13696V45.5679C11.063 45.0645 12.7677 43.9367 13.9844 42.3611C15.2011 40.7856 15.8611 38.851 15.8611 36.8604C15.8611 34.8697 15.2011 32.9351 13.9844 31.3596C12.7677 29.784 11.063 28.6562 9.13696 28.1529V18.8604H42.887V25.6104H47.387V18.8604H63.137V28.1529C61.211 28.6562 59.5062 29.784 58.2895 31.3596C57.0728 32.9351 56.4128 34.8697 56.4128 36.8604C56.4128 38.851 57.0728 40.7856 58.2895 42.3611C59.5062 43.9367 61.211 45.0645 63.137 45.5679Z" fill="#FF8902"/>
<path d="M42.887 30.1104H47.387V43.6104H42.887V30.1104Z" fill="#FF8902"/>
</svg>
